<?xml version="1.0" encoding="utf-8"?>
<!-- Generator: Adobe Illustrator 26.1.0, SVG Export Plug-In . SVG Version: 6.00 Build 0)  -->
<svg version="1.1" id="Capa_2" xmlns="http://www.w3.org/2000/svg" xmlns:xlink="http://www.w3.org/1999/xlink" x="0px" y="0px"
	 viewBox="0 0 436 595" style="enable-background:new 0 0 436 595;" xml:space="preserve">
<style type="text/css">
	.st0{fill:none;}
	.st1{fill:#AC8B66;}
</style>
<g>
	<path class="st0" d="M381.33,119.69c-15.35-3-32.76-6.39-52.81-6.57c-0.13,0-0.27,0-0.4,0c-17.85,0-37.03,10.8-51.4,28.95
		c-16.33,20.63-22.76,46.49-17.2,69.17c5.52,22.49,24.59,24.2,46.68,26.18c11,0.99,22.36,2,32.58,5.83
		c6.83,2.56,11.13,6.06,13.16,10.72c3.55,8.18-0.6,18.15-4.99,28.7l-0.88,2.13c-7.5,18.16-16.27,59.86,4.52,72.83
		c15.24,9.51,45.49,8.54,85.41-2.27v-33.44c-15.02,5.33-27.06,8.75-37.85,8.75c-8.38,0-16.02-2.06-23.74-6.87
		c-22.08-13.78-13.73-33.88-7.02-50.03l1.63-3.92c4.22-10.15,8.21-19.73,5-27.14c-1.79-4.14-5.72-7.29-12.02-9.65
		c-9.97-3.73-21.9-4.63-33.44-5.5c-23.31-1.76-45.33-3.42-47.09-28.07c-1.1-15.29,5.55-32.2,17.78-45.22
		c13.14-13.99,31.16-21.97,49.54-21.97c0.19,0,0.38,0,0.57,0c21.04,0.19,31.4,4.4,40.54,8.11c7.86,3.19,14.64,5.95,26.64,5.3
		c9.69-0.52,15.71-2.84,19.46-5.49v-19.65c-3.89,2.14-8.46,3.61-13.81,3.9C409.38,125.16,396.38,122.63,381.33,119.69z"/>
	<path class="st0" d="M357.67,99.81c-21.76-3.09-44.25-6.28-63.86-6.46c-0.09,0-0.18,0-0.27,0c-14.09,0-29.95,9.82-43.54,27
		c-21.37,26.99-31.73,64.44-25.2,91.06c7.21,29.4,32,33.21,60.7,37.63c4.55,0.7,9.26,1.42,13.97,2.26
		c15.4,2.75,25.66,8.06,29.67,15.38c2.54,4.64,2.59,10,0.14,15.94c-8.16,19.75-24.03,77.17,0.13,105.32
		c16.07,18.72,40.78,26.56,106.59,4.48v-34.98c-18.42,4.99-38.21,8.86-55.32,8.86c-12.27,0-23.15-1.99-31.15-6.98
		c-21.87-13.64-13.02-56.61-5.31-75.29l0.88-2.13c4.22-10.15,8.21-19.74,5-27.14c-1.79-4.14-5.73-7.29-12.02-9.65
		c-9.96-3.73-21.19-4.73-32.06-5.71c-21.9-1.96-42.59-3.82-48.45-27.7c-5.71-23.27,0.86-49.77,17.57-70.89
		c14.75-18.63,34.52-29.71,52.97-29.71c0.14,0,0.28,0,0.41,0c20.24,0.18,37.74,3.6,53.18,6.61c14.92,2.91,27.8,5.43,40.37,4.74
		c5.46-0.29,10.06-1.89,13.92-4.2V92.98c-7.09,6.42-15.43,11.41-24.48,11.9C398.42,105.59,378.63,102.78,357.67,99.81z"/>
	<path class="st0" d="M389.15,142.26c-8.97-3.65-19.14-7.78-39.8-7.96c-18.03-0.12-35.74,7.62-48.63,21.34
		c-11.85,12.62-18.3,28.96-17.24,43.71c1.64,22.93,21.85,24.45,45.25,26.22c11.68,0.88,23.75,1.79,33.99,5.62
		c6.83,2.56,11.13,6.06,13.15,10.72c3.55,8.18-0.6,18.15-4.99,28.7l-1.63,3.92c-6.76,16.26-14.41,34.69,6.23,47.56
		c17.04,10.63,34.02,7.14,60.53-2.3V142.62c-4.08,2.52-10.19,4.58-19.36,5.08C404.21,148.37,397.23,145.54,389.15,142.26z"/>
	<path class="st0" d="M351.92,75.07c-20.33-3.51-45.62-7.87-91.48-6.65c-23.75,0.63-47.16,14.52-65.92,39.1
		c-23.05,30.21-34.45,70.47-27.72,97.89c8.35,34.03,29.15,42.55,86.47,58.21c3.39,0.93,6.98,1.81,10.46,2.66
		c19.46,4.77,39.58,9.71,37.2,25.28c-1.3,8.51-3.58,18.4-6,28.88c-7.97,34.55-17.9,77.55,1.54,100.2
		c21.5,25.05,55.06,45.76,139.54,16.19v-42.32c-26.61,8.87-47.75,13.22-64.21,13.22c-1.21,0-2.4-0.02-3.56-0.07
		c-17.33-0.7-30.15-6.56-40.35-18.44c-11.19-13.03-15.4-32.9-12.51-59.05c2.79-25.37,11.12-46.06,12.05-48.33
		c2.21-5.35,2.2-10.13-0.04-14.21c-3.71-6.76-13.48-11.73-28.27-14.37c-4.69-0.84-9.38-1.56-13.92-2.26
		c-29.41-4.52-54.8-8.43-62.33-39.13c-3.45-14.04-2.56-30.67,2.57-48.07c4.73-16.07,12.9-31.94,23.01-44.71
		c14.07-17.77,30.58-27.86,45.4-27.75c19.74,0.18,42.3,3.38,64.12,6.47c20.86,2.96,40.55,5.75,53.46,5.06
		c9.04-0.49,17.47-5.93,24.58-12.74V72.13c-8.48,3.54-19.12,6.3-32.29,7.08C383.03,80.44,368.62,77.95,351.92,75.07z"/>
	<path class="st0" d="M391.33,54.18c-15.48-0.32-31.19-3.23-47.82-6.3c-38.41-7.1-81.95-15.15-140.66,4.95
		c-47.49,16.27-81.59,46.3-96,84.55c-11.58,30.73-9.53,64.72,5.48,90.92c16.57,28.92,31.55,32.99,81.19,46.47
		c3.07,0.83,6.28,1.7,9.62,2.62c1.4,0.38,2.81,0.76,4.24,1.15c21.05,5.67,44.91,12.09,56.38,33.58c5.27,9.87,0.47,25.99-5.61,46.4
		c-8.24,27.69-18.5,62.14-8.78,97.45c5,18.16,13.83,40.48,37.93,52.04c15.67,7.52,36.47,9.65,61.81,6.33
		c24.27-3.18,53.42-11.44,86.88-24.59V438.9c-27.5,9.48-51.61,14.27-72.05,14.27c-7.5,0-14.5-0.64-21-1.92
		c-24.23-4.78-37.86-17.49-47.99-29.3c-20.1-23.42-10.05-66.96-1.97-101.95c2.41-10.44,4.69-20.3,5.98-28.74
		c2.1-13.76-17.12-18.47-35.7-23.03c-3.49-0.86-7.1-1.74-10.51-2.67c-58.16-15.89-79.28-24.59-87.88-59.67
		c-6.86-27.97,4.68-68.92,28.07-99.58c19.13-25.08,43.09-39.24,67.46-39.89c46.04-1.23,71.46,3.16,91.87,6.68
		c16.58,2.86,30.89,5.33,51.33,4.12c13.34-0.79,24-3.64,32.41-7.26V50.3C425.22,52.94,410.75,54.57,391.33,54.18z"/>
	<path class="st0" d="M360.04,21.32C311.94,8.74,192.69-1.37,134.97,32.23c-45.55,26.52-76.32,66.19-86.65,111.7
		c-8.79,38.71-1.66,78.81,19.56,110.02c13.47,19.81,31.22,32.85,90.85,49.15c1.4,0.38,2.82,0.76,4.25,1.15
		c21.05,5.67,44.91,12.09,56.37,33.58c5.27,9.87,0.47,25.99-5.61,46.4c-8.24,27.69-18.5,62.14-8.78,97.45
		c6.37,23.15,18.24,66.24,60.23,87.79c39.19,20.11,96.6,17.55,170.81-7.59v-69.95c-44.24,17.38-80.29,26.03-108.73,26.03
		c-15.96,0-29.53-2.72-40.82-8.14c-24.83-11.91-33.89-34.75-39-53.32c-9.87-35.86,0.47-70.62,8.79-98.55
		c5.95-19.97,10.64-35.74,5.76-44.89c-11.05-20.73-34.47-27.03-55.13-32.59c-1.43-0.39-2.85-0.77-4.25-1.15
		c-3.34-0.91-6.54-1.78-9.62-2.62c-48.93-13.28-65.41-17.76-82.4-47.4c-15.3-26.71-17.4-61.34-5.62-92.62
		c14.62-38.83,49.15-69.28,97.22-85.74c59.2-20.28,103.02-12.18,141.67-5.03c16.55,3.06,32.18,5.95,47.5,6.27
		c19.6,0.41,34.01-1.31,44.63-4.02V13.7C417.2,27.03,391.71,29.6,360.04,21.32z"/>
	<path class="st1" d="M389.9,140.41c-9.14-3.71-19.5-7.92-40.54-8.11c-0.19,0-0.38,0-0.57,0c-18.37,0-36.4,7.99-49.54,21.97
		c-12.23,13.02-18.88,29.92-17.78,45.22c1.77,24.65,23.78,26.31,47.09,28.07c11.54,0.87,23.47,1.77,33.44,5.5
		c6.3,2.36,10.23,5.51,12.02,9.65c3.21,7.4-0.78,16.99-5,27.14l-1.63,3.92c-6.71,16.15-15.06,36.25,7.02,50.03
		c7.72,4.81,15.35,6.87,23.74,6.87c10.79,0,22.83-3.42,37.85-8.75v-2.12c-26.5,9.45-43.49,12.93-60.53,2.3
		c-20.64-12.88-12.99-31.31-6.23-47.56l1.63-3.92c4.39-10.55,8.54-20.52,4.99-28.7c-2.02-4.66-6.32-8.17-13.15-10.72
		c-10.24-3.83-22.31-4.74-33.99-5.62c-23.4-1.77-43.6-3.29-45.25-26.22c-1.06-14.75,5.39-31.08,17.24-43.71
		c12.89-13.72,30.6-21.46,48.63-21.34c20.66,0.19,30.83,4.32,39.8,7.96c8.08,3.28,15.06,6.12,27.5,5.45
		c9.16-0.5,15.28-2.56,19.36-5.08v-2.41c-3.75,2.65-9.77,4.97-19.46,5.49C404.54,146.36,397.76,143.6,389.9,140.41z"/>
	<path class="st1" d="M381.71,117.73c-15.44-3.01-32.94-6.43-53.18-6.61c-0.14,0-0.28,0-0.41,0c-18.45,0-38.22,11.08-52.97,29.71
		c-16.71,21.11-23.28,47.61-17.57,70.89c5.86,23.88,26.55,25.73,48.45,27.7c10.86,0.97,22.09,1.98,32.06,5.71
		c6.3,2.36,10.23,5.51,12.02,9.65c3.21,7.4-0.78,16.99-5,27.14l-0.88,2.13c-7.71,18.67-16.56,61.64,5.31,75.29
		c8,4.99,18.89,6.98,31.15,6.98c17.11,0,36.9-3.87,55.32-8.86v-2.09c-39.92,10.81-70.17,11.78-85.41,2.27
		c-20.79-12.97-12.02-54.66-4.52-72.83l0.88-2.13c4.39-10.55,8.54-20.52,4.99-28.7c-2.02-4.66-6.32-8.17-13.16-10.72
		c-10.21-3.82-21.58-4.84-32.58-5.83c-22.09-1.98-41.17-3.69-46.68-26.18c-5.56-22.68,0.87-48.54,17.2-69.17
		c14.37-18.15,33.55-28.95,51.4-28.95c0.13,0,0.27,0,0.4,0c20.05,0.18,37.46,3.58,52.81,6.57c15.05,2.94,28.05,5.47,40.86,4.78
		c5.36-0.29,9.92-1.76,13.81-3.9v-2.3c-3.86,2.31-8.46,3.91-13.92,4.2C409.51,123.15,396.63,120.64,381.71,117.73z"/>
	<path class="st1" d="M357.96,97.83c-21.82-3.1-44.39-6.3-64.12-6.47c-14.82-0.11-31.33,9.98-45.4,27.75
		c-10.11,12.77-18.28,28.64-23.01,44.71c-5.12,17.41-6.01,34.03-2.57,48.07c7.53,30.7,32.93,34.6,62.33,39.13
		c4.54,0.7,9.24,1.42,13.92,2.26c14.79,2.64,24.56,7.61,28.27,14.37c2.24,4.08,2.25,8.86,0.04,14.21
		c-0.94,2.27-9.26,22.96-12.05,48.33c-2.88,26.15,1.33,46.02,12.51,59.05c10.19,11.88,23.01,17.73,40.35,18.44
		c1.16,0.05,2.34,0.07,3.56,0.07c16.46,0,37.6-4.36,64.21-13.22v-2.1c-65.82,22.07-90.53,14.24-106.59-4.48
		c-24.16-28.15-8.29-85.57-0.13-105.32c2.45-5.94,2.41-11.3-0.14-15.94c-4.01-7.31-14.27-12.63-29.67-15.38
		c-4.71-0.84-9.42-1.56-13.97-2.26c-28.7-4.41-53.48-8.22-60.7-37.63c-6.53-26.62,3.83-64.07,25.2-91.06
		c13.6-17.17,29.45-27,43.54-27c0.09,0,0.18,0,0.27,0c19.61,0.18,42.1,3.37,63.86,6.46c20.96,2.97,40.75,5.78,53.85,5.07
		c9.04-0.49,17.38-5.48,24.48-11.9v-2.84c-7.11,6.81-15.55,12.26-24.58,12.74C398.51,103.58,378.81,100.79,357.96,97.83z"/>
	<path class="st1" d="M352.26,73.09c-20.42-3.52-45.83-7.91-91.87-6.68c-24.37,0.65-48.33,14.82-67.46,39.89
		c-23.39,30.66-34.94,71.61-28.07,99.58c8.61,35.08,29.73,43.77,87.88,59.67c3.41,0.93,7.02,1.82,10.51,2.67
		c18.59,4.56,37.81,9.27,35.7,23.03c-1.29,8.43-3.57,18.29-5.98,28.74c-8.08,34.99-18.13,78.53,1.97,101.95
		c10.13,11.81,23.76,24.52,47.99,29.3c6.5,1.28,13.51,1.92,21,1.92c20.45,0,44.56-4.78,72.05-14.27v-2.06
		c-84.47,29.56-118.04,8.85-139.54-16.19c-19.44-22.65-9.51-65.65-1.54-100.2c2.42-10.48,4.7-20.38,6-28.88
		c2.38-15.57-17.74-20.5-37.2-25.28c-3.48-0.85-7.08-1.74-10.46-2.66c-57.32-15.66-78.12-24.18-86.47-58.21
		c-6.73-27.43,4.67-67.68,27.72-97.89c18.76-24.58,42.17-38.47,65.92-39.1c45.87-1.22,71.15,3.15,91.48,6.65
		c16.7,2.88,31.11,5.37,51.79,4.14c13.17-0.78,23.81-3.54,32.29-7.08v-2.17c-8.41,3.61-19.07,6.47-32.41,7.26
		C383.15,78.43,368.84,75.96,352.26,73.09z"/>
	<path class="st1" d="M391.37,52.18c-15.32-0.32-30.95-3.21-47.5-6.27c-38.65-7.15-82.46-15.25-141.67,5.03
		c-48.07,16.46-82.6,46.91-97.22,85.74c-11.79,31.29-9.69,65.91,5.62,92.62c16.98,29.64,33.47,34.12,82.4,47.4
		c3.07,0.83,6.28,1.7,9.62,2.62c1.4,0.38,2.82,0.76,4.25,1.15c20.66,5.56,44.08,11.86,55.13,32.59c4.88,9.15,0.18,24.92-5.76,44.89
		c-8.32,27.93-18.66,62.69-8.79,98.55c5.11,18.56,14.16,41.4,39,53.32c11.29,5.42,24.86,8.14,40.82,8.14
		c28.45,0,64.49-8.65,108.73-26.03v-2.17c-33.45,13.15-62.61,21.41-86.88,24.59c-25.34,3.32-46.14,1.19-61.81-6.33
		c-24.11-11.57-32.93-33.89-37.93-52.04c-9.72-35.31,0.54-69.76,8.78-97.45c6.08-20.41,10.88-36.53,5.61-46.4
		c-11.46-21.49-35.32-27.92-56.38-33.58c-1.43-0.38-2.84-0.77-4.24-1.15c-3.34-0.91-6.55-1.78-9.62-2.62
		c-49.64-13.48-64.62-17.54-81.19-46.47c-15.01-26.2-17.06-60.19-5.48-90.92c14.41-38.26,48.5-68.29,96-84.55
		c58.71-20.11,102.24-12.06,140.66-4.95c16.63,3.08,32.34,5.98,47.82,6.3c19.42,0.4,33.88-1.23,44.67-3.87v-2.14
		C425.38,50.87,410.97,52.58,391.37,52.18z"/>
	<path class="st1" d="M265.19,569.47c-41.99-21.55-53.86-64.64-60.23-87.79c-9.72-35.31,0.54-69.76,8.78-97.45
		c6.08-20.41,10.88-36.53,5.61-46.4c-11.46-21.49-35.32-27.91-56.37-33.58c-1.43-0.38-2.85-0.77-4.25-1.15
		c-59.63-16.3-77.38-29.34-90.85-49.15c-21.22-31.21-28.35-71.31-19.56-110.02c10.33-45.51,41.1-85.18,86.65-111.7
		C192.69-1.37,311.94,8.74,360.04,21.32c31.66,8.28,57.16,5.71,75.96-7.62v-2.47c-18.41,13.69-43.74,16.44-75.45,8.15
		C312.18,6.74,192.18-3.39,133.96,30.5c-46.03,26.8-77.14,66.93-87.59,112.98c-8.91,39.25-1.67,79.92,19.86,111.59
		c15.69,23.07,38.04,35.21,91.98,49.95c1.4,0.38,2.82,0.77,4.25,1.15c20.66,5.56,44.07,11.86,55.13,32.59
		c4.88,9.15,0.18,24.92-5.76,44.89c-8.32,27.93-18.66,62.69-8.79,98.55c6.46,23.45,18.47,67.09,61.25,89.04
		c17.67,9.07,38.96,13.6,63.74,13.6c30.71,0,66.79-6.97,107.98-20.87v-2.1C361.8,587.02,304.38,589.58,265.19,569.47z"/>
</g>
</svg>
