<?xml version="1.0" encoding="utf-8"?>
<!-- Generator: Adobe Illustrator 26.1.0, SVG Export Plug-In . SVG Version: 6.00 Build 0)  -->
<svg version="1.1" id="Capa_2" xmlns="http://www.w3.org/2000/svg" xmlns:xlink="http://www.w3.org/1999/xlink" x="0px" y="0px"
	 viewBox="0 0 436 595" style="enable-background:new 0 0 436 595;" xml:space="preserve">
<style type="text/css">
	.st0{fill:none;}
	.st1{fill:#AC8B66;}
</style>
<g>
	<path class="st0" d="M54.67,119.46c15.35-3,32.76-6.39,52.81-6.57c0.13,0,0.27,0,0.4,0c17.85,0,37.03,10.8,51.4,28.95
		c16.33,20.63,22.76,46.49,17.2,69.17c-5.52,22.49-24.59,24.2-46.68,26.18c-11,0.99-22.36,2-32.58,5.83
		c-6.83,2.56-11.13,6.06-13.16,10.72c-3.55,8.18,0.6,18.15,4.99,28.7l0.88,2.13c7.5,18.16,16.27,59.86-4.52,72.83
		c-15.24,9.51-45.49,8.54-85.41-2.27l0-33.44c15.02,5.33,27.06,8.75,37.85,8.75c8.38,0,16.02-2.06,23.74-6.87
		c22.08-13.78,13.73-33.88,7.02-50.03l-1.63-3.92c-4.22-10.15-8.21-19.73-5-27.14c1.79-4.14,5.72-7.29,12.02-9.65
		c9.97-3.73,21.9-4.63,33.44-5.5c23.31-1.76,45.33-3.42,47.09-28.07c1.1-15.29-5.55-32.2-17.78-45.22
		c-13.14-13.99-31.16-21.97-49.54-21.97c-0.19,0-0.38,0-0.57,0c-21.04,0.19-31.4,4.4-40.54,8.11c-7.86,3.19-14.64,5.95-26.64,5.3
		c-9.69-0.52-15.71-2.84-19.46-5.49l0-19.65c3.89,2.14,8.46,3.61,13.81,3.9C26.62,124.93,39.62,122.4,54.67,119.46z"/>
	<path class="st0" d="M78.33,99.58c21.76-3.09,44.25-6.28,63.86-6.46c0.09,0,0.18,0,0.27,0c14.09,0,29.95,9.82,43.54,27
		c21.37,26.99,31.73,64.44,25.2,91.06c-7.21,29.4-32,33.21-60.7,37.63c-4.55,0.7-9.26,1.42-13.97,2.26
		c-15.4,2.75-25.66,8.06-29.67,15.38c-2.54,4.64-2.59,10-0.14,15.94c8.16,19.75,24.03,77.17-0.13,105.32
		C90.53,406.43,65.82,414.26,0,392.19l0-34.98c18.42,4.99,38.21,8.86,55.32,8.86c12.27,0,23.15-1.99,31.15-6.98
		c21.87-13.64,13.02-56.61,5.31-75.29l-0.88-2.13c-4.22-10.15-8.21-19.74-5-27.14c1.79-4.14,5.73-7.29,12.02-9.65
		c9.96-3.73,21.19-4.73,32.06-5.71c21.9-1.96,42.59-3.82,48.45-27.7c5.71-23.27-0.86-49.77-17.57-70.89
		c-14.75-18.63-34.52-29.71-52.97-29.71c-0.14,0-0.28,0-0.41,0c-20.24,0.18-37.74,3.6-53.18,6.61c-14.92,2.91-27.8,5.43-40.37,4.74
		c-5.46-0.29-10.06-1.89-13.92-4.2l0-25.29c7.09,6.42,15.43,11.41,24.48,11.9C37.58,105.36,57.37,102.55,78.33,99.58z"/>
	<path class="st0" d="M46.85,142.03c8.97-3.65,19.14-7.78,39.8-7.96c18.03-0.12,35.74,7.62,48.63,21.34
		c11.85,12.62,18.3,28.96,17.24,43.71c-1.64,22.93-21.85,24.45-45.25,26.22c-11.68,0.88-23.75,1.79-33.99,5.62
		c-6.83,2.56-11.13,6.06-13.15,10.72c-3.55,8.18,0.6,18.15,4.99,28.7l1.63,3.92c6.76,16.26,14.41,34.69-6.23,47.56
		c-17.04,10.63-34.02,7.14-60.53-2.3L0,142.4c4.08,2.52,10.19,4.58,19.36,5.08C31.79,148.15,38.77,145.31,46.85,142.03z"/>
	<path class="st0" d="M84.08,74.84c20.33-3.51,45.62-7.87,91.48-6.65c23.75,0.63,47.16,14.52,65.92,39.1
		c23.05,30.21,34.45,70.47,27.72,97.89c-8.35,34.03-29.15,42.55-86.47,58.21c-3.39,0.93-6.98,1.81-10.46,2.66
		c-19.46,4.77-39.58,9.71-37.2,25.28c1.3,8.51,3.58,18.4,6,28.88c7.97,34.55,17.9,77.55-1.54,100.2
		C118.04,445.46,84.47,466.17,0,436.61l0-42.32c26.61,8.87,47.75,13.22,64.21,13.22c1.21,0,2.4-0.02,3.56-0.07
		c17.33-0.7,30.15-6.56,40.35-18.44c11.19-13.03,15.4-32.9,12.51-59.05c-2.79-25.37-11.12-46.06-12.05-48.33
		c-2.21-5.35-2.2-10.13,0.04-14.21c3.71-6.76,13.48-11.73,28.27-14.37c4.69-0.84,9.38-1.56,13.92-2.26
		c29.41-4.52,54.8-8.43,62.33-39.13c3.45-14.04,2.56-30.67-2.57-48.07c-4.73-16.07-12.9-31.94-23.01-44.71
		c-14.07-17.77-30.58-27.86-45.4-27.75c-19.74,0.18-42.3,3.38-64.12,6.47c-20.86,2.96-40.55,5.75-53.46,5.06
		C15.55,102.17,7.11,96.72,0,89.91L0,71.9c8.48,3.54,19.12,6.3,32.29,7.08C52.97,80.21,67.38,77.72,84.08,74.84z"/>
	<path class="st0" d="M44.67,53.95c15.48-0.32,31.19-3.23,47.82-6.3c38.41-7.1,81.95-15.15,140.66,4.95
		c47.49,16.27,81.59,46.3,96,84.55c11.58,30.73,9.53,64.72-5.48,90.92c-16.57,28.92-31.55,32.99-81.19,46.47
		c-3.07,0.83-6.28,1.7-9.62,2.62c-1.4,0.38-2.81,0.76-4.24,1.15c-21.05,5.67-44.91,12.09-56.38,33.58
		c-5.27,9.87-0.47,25.99,5.61,46.4c8.24,27.69,18.5,62.14,8.78,97.45c-5,18.16-13.83,40.48-37.93,52.04
		c-15.67,7.52-36.47,9.65-61.81,6.33C62.61,510.94,33.45,502.68,0,489.53l0-50.86c27.5,9.48,51.61,14.27,72.05,14.27
		c7.5,0,14.5-0.64,21-1.92c24.23-4.78,37.86-17.49,47.99-29.3c20.1-23.42,10.05-66.96,1.97-101.95c-2.41-10.44-4.69-20.3-5.98-28.74
		c-2.1-13.76,17.12-18.47,35.7-23.03c3.49-0.86,7.1-1.74,10.51-2.67c58.16-15.89,79.28-24.59,87.88-59.67
		c6.86-27.97-4.68-68.92-28.07-99.58C223.94,81,199.98,66.83,175.61,66.18c-46.04-1.23-71.46,3.16-91.87,6.68
		c-16.58,2.86-30.89,5.33-51.33,4.12c-13.34-0.79-24-3.64-32.41-7.26l0-19.65C10.78,52.72,25.25,54.35,44.67,53.95z"/>
	<path class="st0" d="M75.96,21.09C124.06,8.52,243.31-1.6,301.03,32c45.55,26.52,76.32,66.19,86.65,111.7
		c8.79,38.71,1.66,78.81-19.56,110.02c-13.47,19.81-31.22,32.85-90.85,49.15c-1.4,0.38-2.82,0.76-4.25,1.15
		c-21.05,5.67-44.91,12.09-56.37,33.58c-5.27,9.87-0.47,25.99,5.61,46.4c8.24,27.69,18.5,62.14,8.78,97.45
		c-6.37,23.15-18.24,66.24-60.23,87.79C131.62,589.36,74.2,586.79,0,561.65l0-69.95c44.24,17.38,80.29,26.03,108.73,26.03
		c15.96,0,29.53-2.72,40.82-8.14c24.83-11.91,33.89-34.75,39-53.32c9.87-35.86-0.47-70.62-8.79-98.55
		c-5.95-19.97-10.64-35.74-5.76-44.89c11.05-20.73,34.47-27.03,55.13-32.59c1.43-0.39,2.85-0.77,4.25-1.15
		c3.34-0.91,6.54-1.78,9.62-2.62c48.93-13.28,65.41-17.76,82.4-47.4c15.3-26.71,17.4-61.34,5.62-92.62
		c-14.62-38.83-49.15-69.28-97.22-85.74c-59.2-20.28-103.02-12.18-141.67-5.03c-16.55,3.06-32.18,5.95-47.5,6.27
		C25.03,52.35,10.62,50.64,0,47.93l0-34.46C18.8,26.8,44.29,29.37,75.96,21.09z"/>
	<path class="st1" d="M46.1,140.18c9.14-3.71,19.5-7.92,40.54-8.11c0.19,0,0.38,0,0.57,0c18.37,0,36.4,7.99,49.54,21.97
		c12.23,13.02,18.88,29.92,17.78,45.22c-1.77,24.65-23.78,26.31-47.09,28.07c-11.54,0.87-23.47,1.77-33.44,5.5
		c-6.3,2.36-10.23,5.51-12.02,9.65c-3.21,7.4,0.78,16.99,5,27.14l1.63,3.92c6.71,16.15,15.06,36.25-7.02,50.03
		c-7.72,4.81-15.35,6.87-23.74,6.87c-10.79,0-22.83-3.42-37.85-8.75l0-2.12c26.5,9.45,43.49,12.93,60.53,2.3
		c20.64-12.88,12.99-31.31,6.23-47.56l-1.63-3.92c-4.39-10.55-8.54-20.52-4.99-28.7c2.02-4.66,6.32-8.17,13.15-10.72
		c10.24-3.83,22.31-4.74,33.99-5.62c23.4-1.77,43.6-3.29,45.25-26.22c1.06-14.75-5.39-31.08-17.24-43.71
		c-12.89-13.72-30.6-21.46-48.63-21.34c-20.66,0.19-30.83,4.32-39.8,7.96c-8.08,3.28-15.06,6.12-27.5,5.45
		c-9.16-0.5-15.28-2.56-19.36-5.08l0-2.41c3.75,2.65,9.77,4.97,19.46,5.49C31.46,146.13,38.24,143.37,46.1,140.18z"/>
	<path class="st1" d="M54.29,117.5c15.44-3.01,32.94-6.43,53.18-6.61c0.14,0,0.28,0,0.41,0c18.45,0,38.22,11.08,52.97,29.71
		c16.71,21.11,23.28,47.61,17.57,70.89c-5.86,23.88-26.55,25.73-48.45,27.7c-10.86,0.97-22.09,1.98-32.06,5.71
		c-6.3,2.36-10.23,5.51-12.02,9.65c-3.21,7.4,0.78,16.99,5,27.14l0.88,2.13c7.71,18.67,16.56,61.64-5.31,75.29
		c-8,4.99-18.89,6.98-31.15,6.98c-17.11,0-36.9-3.87-55.32-8.86l0-2.09c39.92,10.81,70.17,11.78,85.41,2.27
		c20.79-12.97,12.02-54.66,4.52-72.83l-0.88-2.13c-4.39-10.55-8.54-20.52-4.99-28.7c2.02-4.66,6.32-8.17,13.16-10.72
		c10.21-3.82,21.58-4.84,32.58-5.83c22.09-1.98,41.17-3.69,46.68-26.18c5.56-22.68-0.87-48.54-17.2-69.17
		c-14.37-18.15-33.55-28.95-51.4-28.95c-0.13,0-0.27,0-0.4,0c-20.05,0.18-37.46,3.58-52.81,6.57c-15.05,2.94-28.05,5.47-40.86,4.78
		c-5.36-0.29-9.92-1.76-13.81-3.9l0-2.3c3.86,2.31,8.46,3.91,13.92,4.2C26.49,122.92,39.37,120.41,54.29,117.5z"/>
	<path class="st1" d="M78.04,97.6c21.82-3.1,44.39-6.3,64.12-6.47c14.82-0.11,31.33,9.98,45.4,27.75
		c10.11,12.77,18.28,28.64,23.01,44.71c5.12,17.41,6.01,34.03,2.57,48.07c-7.53,30.7-32.93,34.6-62.33,39.13
		c-4.54,0.7-9.24,1.42-13.92,2.26c-14.79,2.64-24.56,7.61-28.27,14.37c-2.24,4.08-2.25,8.86-0.04,14.21
		c0.94,2.27,9.26,22.96,12.05,48.33c2.88,26.15-1.33,46.02-12.51,59.05c-10.19,11.88-23.01,17.73-40.35,18.44
		c-1.16,0.05-2.34,0.07-3.56,0.07c-16.46,0-37.6-4.36-64.21-13.22l0-2.1c65.82,22.07,90.53,14.24,106.59-4.48
		c24.16-28.15,8.29-85.57,0.13-105.32c-2.45-5.94-2.41-11.3,0.14-15.94c4.01-7.31,14.27-12.63,29.67-15.38
		c4.71-0.84,9.42-1.56,13.97-2.26c28.7-4.41,53.48-8.22,60.7-37.63c6.53-26.62-3.83-64.07-25.2-91.06c-13.6-17.17-29.45-27-43.54-27
		c-0.09,0-0.18,0-0.27,0c-19.61,0.18-42.1,3.37-63.86,6.46c-20.96,2.97-40.75,5.78-53.85,5.07C15.43,104.16,7.09,99.17,0,92.75
		l0-2.84c7.11,6.81,15.55,12.26,24.58,12.74C37.49,103.35,57.19,100.56,78.04,97.6z"/>
	<path class="st1" d="M83.74,72.87c20.42-3.52,45.83-7.91,91.87-6.68c24.37,0.65,48.33,14.82,67.46,39.89
		c23.39,30.66,34.94,71.61,28.07,99.58c-8.61,35.08-29.73,43.77-87.88,59.67c-3.41,0.93-7.02,1.82-10.51,2.67
		c-18.59,4.56-37.81,9.27-35.7,23.03c1.29,8.43,3.57,18.29,5.98,28.74c8.08,34.99,18.13,78.53-1.97,101.95
		c-10.13,11.81-23.76,24.52-47.99,29.3c-6.5,1.28-13.51,1.92-21,1.92c-20.45,0-44.56-4.78-72.05-14.27l0-2.06
		c84.47,29.56,118.04,8.85,139.54-16.19c19.44-22.65,9.51-65.65,1.54-100.2c-2.42-10.48-4.7-20.38-6-28.88
		c-2.38-15.57,17.74-20.5,37.2-25.28c3.48-0.85,7.08-1.74,10.46-2.66c57.32-15.66,78.12-24.18,86.47-58.21
		c6.73-27.43-4.67-67.68-27.72-97.89c-18.76-24.58-42.17-38.47-65.92-39.1c-45.87-1.22-71.15,3.15-91.48,6.65
		c-16.7,2.88-31.11,5.37-51.79,4.14C19.12,78.2,8.48,75.44,0,71.9l0-2.17c8.41,3.61,19.07,6.47,32.41,7.26
		C52.85,78.2,67.16,75.73,83.74,72.87z"/>
	<path class="st1" d="M44.63,51.95c15.32-0.32,30.95-3.21,47.5-6.27c38.65-7.15,82.46-15.25,141.67,5.03
		c48.07,16.46,82.6,46.91,97.22,85.74c11.79,31.29,9.69,65.91-5.62,92.62c-16.98,29.64-33.47,34.12-82.4,47.4
		c-3.07,0.83-6.28,1.7-9.62,2.62c-1.4,0.38-2.82,0.76-4.25,1.15c-20.66,5.56-44.08,11.86-55.13,32.59
		c-4.88,9.15-0.18,24.92,5.76,44.89c8.32,27.93,18.66,62.69,8.79,98.55c-5.11,18.56-14.16,41.4-39,53.32
		c-11.29,5.42-24.86,8.14-40.82,8.14c-28.45,0-64.49-8.65-108.73-26.03l0-2.17c33.45,13.15,62.61,21.41,86.88,24.59
		c25.34,3.32,46.14,1.19,61.81-6.33c24.11-11.57,32.93-33.89,37.93-52.04c9.72-35.31-0.54-69.76-8.78-97.45
		c-6.08-20.41-10.88-36.53-5.61-46.4c11.46-21.49,35.32-27.92,56.38-33.58c1.43-0.38,2.84-0.77,4.24-1.15
		c3.34-0.91,6.55-1.78,9.62-2.62c49.64-13.48,64.62-17.54,81.19-46.47c15.01-26.2,17.06-60.19,5.48-90.92
		c-14.41-38.26-48.5-68.29-96-84.55C174.44,32.49,130.9,40.54,92.49,47.65c-16.63,3.08-32.34,5.98-47.82,6.3
		C25.25,54.35,10.78,52.72,0,50.08l0-2.14C10.62,50.64,25.03,52.35,44.63,51.95z"/>
	<path class="st1" d="M170.81,569.24c41.99-21.55,53.86-64.64,60.23-87.79c9.72-35.31-0.54-69.76-8.78-97.45
		c-6.08-20.41-10.88-36.53-5.61-46.4c11.46-21.49,35.32-27.91,56.37-33.58c1.43-0.38,2.85-0.77,4.25-1.15
		c59.63-16.3,77.38-29.34,90.85-49.15c21.22-31.21,28.35-71.31,19.56-110.02c-10.33-45.51-41.1-85.18-86.65-111.7
		C243.31-1.6,124.06,8.52,75.96,21.09C44.29,29.37,18.8,26.8,0,13.47l0-2.47c18.41,13.69,43.74,16.44,75.45,8.15
		C123.82,6.51,243.82-3.62,302.04,30.28c46.03,26.8,77.14,66.93,87.59,112.98c8.91,39.25,1.67,79.92-19.86,111.59
		c-15.69,23.07-38.04,35.21-91.98,49.95c-1.4,0.38-2.82,0.77-4.25,1.15c-20.66,5.56-44.07,11.86-55.13,32.59
		c-4.88,9.15-0.18,24.92,5.76,44.89c8.32,27.93,18.66,62.69,8.79,98.55c-6.46,23.45-18.47,67.09-61.25,89.04
		c-17.67,9.07-38.96,13.6-63.74,13.6c-30.71,0-66.79-6.97-107.98-20.87l0-2.1C74.2,586.79,131.62,589.36,170.81,569.24z"/>
</g>
</svg>
