<?xml version="1.0" encoding="utf-8"?>
<!-- Generator: Adobe Illustrator 26.1.0, SVG Export Plug-In . SVG Version: 6.00 Build 0)  -->
<svg version="1.1" id="Capa_2" xmlns="http://www.w3.org/2000/svg" xmlns:xlink="http://www.w3.org/1999/xlink" x="0px" y="0px"
	 viewBox="0 0 168 165" style="enable-background:new 0 0 168 165;" xml:space="preserve">
<style type="text/css">
	.st0{fill:#AC8B66;}
</style>
<g>
	<path class="st0" d="M3.62,10.77c6.91,0,18.89-1.59,30.27-10.77h-3.3C17.8,9.25,4.74,9.06,0,8.61v2
		C0.95,10.7,2.17,10.77,3.62,10.77z"/>
	<path class="st0" d="M5.83,38.86c4.02,0,8.98-0.49,14.41-2.1C31.69,33.37,47.26,24.18,59.01,0h-2.23
		c-9.12,18.31-21.8,30.28-37.01,34.81c-8.3,2.48-15.55,2.2-19.78,1.66v2.04C1.59,38.7,3.56,38.86,5.83,38.86z"/>
	<path class="st0" d="M3.89,72.05c15.98-2.57,35.88-5.76,54.17-32.85C69.81,21.82,76.49,9.16,80.18,0h-2.13
		c-3.66,8.85-10.21,21.15-21.64,38.09C38.6,64.45,19.99,67.44,3.58,70.08c-1.21,0.19-2.4,0.39-3.58,0.59v2.03
		C1.28,72.48,2.57,72.27,3.89,72.05z"/>
	<path class="st0" d="M35.96,98.62C55.5,83.71,79.57,39.29,91.13,17.95c2.14-3.95,3.83-7.08,5.09-9.27c1.59-2.79,3.9-5.74,6.57-8.67
		h-2.69c-2.24,2.59-4.19,5.18-5.62,7.68c-1.27,2.22-2.96,5.35-5.11,9.31c-11.5,21.22-35.43,65.39-54.63,80.03
		C20.14,108.17,7.2,111.8,0,112.97v2.07C7.37,113.92,20.68,110.28,35.96,98.62z"/>
	<path class="st0" d="M150.16,0c-20.23,17.93-26.53,29.49-35.51,46.01C107.92,58.39,99.54,73.8,82.64,97
		C48.36,144.06,15.03,158.16,0,162.31v2.13c4.96-1.31,11.97-3.71,20.45-8.08c15.65-8.07,39.43-24.72,63.8-58.18
		c16.97-23.3,25.39-38.78,32.15-51.21c9.41-17.32,15.55-28.59,36.73-46.96H150.16z"/>
</g>
</svg>
