<?xml version="1.0" encoding="utf-8"?>
<!-- Generator: Adobe Illustrator 26.1.0, SVG Export Plug-In . SVG Version: 6.00 Build 0)  -->
<svg version="1.1" id="Capa_1" xmlns="http://www.w3.org/2000/svg" xmlns:xlink="http://www.w3.org/1999/xlink" x="0px" y="0px"
	 viewBox="0 0 436 593" style="enable-background:new 0 0 436 593;" xml:space="preserve">
<style type="text/css">
	.st0{fill:#AC8B66;}
</style>
<g>
	<path class="st0" d="M375.47,278.61c17.04,10.63,34.02,7.14,60.53-2.3v2.12c-15.02,5.33-27.06,8.75-37.85,8.75
		c-8.38,0-16.02-2.06-23.74-6.87c-22.08-13.78-13.73-33.88-7.02-50.03l1.63-3.92c4.22-10.15,8.21-19.73,5-27.14
		c-1.79-4.14-5.72-7.29-12.02-9.65c-9.97-3.73-21.9-4.63-33.44-5.5c-23.31-1.76-45.33-3.42-47.09-28.07
		c-1.1-15.29,5.55-32.2,17.78-45.22c13.14-13.99,31.16-21.97,49.54-21.97c0.19,0,0.38,0,0.57,0c21.04,0.19,31.4,4.4,40.54,8.11
		c7.86,3.19,14.64,5.95,26.64,5.3c9.69-0.52,15.71-2.84,19.46-5.49v2.41c-4.08,2.52-10.19,4.58-19.36,5.08
		c-12.44,0.67-19.42-2.16-27.5-5.45c-8.97-3.65-19.14-7.78-39.8-7.96c-18.03-0.12-35.74,7.62-48.63,21.34
		c-11.85,12.62-18.3,28.96-17.24,43.71c1.64,22.93,21.85,24.45,45.25,26.22c11.68,0.88,23.75,1.79,33.99,5.62
		c6.83,2.56,11.13,6.06,13.15,10.72c3.55,8.18-0.6,18.15-4.99,28.7l-1.63,3.92C362.49,247.31,354.83,265.74,375.47,278.61z"/>
	<path class="st0" d="M436,313.96c-18.42,4.99-38.21,8.86-55.32,8.86c-12.27,0-23.15-1.99-31.15-6.98
		c-21.87-13.64-13.02-56.61-5.31-75.29l0.88-2.13c4.22-10.15,8.21-19.74,5-27.14c-1.79-4.14-5.73-7.29-12.02-9.65
		c-9.96-3.73-21.19-4.73-32.06-5.71c-21.9-1.96-42.59-3.82-48.45-27.7c-5.71-23.27,0.86-49.77,17.57-70.89
		c14.75-18.63,34.52-29.71,52.97-29.71c0.14,0,0.28,0,0.41,0c20.24,0.18,37.74,3.6,53.18,6.61c14.92,2.91,27.8,5.43,40.37,4.74
		c5.46-0.29,10.06-1.89,13.92-4.2v2.3c-3.89,2.14-8.46,3.61-13.81,3.9c-12.81,0.69-25.81-1.84-40.86-4.78
		c-15.35-3-32.76-6.39-52.81-6.57c-0.13,0-0.27,0-0.4,0c-17.85,0-37.03,10.8-51.4,28.95c-16.33,20.63-22.76,46.49-17.2,69.17
		c5.52,22.49,24.59,24.2,46.68,26.18c11,0.99,22.36,2,32.58,5.83c6.83,2.56,11.13,6.06,13.16,10.72c3.55,8.18-0.6,18.15-4.99,28.7
		l-0.88,2.13c-7.5,18.16-16.27,59.86,4.52,72.83c15.24,9.51,45.49,8.54,85.41-2.27V313.96z"/>
	<path class="st0" d="M436,351.04c-26.61,8.87-47.75,13.22-64.21,13.22c-1.21,0-2.4-0.02-3.56-0.07
		c-17.33-0.7-30.15-6.56-40.35-18.44c-11.19-13.03-15.4-32.9-12.51-59.05c2.79-25.37,11.12-46.06,12.05-48.33
		c2.21-5.35,2.2-10.13-0.04-14.21c-3.71-6.76-13.48-11.73-28.27-14.37c-4.69-0.84-9.38-1.56-13.92-2.26
		c-29.41-4.52-54.8-8.43-62.33-39.13c-3.45-14.04-2.56-30.67,2.57-48.07c4.73-16.07,12.9-31.94,23.01-44.71
		c14.07-17.77,30.58-27.86,45.4-27.75c19.74,0.18,42.3,3.38,64.12,6.47c20.86,2.96,40.55,5.75,53.46,5.06
		c9.04-0.49,17.47-5.93,24.58-12.74v2.84c-7.09,6.42-15.43,11.41-24.48,11.9c-13.1,0.71-32.89-2.1-53.85-5.07
		c-21.76-3.09-44.25-6.28-63.86-6.46c-0.09,0-0.18,0-0.27,0c-14.09,0-29.95,9.82-43.54,27c-21.37,26.99-31.73,64.44-25.2,91.06
		c7.21,29.4,32,33.21,60.7,37.63c4.55,0.7,9.26,1.42,13.97,2.26c15.4,2.75,25.66,8.06,29.67,15.38c2.54,4.64,2.59,10,0.14,15.94
		c-8.16,19.75-24.03,77.17,0.13,105.32c16.07,18.72,40.78,26.56,106.59,4.48V351.04z"/>
	<path class="st0" d="M436,395.42c-27.5,9.48-51.61,14.27-72.05,14.27c-7.5,0-14.5-0.64-21-1.92c-24.23-4.78-37.86-17.49-47.99-29.3
		c-20.1-23.42-10.05-66.96-1.97-101.95c2.41-10.44,4.69-20.3,5.98-28.74c2.1-13.76-17.12-18.47-35.7-23.03
		c-3.49-0.86-7.1-1.74-10.51-2.67c-58.16-15.89-79.28-24.59-87.88-59.67c-6.86-27.97,4.68-68.92,28.07-99.58
		c19.13-25.08,43.09-39.24,67.46-39.89c46.04-1.23,71.46,3.16,91.87,6.68c16.58,2.86,30.89,5.33,51.33,4.12
		c13.34-0.79,24-3.64,32.41-7.26v2.17c-8.48,3.54-19.12,6.3-32.29,7.08c-20.67,1.23-35.09-1.26-51.79-4.14
		c-20.33-3.51-45.62-7.87-91.48-6.65c-23.75,0.63-47.16,14.52-65.92,39.1c-23.05,30.21-34.45,70.47-27.72,97.89
		c8.35,34.03,29.15,42.55,86.47,58.21c3.39,0.93,6.98,1.81,10.46,2.66c19.46,4.77,39.58,9.71,37.2,25.28
		c-1.3,8.51-3.58,18.4-6,28.88c-7.97,34.55-17.9,77.55,1.54,100.2c21.5,25.05,55.06,45.76,139.54,16.19V395.42z"/>
	<path class="st0" d="M202.85,9.35c-47.49,16.27-81.59,46.3-96,84.55c-11.58,30.73-9.53,64.72,5.48,90.92
		c16.57,28.92,31.55,32.99,81.19,46.47c3.07,0.83,6.28,1.7,9.62,2.62c1.4,0.38,2.81,0.76,4.24,1.15
		c21.05,5.67,44.91,12.09,56.38,33.58c5.27,9.87,0.47,25.99-5.61,46.4c-8.24,27.69-18.5,62.14-8.78,97.45
		c5,18.16,13.83,40.48,37.93,52.04c15.67,7.52,36.47,9.65,61.81,6.33c24.27-3.18,53.42-11.44,86.88-24.59v2.17
		c-44.24,17.38-80.29,26.03-108.73,26.03c-15.96,0-29.53-2.72-40.82-8.14c-24.83-11.91-33.89-34.75-39-53.32
		c-9.87-35.86,0.47-70.62,8.79-98.55c5.95-19.97,10.64-35.74,5.76-44.89c-11.05-20.73-34.47-27.03-55.13-32.59
		c-1.43-0.39-2.85-0.77-4.25-1.15c-3.34-0.91-6.54-1.78-9.62-2.62c-48.93-13.28-65.41-17.76-82.4-47.4
		c-15.3-26.71-17.4-61.34-5.62-92.62c14.62-38.83,49.15-69.28,97.22-85.74c9.13-3.13,17.89-5.57,26.32-7.46l10.2,0
		C227.4,2.01,215.48,5.02,202.85,9.35z"/>
	<path class="st0" d="M343.87,2.43c16.55,3.06,32.18,5.95,47.5,6.27c19.6,0.41,34.01-1.31,44.63-4.02v2.14
		c-10.78,2.64-25.25,4.27-44.67,3.87c-15.48-0.32-31.19-3.23-47.82-6.3c-8.21-1.52-16.65-3.08-25.42-4.4l12.39,0
		C335.02,0.79,339.48,1.62,343.87,2.43z"/>
	<path class="st0" d="M48.32,100.45c-8.79,38.71-1.66,78.81,19.56,110.02c13.47,19.81,31.22,32.85,90.85,49.15
		c1.4,0.38,2.82,0.76,4.25,1.15c21.05,5.67,44.91,12.09,56.37,33.58c5.27,9.87,0.47,25.99-5.61,46.4
		c-8.24,27.69-18.5,62.14-8.78,97.45c6.37,23.15,18.24,66.24,60.23,87.79c39.19,20.11,96.6,17.55,170.81-7.59v2.1
		c-41.19,13.9-77.27,20.87-107.98,20.87c-24.78,0-46.07-4.53-63.74-13.6c-42.78-21.96-54.79-65.6-61.25-89.04
		c-9.87-35.86,0.48-70.62,8.79-98.55c5.95-19.97,10.64-35.74,5.76-44.89c-11.05-20.73-34.47-27.03-55.13-32.59
		c-1.43-0.38-2.85-0.77-4.25-1.15c-53.94-14.74-76.28-26.88-91.98-49.95c-21.53-31.66-28.77-72.34-19.86-111.59
		C55.25,60.88,79.05,26.03,114.23,0l3.4,0C81.62,25.91,57.28,60.98,48.32,100.45z"/>
</g>
</svg>
