<?xml version="1.0" encoding="utf-8"?>
<!-- Generator: Adobe Illustrator 26.1.0, SVG Export Plug-In . SVG Version: 6.00 Build 0)  -->
<svg version="1.1" id="Capa_2" xmlns="http://www.w3.org/2000/svg" xmlns:xlink="http://www.w3.org/1999/xlink" x="0px" y="0px"
	 viewBox="0 0 124 330" style="enable-background:new 0 0 124 330;" xml:space="preserve">
<style type="text/css">
	.st0{fill:none;}
	.st1{fill:#AC8B66;}
</style>
<g>
	<path class="st0" d="M112.91,126.21c3.43,12.73,8.46,19.7,11.09,22.67v-47.91C119.82,103.56,109.03,111.83,112.91,126.21z"/>
	<path class="st0" d="M60.07,85.61c-16.65,25.12-22.89,45.44-17.57,57.23c2.73,6.04,8.4,9.7,16.88,10.88
		c22.49,3.12,57.06,16.47,64.63,19.47V159.4c-5.27-0.47-28.16-4.21-42.52-34.15c-6.81-14.19-1.44-30.18,15.53-46.25
		c11.16-10.57,24.01-17.99,26.99-19.65V38.35C117.06,40.09,83.62,50.08,60.07,85.61z"/>
	<path class="st0" d="M68.19,31.17c-26.27,26.98-53.13,58.95-53.13,91.54c0,31.47,14.67,37.75,38.6,45.4
		c9.01,2.88,16.18,5.04,21.94,6.77c16.03,4.83,22.03,6.63,29.44,12.45c9.84,7.73,15.8,16.21,9.31,61.87
		c-1.37,9.65-2.55,17.13-3.49,23.13c-3.4,21.65-3.61,22.95,1.52,33.46c3.81,7.83,8.06,11.46,11.63,13.06V175.33
		c-5.6-2.23-41.78-16.43-64.9-19.64c-9.2-1.28-15.4-5.33-18.43-12.04c-5.69-12.61,0.44-33.07,17.73-59.15
		C82.86,47.6,117.89,37.76,124,36.29v-21.3C118.48,13.67,90.36,8.41,68.19,31.17z"/>
	<path class="st0" d="M83.28,124.39c13.81,28.78,35.58,32.52,40.72,33.01v-5.64c-1.89-1.75-8.69-8.92-13.02-25.03
		c-4.54-16.86,9.72-26.18,13.02-28.08V61.66C114.79,66.95,69.21,95.07,83.28,124.39z"/>
	<path class="st1" d="M112.37,305.8c-5.12-10.51-4.92-11.81-1.52-33.46c0.94-6.01,2.12-13.48,3.49-23.13
		c6.49-45.65,0.53-54.14-9.31-61.87c-7.41-5.82-13.4-7.62-29.44-12.45c-5.76-1.73-12.92-3.89-21.94-6.77
		c-23.93-7.65-38.6-13.93-38.6-45.4c0-32.59,26.86-64.56,53.13-91.54C90.36,8.41,118.48,13.67,124,14.99v-2.02
		c-3.16-0.85-33.05-8.03-57.25,16.81c-26.55,27.26-53.7,59.62-53.7,92.93c0,34.53,18.53,40.45,39.99,47.3
		c9.03,2.89,16.2,5.05,21.97,6.78c15.77,4.75,21.67,6.53,28.78,12.11c9.29,7.3,14.91,15.42,8.57,60.01
		c-1.37,9.63-2.54,17.1-3.49,23.1c-3.42,21.79-3.7,23.57,1.69,34.65c4.29,8.81,9.27,12.67,13.43,14.27v-2.08
		C120.43,317.25,116.18,313.63,112.37,305.8z"/>
	<path class="st1" d="M58.4,84.51c-17.29,26.08-23.42,46.54-17.73,59.15c3.03,6.71,9.23,10.76,18.43,12.04
		c23.13,3.21,59.3,17.4,64.9,19.64v-2.15c-7.57-3-42.14-16.34-64.63-19.47c-8.47-1.18-14.15-4.84-16.88-10.88
		c-5.31-11.78,0.93-32.11,17.57-57.23C83.62,50.08,117.06,40.09,124,38.35v-2.06C117.89,37.76,82.86,47.6,58.4,84.51z"/>
	<path class="st1" d="M81.48,125.26c14.37,29.93,37.25,33.68,42.52,34.15v-2c-5.13-0.48-26.91-4.23-40.72-33.01
		C69.21,95.07,114.79,66.95,124,61.66v-2.3c-2.99,1.66-15.84,9.09-26.99,19.65C80.04,95.08,74.67,111.07,81.48,125.26z"/>
	<path class="st1" d="M110.98,126.73c4.34,16.11,11.13,23.28,13.02,25.03v-2.88c-2.63-2.97-7.66-9.93-11.09-22.67
		c-3.87-14.39,6.91-22.65,11.09-25.25v-2.31C120.7,100.55,106.44,109.87,110.98,126.73z"/>
</g>
</svg>
