<?xml version="1.0" encoding="utf-8"?>
<!-- Generator: Adobe Illustrator 26.1.0, SVG Export Plug-In . SVG Version: 6.00 Build 0)  -->
<svg version="1.1" id="Capa_2" xmlns="http://www.w3.org/2000/svg" xmlns:xlink="http://www.w3.org/1999/xlink" x="0px" y="0px"
	 viewBox="0 0 375 218" style="enable-background:new 0 0 375 218;" xml:space="preserve">
<style type="text/css">
	.st0{fill:#919191;}
</style>
<g>
	<path class="st0" d="M125.67,7.04c0.54,0,1.07,0.01,1.61,0.02c49.47,1.1,76.79,10.98,114.61,24.65
		c12.43,4.49,26.51,9.59,42.75,14.83c33.65,10.86,57.4,8.98,71.4,5.5c9.14-2.28,15.36-5.45,18.96-7.7v-2.41
		c-8.13,5.34-36.8,19.8-89.75,2.71c-16.2-5.23-30.27-10.32-42.68-14.8c-38-13.74-65.45-23.67-115.25-24.77
		C92.77,4.32,58.17,28.01,35.21,48.05C19.63,61.65,7.16,75.43,0,83.86v3.12C16.65,67.15,71.57,7.04,125.67,7.04z"/>
	<path class="st0" d="M137.47,68.13c57.21-17.41,94.09-3.28,140.78,14.6c5.99,2.29,12.18,4.67,18.58,7.03
		c39.34,14.55,65.83,7.95,78.17,2.69v-2.17c-11.56,5.13-37.8,12.27-77.48-2.4c-6.38-2.36-12.57-4.73-18.56-7.02
		c-47.05-18.02-84.22-32.26-142.08-14.64c-33.77,10.28-73.46,48.89-100.81,79.47C21.7,161.76,9.15,177.35,0,189.17v3.31
		C27.24,157.12,88.95,82.9,137.47,68.13z"/>
	<path class="st0" d="M318.43,118.74C289,104.9,268.23,98.43,248.99,97.12c-20.64-1.4-41.08,3.09-66.3,14.56
		c-45.63,20.76-96.34,94.76-104.14,106.45h2.41c9.79-14.52,58.66-84.66,102.56-104.63c46.96-21.36,77.03-19.78,134.05,7.05
		c22.64,10.65,41.11,13.64,54.89,8.86c0.9-0.31,1.74-0.66,2.54-1.01v-2.19c-1.03,0.49-2.14,0.95-3.36,1.37
		C362.52,130.68,345.89,131.67,318.43,118.74z"/>
	<path class="st0" d="M185.11,184.19c-10.83,13.15-18.78,26.42-22.94,33.94h2.31c10.98-19.5,44.76-72.31,88.47-72.31
		c45.87,0,105.11,15.2,122.06,19.82v-2.07c-17.71-4.81-76.43-19.75-122.06-19.75C230.31,143.82,206.86,157.78,185.11,184.19z"/>
	<path class="st0" d="M276.42,172.06c-31.27,1.72-47.91,16.44-56.35,28.48c-4.54,6.47-7.25,12.79-8.83,17.59h2.14
		c1.58-4.61,4.18-10.53,8.39-16.51c8.19-11.65,24.35-25.88,54.77-27.56c45.5-2.5,83.42,8.28,98.47,13.38v-2.11
		C359.36,180.09,321.59,169.57,276.42,172.06z"/>
	<path class="st0" d="M271.01,218.13h2.05c4.01-9.82,14.48-26.42,39.1-24.78c26.99,1.8,52.57,7.53,62.83,10.05v-2.06
		c-10.63-2.59-35.97-8.21-62.7-9.99C286.2,189.62,275.12,207.97,271.01,218.13z"/>
</g>
</svg>
