<?xml version="1.0" encoding="utf-8"?>
<!-- Generator: Adobe Illustrator 26.1.0, SVG Export Plug-In . SVG Version: 6.00 Build 0)  -->
<svg version="1.1" id="Capa_2" xmlns="http://www.w3.org/2000/svg" xmlns:xlink="http://www.w3.org/1999/xlink" x="0px" y="0px"
	 viewBox="0 0 176 317" style="enable-background:new 0 0 176 317;" xml:space="preserve">
<style type="text/css">
	.st0{fill:#AC8B66;}
</style>
<g>
	<path class="st0" d="M162.73,52.7c3.56,6.31,10.62,8.85,13.27,9.6v-2.1c-2.72-0.87-8.6-3.27-11.54-8.5
		c-2.24-3.97-2.37-8.85-0.4-14.49c4.65-13.34,9.34-22.51,11.94-27.13V6.14c-1.6,2.58-7.76,13.01-13.83,30.41
		C160,42.77,160.19,48.2,162.73,52.7z"/>
	<path class="st0" d="M138.19,49.73c6.37,15.4,30.32,22.29,37.81,24.1v-2.07c-7.68-1.94-30.15-8.73-35.96-22.79
		C134.13,34.68,148.83,8.18,153.73,0h-2.34C145.82,9.39,132.09,34.98,138.19,49.73z"/>
	<path class="st0" d="M99.46,41.54c6.23,19.79,15.51,25.98,52.25,34.91c11.94,2.9,19.5,5.12,24.29,6.76v-2.11
		c-5.02-1.7-12.54-3.85-23.82-6.59c-36.25-8.8-44.79-14.45-50.81-33.56C96.94,26.88,105.5,8.17,109.86,0h-2.3
		C102.93,8.82,94.93,27.14,99.46,41.54z"/>
	<path class="st0" d="M54.57,24.88C51,39.38,49.46,65.53,79.21,77.81c9.56,3.95,21.51,5.38,33.07,6.77
		c24.7,2.96,50.25,6.03,56.2,33.23c5.71,26.07,0.13,39.45-5.77,53.62c-3.35,8.04-6.81,16.35-8.58,27.42
		c-4.01,25.02,14.31,39.7,21.87,44.6v-2.4c-7.72-5.29-23.55-19.11-19.9-41.89c1.74-10.83,5.15-19.04,8.46-26.97
		c6.02-14.47,11.71-28.13,5.87-54.81c-6.26-28.59-32.52-31.74-57.92-34.79c-11.95-1.43-23.24-2.79-32.55-6.63
		C51.6,64.25,53.09,39.23,56.51,25.36C59.16,14.56,62.92,3.5,64.13,0h-2.12C60.6,4.11,57.09,14.62,54.57,24.88z"/>
	<path class="st0" d="M13.8,62.11c9.02,14.6,33.66,21.81,59.74,29.44c29.96,8.77,60.94,17.84,71.03,38.7
		c9.73,20.1,4.49,31.1-2.14,45.02c-6.12,12.85-13.74,28.85-11.13,56.75c4.49,47.96,34.68,67.51,44.7,72.73v-2.25
		c-10.47-5.67-38.43-24.95-42.71-70.66c-2.56-27.36,4.61-42.42,10.94-55.7c6.86-14.41,12.29-25.79,2.14-46.76
		c-10.48-21.66-41.9-30.86-72.27-39.75c-25.7-7.53-49.98-14.63-58.6-28.58C-0.07,35.88,10.42,8.33,14.27,0h-2.19
		C7.84,9.54-1.78,36.93,13.8,62.11z"/>
</g>
</svg>
