<?xml version="1.0" encoding="utf-8"?>
<!-- Generator: Adobe Illustrator 26.1.0, SVG Export Plug-In . SVG Version: 6.00 Build 0)  -->
<svg version="1.1" id="Capa_2" xmlns="http://www.w3.org/2000/svg" xmlns:xlink="http://www.w3.org/1999/xlink" x="0px" y="0px"
	 viewBox="0 0 434 250" style="enable-background:new 0 0 434 250;" xml:space="preserve">
<style type="text/css">
	.st0{fill:#AC8B66;}
</style>
<g>
	<path class="st0" d="M319.04,52.44c14.54,11.07,26.46,13.4,40.26,16.11c8.64,1.69,17.58,3.45,28.22,7.56
		c17.03,6.58,10.36,23.84,3.3,42.12c-3.92,10.16-7.98,20.67-8.17,29.86c-0.57,27.73,17.69,36.97,25.49,40.91
		c6.8,3.44,17.9,4.03,24.72,4.03c0.4,0,0.78,0,1.15-0.01v-2.01c-6.48,0.05-18.2-0.38-24.96-3.8c-12.33-6.24-24.87-15.76-24.39-39.09
		c0.18-8.85,4.18-19.19,8.04-29.18c7.1-18.39,14.45-37.41-4.44-44.71c-10.8-4.17-19.83-5.94-28.56-7.65
		c-13.56-2.66-25.27-4.95-39.43-15.74C300.48,35.8,313.64,6.88,317.18,0h-2.24C310.71,8.57,298.84,37.07,319.04,52.44z"/>
	<path class="st0" d="M333.28,78.73c6.77,1.5,14.43,3.2,22.77,5.3c7.16,1.8,12.17,5.31,15.31,10.73c8.45,14.6,1.37,39.73-4.89,61.9
		c-2.78,9.86-5.41,19.18-6.23,26.34c-3.11,27.2,16.68,43.55,37.68,47.68c6.11,1.2,12.6,1.6,18.54,1.6c7.23,0,13.63-0.59,17.54-1.05
		v-2.01c-6.88,0.83-22.26,2.15-35.69-0.5c-15-2.95-39.47-15.85-36.08-45.49c0.8-7,3.41-16.24,6.17-26.02
		c6.36-22.55,13.57-48.12,4.69-63.45c-3.38-5.84-8.95-9.76-16.55-11.67c-8.37-2.1-16.05-3.81-22.83-5.31
		c-26.22-5.82-42.05-9.34-55.36-25.07C263.91,34.63,273.66,6.89,276.42,0h-2.17c-3.27,8.24-12.3,35.41,2.57,53
		C290.57,69.25,307.56,73.02,333.28,78.73z"/>
	<path class="st0" d="M340.41,205.29c0-6.74,3.42-16.56,7.37-27.93c7.5-21.57,16.84-48.4,4.91-65.06
		c-17.52-24.46-40.8-28.3-57.8-31.11l-1.09-0.18c-15.46-2.56-44.24-7.32-57.55-28.49C226.3,36.7,230.15,10.84,232.39,0h-2.07
		c-2.35,11.31-6.09,37.15,4.25,53.59c13.8,21.93,43.15,26.79,58.92,29.4l1.09,0.18c16.65,2.75,39.46,6.51,56.5,30.3
		c11.32,15.81,2.18,42.11-5.17,63.24c-4.02,11.54-7.48,21.51-7.48,28.59c0,15.79,12.23,35.95,18.09,44.71h2.43
		C353.59,242.11,340.41,221.06,340.41,205.29z"/>
	<path class="st0" d="M310.05,191.69c12.63-27.63,25.7-56.2-0.92-75.9c-27.57-20.41-50.28-23.73-72.24-26.94
		c-15.18-2.22-30.88-4.51-48.12-12.46C154.6,60.63,160.03,15.21,162.93,0h-2.05c-1.18,6.24-2.72,17.03-2.05,28.73
		c1.37,24.21,11.44,41.32,29.11,49.47c17.51,8.07,33.35,10.39,48.67,12.62c21.72,3.17,44.18,6.45,71.34,26.56
		c25.31,18.74,13.16,45.32,0.29,73.46c-9.28,20.29-18.83,41.21-13.22,59.15h2.09C291.32,232.65,300.83,211.85,310.05,191.69z"/>
	<path class="st0" d="M271.92,225.35c8.28-25.65,19.61-60.77-5.63-91.05c-22.34-26.81-52.7-31.19-84.83-35.82
		c-22.8-3.29-46.39-6.69-69.38-18.09c-15.69-7.78-25.96-18.78-30.5-32.69C75.38,28.7,81.47,8.9,85,0h-2.14
		c-3.65,9.48-9.4,29.25-3.17,48.31C84.4,62.76,95,74.16,111.2,82.19c23.28,11.54,47.02,14.96,69.98,18.27
		c31.75,4.58,61.73,8.9,83.58,35.12c24.53,29.44,13.39,63.95,5.26,89.16c-3.24,10.05-5.98,18.55-6.24,25.26h2.01
		C266.08,243.47,268.85,234.9,271.92,225.35z"/>
	<path class="st0" d="M251.19,214.28c1.36-28.79-9.29-50.83-30.79-63.73c-31.24-18.74-70.15-26.42-107.77-33.85
		c-25.01-4.94-48.64-9.6-68.77-17.25c-23.37-8.87-32.91-35.99-36.8-57.17C3.81,24.67,3.99,8.65,5.02,0H3.01
		c-2.78,23.24,1.6,86.69,40.13,101.32c20.29,7.7,44,12.38,69.1,17.34c37.46,7.4,76.19,15.04,107.13,33.61
		c21.11,12.67,31.15,33.48,29.83,61.87c-0.74,15.83-5,29.71-7.17,35.87h2.12C246.41,243.43,250.46,229.77,251.19,214.28z"/>
</g>
</svg>
