<?xml version="1.0" encoding="UTF-8" standalone="no"?>
<!-- Created with Inkscape (http://www.inkscape.org/) -->

<svg
   version="1.1"
   id="svg1"
   width="735"
   height="360"
   viewBox="0 0 734.99999 359.99999"
   xmlns="http://www.w3.org/2000/svg"
   xmlns:svg="http://www.w3.org/2000/svg">
  <defs
     id="defs1" />
  <g
     id="g1">
    <g
       id="g2"
       transform="translate(-140.70934,-435.17392)">
      <g
         id="g9"
         transform="matrix(0.63253808,0,0,0.63253808,52.091402,160.4161)">
        <path
           style="fill:#cacaca"
           d="m 798.37594,974.40001 c 1.2e-4,-16.896 0.0828,-23.71609 0.18362,-15.15575 0.10087,8.56033 0.10077,22.38433 -2.2e-4,30.72 -0.101,8.33566 -0.18353,1.33175 -0.1834,-15.56425 z M 235.04,988.99884 c 0.616,-0.16098 1.624,-0.16098 2.24,0 0.616,0.16098 0.112,0.29269 -1.12,0.29269 -1.232,0 -1.736,-0.13171 -1.12,-0.29269 z m 183.36747,-0.0115 c 0.7961,-0.15308 1.9481,-0.14727 2.56,0.0129 0.61189,0.16019 -0.0395,0.28544 -1.44747,0.27833 -1.408,-0.007 -1.90864,-0.13816 -1.11253,-0.29125 z m 187.19254,0.0115 c 0.616,-0.16098 1.624,-0.16098 2.24,0 0.616,0.16098 0.112,0.29269 -1.12,0.29269 -1.232,0 -1.736,-0.13171 -1.12,-0.29269 z m 68.16746,-0.0115 c 0.7961,-0.15308 1.9481,-0.14727 2.56,0.0129 0.61189,0.16019 -0.0395,0.28544 -1.44746,0.27833 -1.408,-0.007 -1.90865,-0.13816 -1.11254,-0.29125 z m 147.2,0 c 0.7961,-0.15308 1.9481,-0.14727 2.56,0.0129 0.6119,0.16019 -0.0395,0.28544 -1.44746,0.27833 -1.408,-0.007 -1.90864,-0.13816 -1.11254,-0.29125 z m 208.31253,0.0115 c 0.616,-0.16098 1.624,-0.16098 2.24,0 0.616,0.16098 0.112,0.29269 -1.12,0.29269 -1.232,0 -1.736,-0.13171 -1.12,-0.29269 z m 64.3275,-0.0115 c 0.7961,-0.15308 1.9481,-0.14727 2.56,0.0129 0.6119,0.16019 -0.04,0.28544 -1.4475,0.27833 -1.408,-0.007 -1.9086,-0.13816 -1.1125,-0.29125 z m 181.4325,0.0115 c 0.616,-0.16098 1.624,-0.16098 2.24,0 0.616,0.16098 0.112,0.29269 -1.12,0.29269 -1.232,0 -1.736,-0.13171 -1.12,-0.29269 z M 250.13031,986.24001 c -0.13427,-1.408 -0.0205,-2.56 0.25278,-2.56 0.2733,0 0.49691,1.152 0.49691,2.56 0,1.408 -0.11375,2.56 -0.25277,2.56 -0.13903,0 -0.36264,-1.152 -0.49692,-2.56 z m 57.86334,-28.29076 -0.15365,-31.17076 -4.32,-0.22389 -4.32,-0.22389 4.34009,-0.12535 c 2.97982,-0.0861 4.43617,0.12539 4.64666,0.67465 0.16862,0.44 0.22872,14.624 0.13356,31.52 l -0.17302,30.72 z m 49.92,0 -0.15365,-31.17076 -4.32,-0.22389 -4.32,-0.22389 4.34009,-0.12535 c 2.97982,-0.0861 4.43617,0.12539 4.64666,0.67465 0.16862,0.44 0.22872,14.624 0.13356,31.52 l -0.17302,30.72 z m 330.90067,28.29076 c 0,-1.584 0.12481,-2.232 0.27736,-1.44 0.15254,0.792 0.15254,2.088 0,2.88 -0.15255,0.792 -0.27736,0.144 -0.27736,-1.44 z m 57.69358,-9.6 c 0,-6.864 0.0942,-9.672 0.20923,-6.24 0.11508,3.432 0.11508,9.048 0,12.48 -0.11508,3.432 -0.20923,0.624 -0.20923,-6.24 z m 474.9006,-10.24 c 0,-12.496 0.086,-17.608 0.1905,-11.36 0.1048,6.248 0.1048,16.472 0,22.72 -0.1047,6.248 -0.1905,1.136 -0.1905,-11.36 z m 76.7875,7.36 c 4e-4,-8.448 0.091,-11.81548 0.2024,-7.4833 0.1109,4.33219 0.1105,11.24419 -8e-4,15.36 -0.1113,4.11582 -0.202,0.5713 -0.2016,-7.8767 z m -258.4748,12.2924 c 0.2403,-0.63118 0.5982,-0.98638 0.7952,-0.78934 0.1971,0.19705 4e-4,0.71347 -0.437,1.14761 -0.632,0.62737 -0.7056,0.55386 -0.3582,-0.35827 z m 222.9172,-1.5724 c -0.7961,-1.01508 -0.7735,-1.03771 0.2416,-0.24164 1.0661,0.83608 1.4051,1.36164 0.8784,1.36164 -0.1329,0 -0.6369,-0.504 -1.12,-1.12 z m -185.8992,-2.24 -1.2192,-1.44 1.44,1.21919 c 1.3533,1.14574 1.7314,1.66081 1.2192,1.66081 -0.1214,0 -0.7694,-0.648 -1.44,-1.44 z m -50.2608,-2.24 c -0.7961,-1.01508 -0.7735,-1.03771 0.2416,-0.24164 0.616,0.48311 1.12,0.98711 1.12,1.12 0,0.52675 -0.5255,0.18772 -1.3616,-0.87836 z M 246.4,979.59837 c 0,-0.13289 0.504,-0.63689 1.12,-1.12 1.01508,-0.79607 1.03772,-0.77344 0.24164,0.24164 -0.83608,1.06608 -1.36164,1.40511 -1.36164,0.87836 z m 439.36001,-1.03836 c 0.63711,-0.704 1.30238,-1.28 1.47838,-1.28 0.176,0 -0.20127,0.576 -0.83838,1.28 -0.63711,0.704 -1.30239,1.28 -1.47839,1.28 -0.176,0 0.20128,-0.576 0.83839,-1.28 z m -90.00164,-1.12 c -0.79608,-1.01508 -0.77344,-1.03771 0.24164,-0.24164 0.616,0.48311 1.12,0.98711 1.12,1.12 0,0.52675 -0.52556,0.18772 -1.36164,-0.87836 z m 19.92164,0.87836 c 0,-0.13289 0.504,-0.63689 1.12,-1.12 1.01507,-0.79607 1.03771,-0.77344 0.24163,0.24164 -0.83607,1.06608 -1.36163,1.40511 -1.36163,0.87836 z m 194.81919,-1.19836 -1.21919,-1.44 1.44,1.21919 c 1.35324,1.14574 1.73135,1.66081 1.21919,1.66081 -0.12144,0 -0.76944,-0.648 -1.44,-1.44 z m 272.64,0 -1.2192,-1.44 1.44,1.21919 c 1.3533,1.14574 1.7314,1.66081 1.2192,1.66081 -0.1214,0 -0.7694,-0.648 -1.44,-1.44 z m -863.56867,-0.21333 c 0.0307,-0.74557 0.18236,-0.89722 0.38667,-0.38667 0.18487,0.462 0.16214,1.014 -0.0505,1.22667 -0.21267,0.21266 -0.36393,-0.16534 -0.33614,-0.84 z M 430.72,977.67837 c 0,-0.13289 0.504,-0.63689 1.12,-1.12 1.01508,-0.79607 1.03772,-0.77344 0.24164,0.24164 -0.83608,1.06608 -1.36164,1.40511 -1.36164,0.87836 z m 227.3614,-1.99836 c 0.007,-1.408 0.13817,-1.90864 0.29125,-1.11254 0.15309,0.79611 0.14728,1.94811 -0.0129,2.56 -0.16019,0.6119 -0.28544,-0.0395 -0.27834,-1.44746 z m -430.19087,-0.0533 c 0.0307,-0.74557 0.18236,-0.89722 0.38667,-0.38667 0.18487,0.462 0.16214,1.014 -0.0505,1.22667 -0.21267,0.21266 -0.36393,-0.16534 -0.33614,-0.84 z m 438.4,0 c 0.0307,-0.74557 0.18236,-0.89722 0.38667,-0.38667 0.18488,0.462 0.16214,1.014 -0.0505,1.22667 -0.21266,0.21266 -0.36393,-0.16534 -0.33614,-0.84 z M 1024.91,963.84001 c 0,-7.216 0.093,-10.168 0.2074,-6.56 0.1141,3.608 0.1141,9.512 0,13.12 -0.1141,3.608 -0.2074,0.656 -0.2074,-6.56 z m -805.33947,10.50667 c 0.0307,-0.74557 0.18236,-0.89722 0.38667,-0.38667 0.18487,0.462 0.16214,1.014 -0.0505,1.22667 -0.21267,0.21266 -0.36393,-0.16534 -0.33614,-0.84 z m 1070.21257,-2.50667 c 0,-1.76 0.1291,-2.40404 0.2762,-1.4312 0.1471,0.97284 0.1431,2.41284 -0.01,3.2 -0.1519,0.78716 -0.2722,-0.009 -0.2674,-1.7688 z m -885.3894,-2.4105 c 0.27022,-0.26977 8.39218,-0.41345 18.0488,-0.31928 l 17.5575,0.17121 -18.0488,0.31929 c -9.92684,0.1756 -17.82771,0.0986 -17.5575,-0.17122 z m 666.3768,-0.20283 c 0.031,-0.74557 0.1824,-0.89722 0.3867,-0.38667 0.1849,0.462 0.1621,1.014 -0.051,1.22667 -0.2127,0.21266 -0.364,-0.16534 -0.3362,-0.84 z m -487.67997,-0.64 c 0.0307,-0.74557 0.18236,-0.89722 0.38667,-0.38667 0.18488,0.462 0.16214,1.014 -0.0505,1.22667 -0.21266,0.21266 -0.36393,-0.16534 -0.33614,-0.84 z m 514.15457,0.53873 17.5656,-0.18553 0.2536,-2.87406 0.2537,-2.87406 -0.059,3.04412 -0.059,3.04413 -17.7602,0.0155 -17.7603,0.0155 z m -252.91078,-2.7254 c 0,-1.584 0.12481,-2.232 0.27736,-1.44 0.15254,0.792 0.15254,2.088 0,2.88 -0.15255,0.792 -0.27736,0.144 -0.27736,-1.44 z m -404.55326,0 c 0,-0.88 0.14526,-1.24 0.3228,-0.8 0.17755,0.44 0.17755,1.16 0,1.6 -0.17754,0.44 -0.3228,0.08 -0.3228,-0.8 z m 366.72,0 c 0,-0.88 0.14526,-1.24 0.32281,-0.8 0.17754,0.44 0.17754,1.16 0,1.6 -0.17755,0.44 -0.32281,0.08 -0.32281,-0.8 z m -223.41053,-2.29333 c 0.0307,-0.74557 0.18236,-0.89722 0.38667,-0.38667 0.18488,0.462 0.16214,1.014 -0.0505,1.22667 -0.21266,0.21266 -0.36393,-0.16534 -0.33614,-0.84 z m 487.67997,-0.64 c 0.031,-0.74557 0.1824,-0.89722 0.3867,-0.38667 0.1849,0.462 0.1621,1.014 -0.051,1.22667 -0.2127,0.21266 -0.364,-0.16534 -0.3362,-0.84 z M 234.12,962.76282 c 0.462,-0.18488 1.014,-0.16214 1.22667,0.0505 0.21267,0.21267 -0.16533,0.36393 -0.84,0.33614 -0.74556,-0.0307 -0.89722,-0.18236 -0.38667,-0.38666 z m 438.40001,0 c 0.462,-0.18488 1.014,-0.16214 1.22666,0.0505 0.21267,0.21267 -0.16533,0.36393 -0.84,0.33614 -0.74556,-0.0307 -0.89721,-0.18236 -0.38666,-0.38666 z m 601.59999,0 c 0.462,-0.18488 1.014,-0.16214 1.2267,0.0505 0.2126,0.21267 -0.1654,0.36393 -0.84,0.33614 -0.7456,-0.0307 -0.8972,-0.18236 -0.3867,-0.38666 z m 15.5305,-1.21614 c 0.031,-0.74557 0.1824,-0.89722 0.3867,-0.38667 0.1849,0.462 0.1621,1.014 -0.051,1.22667 -0.2127,0.21266 -0.364,-0.16534 -0.3362,-0.84 z m -694.45049,-5.62831 c 0,-0.1329 0.504,-0.6369 1.12,-1.12 1.01507,-0.79607 1.03771,-0.77344 0.24163,0.24164 -0.83608,1.06608 -1.36163,1.40511 -1.36163,0.87836 z m 236.07836,-0.87836 c -0.79607,-1.01508 -0.77344,-1.03771 0.24164,-0.24164 0.616,0.4831 1.12,0.9871 1.12,1.12 0,0.52675 -0.52556,0.18772 -1.36164,-0.87836 z m 332.88163,0.87836 c 0,-0.1329 0.504,-0.6369 1.12,-1.12 1.0151,-0.79607 1.0377,-0.77344 0.2416,0.24164 -0.836,1.06608 -1.3616,1.40511 -1.3616,0.87836 z m -917.20163,-2.15836 c -0.79608,-1.01508 -0.77344,-1.03771 0.24163,-0.24164 0.616,0.4831 1.12,0.9871 1.12,1.12 0,0.52675 -0.52556,0.18772 -1.36163,-0.87836 z m 438.4,0 c -0.79608,-1.01508 -0.77344,-1.03771 0.24164,-0.24164 0.616,0.4831 1.12,0.9871 1.12,1.12 0,0.52675 -0.52556,0.18772 -1.36164,-0.87836 z m -184.11998,-5.71749 c -0.11339,-3.79053 -0.19264,-3.96874 -1.87838,-4.22411 l -1.76,-0.26662 1.78008,-0.0959 c 2.17814,-0.11733 2.52069,0.67156 2.21465,5.1004 L 501.35678,952 Z m 87.88162,2.35749 c 0.63711,-0.704 1.30238,-1.28 1.47838,-1.28 0.176,0 -0.20127,0.576 -0.83838,1.28 -0.63712,0.704 -1.30239,1.28 -1.47839,1.28 -0.176,0 0.20127,-0.576 0.83839,-1.28 z m 363.08,0.84281 c 0.462,-0.18488 1.014,-0.16214 1.22667,0.0505 0.21266,0.21267 -0.16534,0.36393 -0.84,0.33614 -0.74557,-0.0307 -0.89722,-0.18236 -0.38667,-0.38666 z m 56.63829,-3.72281 c 0,-2.112 0.1231,-2.89884 0.2655,-1.74854 0.1425,1.15031 0.1395,2.87831 -0.01,3.84 -0.146,0.9617 -0.2626,0.0205 -0.259,-2.09146 z m -523.52651,-0.32 c 0,-1.936 0.11998,-2.728 0.26662,-1.76 0.14664,0.968 0.14664,2.552 0,3.52 -0.14664,0.968 -0.26662,0.176 -0.26662,-1.76 z M 237.6,943.54161 c 0.968,-0.14664 2.552,-0.14664 3.52,0 0.968,0.14664 0.176,0.26661 -1.76,0.26661 -1.936,0 -2.728,-0.11997 -1.76,-0.26661 z m 178.88,0.007 c 0.792,-0.15255 2.088,-0.15255 2.88,0 0.792,0.15255 0.144,0.27736 -1.44,0.27736 -1.584,0 -2.232,-0.12481 -1.44,-0.27736 z m 189.12881,-0.008 c 0.97284,-0.14711 2.41284,-0.14318 3.2,0.009 0.78716,0.15192 -0.009,0.27228 -1.7688,0.26747 -1.76,-0.005 -2.40404,-0.1291 -1.4312,-0.2762 z m 70.3912,8.5e-4 c 0.968,-0.14664 2.552,-0.14664 3.52,0 0.968,0.14664 0.176,0.26661 -1.76,0.26661 -1.936,0 -2.728,-0.11997 -1.76,-0.26661 z m 83.85218,0.0149 c 0.6227,-0.16227 1.4867,-0.1516 1.92,0.0237 0.4333,0.17531 -0.0762,0.30808 -1.13218,0.29503 -1.056,-0.013 -1.41052,-0.15648 -0.78782,-0.31874 z m 60.79662,-0.0157 c 0.97284,-0.14711 2.41284,-0.14318 3.2,0.009 0.78716,0.15192 -0.009,0.27228 -1.7688,0.26747 -1.76,-0.005 -2.40404,-0.1291 -1.4312,-0.2762 z m 133.76,0 c 0.97284,-0.14711 2.41284,-0.14318 3.2,0.009 0.78716,0.15192 -0.009,0.27228 -1.7688,0.26747 -1.76,-0.005 -2.40404,-0.1291 -1.4312,-0.2762 z m 70.45059,-4.34075 c 0,-2.816 0.1149,-3.88839 0.25,-2.38308 0.1352,1.5053 0.1333,3.8093 0,5.12 -0.1375,1.31069 -0.2481,0.0791 -0.2458,-2.73692 z m 67.1494,4.34075 c 0.9729,-0.14711 2.4129,-0.14318 3.2,0.009 0.7872,0.15192 -0.01,0.27228 -1.7688,0.26747 -1.76,-0.005 -2.404,-0.1291 -1.4312,-0.2762 z m 82.5634,0.0157 c 0.6227,-0.16227 1.4867,-0.1516 1.92,0.0237 0.4333,0.17531 -0.076,0.30808 -1.1322,0.29503 -1.056,-0.013 -1.4105,-0.15648 -0.7878,-0.31874 z m 103.0278,-0.0149 c 0.968,-0.14664 2.552,-0.14664 3.52,0 0.968,0.14664 0.176,0.26661 -1.76,0.26661 -1.936,0 -2.728,-0.11997 -1.76,-0.26661 z m -65.44,-7.5416 c 0.8267,-0.88 1.6471,-1.6 1.8231,-1.6 0.176,0 -0.3564,0.72 -1.1831,1.6 -0.8267,0.88 -1.6471,1.6 -1.8231,1.6 -0.176,0 0.3564,-0.72 1.1831,-1.6 z M 885.29219,935.8765 c 0.6227,-0.16227 1.4867,-0.1516 1.92,0.0237 0.4333,0.17531 -0.0762,0.30808 -1.13218,0.29503 -1.056,-0.013 -1.41052,-0.15648 -0.78782,-0.31874 z m 0.34782,-10.87368 c 0.462,-0.18488 1.014,-0.16214 1.22667,0.0505 0.21266,0.21267 -0.16534,0.36393 -0.84,0.33614 -0.74557,-0.0307 -0.89722,-0.18236 -0.38667,-0.38666 z M 479.65487,865.12001 c -0.16774,-0.44 -0.22921,-28.016 -0.13661,-61.28 l 0.16835,-60.48 0.1567,60.94901 0.15669,60.94901 16.16001,0.18248 16.16,0.18249 -16.18009,0.1485 c -12.46582,0.11442 -16.2501,-0.0351 -16.48505,-0.65149 z m 117.62514,0.32179 c 4.488,-0.11002 11.832,-0.11002 16.32,0 4.488,0.11001 0.816,0.20002 -8.16,0.20002 -8.976,0 -12.648,-0.09 -8.16,-0.20002 z m 42.59872,-5.7e-4 c 5.03729,-0.10826 13.10129,-0.108 17.92,5.9e-4 4.8187,0.10858 0.69728,0.19716 -9.15872,0.19684 -9.856,-3.2e-4 -13.79858,-0.0892 -8.76128,-0.19743 z m 96.53914,-10e-4 c -0.16372,-0.264 5.07528,-0.40623 11.64223,-0.31607 22.52213,0.30922 24.721,0.52626 6.69768,0.66109 -9.92323,0.0742 -18.17619,-0.081 -18.33991,-0.34502 z m 60.81772,6.4e-4 c 8.51158,-0.10076 22.62358,-0.10085 31.36,-2.1e-4 8.73643,0.10064 1.77242,0.18308 -15.47558,0.1832 -17.248,1.2e-4 -24.39599,-0.0822 -15.88442,-0.18299 z m 176.9917,10e-4 49.10731,-0.17001 0.1923,-13.43644 0.1922,-13.43644 -0.019,13.60041 -0.02,13.60041 -49.27999,0.006 -49.28,0.006 z m 76.81271,-5.1e-4 c 4.84,-0.10873 12.76,-0.10873 17.6,0 4.84,0.10872 0.88,0.19768 -8.8,0.19768 -9.68,0 -13.64,-0.089 -8.8,-0.19768 z m 75.52,-1.9e-4 c 5.192,-0.10757 13.688,-0.10757 18.88,0 5.192,0.10757 0.944,0.19559 -9.44,0.19559 -10.384,0 -14.632,-0.088 -9.44,-0.19559 z m 38.7587,-1.5e-4 c 5.0373,-0.10826 13.1013,-0.108 17.92,5.9e-4 4.8187,0.10858 0.6973,0.19716 -9.1587,0.19684 -9.856,-3.2e-4 -13.7986,-0.0892 -8.7613,-0.19743 z m 96.5402,-10e-4 c -0.1632,-0.264 8.0003,-0.48 18.1411,-0.48 10.1408,0 18.3043,0.216 18.1411,0.48 -0.1631,0.264 -8.3266,0.48 -18.1411,0.48 -9.8144,0 -17.9779,-0.216 -18.1411,-0.48 z m -34.9789,-23.2 -25.92,-0.34184 25.7222,-0.14908 c 16.6205,-0.0963 25.8622,0.0774 26.1178,0.49092 0.2176,0.352 0.3066,0.57291 0.1978,0.49092 -0.1088,-0.082 -11.8618,-0.30291 -26.1178,-0.49092 z m -538.39999,-0.47924 c 7.128,-0.10299 18.792,-0.10299 25.92,0 7.128,0.103 1.296,0.18727 -12.96,0.18727 -14.256,0 -20.088,-0.0843 -12.96,-0.18727 z m 128.45781,-37.28076 c 0,-18.48 0.0818,-26.04 0.18172,-16.8 0.0999,9.24 0.0999,24.36 0,33.6 -0.1,9.24 -0.18172,1.68 -0.18172,-16.8 z m 25.82219,32.84281 c 0.462,-0.18488 1.014,-0.16214 1.22667,0.0505 0.21266,0.21267 -0.16534,0.36393 -0.84,0.33614 -0.74557,-0.0307 -0.89722,-0.18236 -0.38667,-0.38666 z m 20.6,-8.84281 c 0.82672,-0.88 1.64712,-1.6 1.82312,-1.6 0.176,0 -0.3564,0.72 -1.18312,1.6 -0.82672,0.88 -1.64712,1.6 -1.82312,1.6 -0.176,0 0.3564,-0.72 1.18312,-1.6 z m 277.11999,-9.6 c 0.8267,-0.88 1.6471,-1.6 1.8231,-1.6 0.176,0 -0.3564,0.72 -1.1831,1.6 -0.8267,0.88 -1.6471,1.6 -1.8231,1.6 -0.176,0 0.3564,-0.72 1.1831,-1.6 z M 588.67658,810.4973 c -0.10811,-4.43449 0.0194,-8.19548 0.28343,-8.35777 0.264,-0.16228 0.48,3.46593 0.48,8.06271 0,4.59677 -0.12754,8.35777 -0.28343,8.35777 -0.15588,0 -0.37188,-3.62822 -0.48,-8.06271 z m 318.94448,-1.53729 c 0,-0.88 0.14527,-1.24 0.32281,-0.8 0.17754,0.44 0.17754,1.16 0,1.6 -0.17754,0.44 -0.32281,0.08 -0.32281,-0.8 z M 368.79532,765.92178 368.64,723.20354 255.2,723.04 141.76,722.87645 255.22009,722.71823 c 90.29525,-0.12592 113.5225,0.005 113.76578,0.64178 0.16813,0.44 0.22899,19.808 0.13523,43.04 l -0.17046,42.24 z m 503.62574,41.11823 c 0,-0.88 0.14526,-1.24 0.32281,-0.8 0.17754,0.44 0.17754,1.16 0,1.6 -0.17755,0.44 -0.32281,0.08 -0.32281,-0.8 z M 1098.76,805.96282 c 0.462,-0.18488 1.014,-0.16215 1.2267,0.0505 0.2126,0.21267 -0.1654,0.36393 -0.84,0.33614 -0.7456,-0.0307 -0.8972,-0.18236 -0.3867,-0.38666 z m -226.33894,-4.04281 c 0,-0.88 0.14526,-1.24 0.32281,-0.8 0.17754,0.44 0.17754,1.16 0,1.6 -0.17755,0.44 -0.32281,0.08 -0.32281,-0.8 z m 35.22372,-1.6 c 0.013,-1.056 0.15648,-1.41052 0.31874,-0.78782 0.16227,0.6227 0.1516,1.4867 -0.0237,1.92 -0.17531,0.4333 -0.30808,-0.0762 -0.29503,-1.13218 z m 204.03522,1.35836 c 0,-0.1329 0.504,-0.6369 1.12,-1.12 1.0151,-0.79607 1.0377,-0.77344 0.2416,0.24164 -0.836,1.06608 -1.3616,1.4051 -1.3616,0.87836 z m 40.3705,-8.4517 c 0.031,-0.74556 0.1824,-0.89721 0.3867,-0.38666 0.1849,0.462 0.1621,1.014 -0.051,1.22666 -0.2127,0.21267 -0.364,-0.16533 -0.3362,-0.84 z m -935.5272,-2.66611 c 7.67981,-0.10217 20.06381,-0.10204 27.52,2.7e-4 7.45619,0.10232 1.1727,0.18591 -13.9633,0.18575 -15.136,-1.5e-4 -21.23651,-0.0839 -13.5567,-0.18602 z m 900.3272,-4.37389 c 0.031,-0.74556 0.1824,-0.89721 0.3867,-0.38666 0.1849,0.462 0.1621,1.014 -0.051,1.22666 -0.2127,0.21267 -0.364,-0.16533 -0.3362,-0.84 z m 35.2,-1.92 c 0.031,-0.74556 0.1824,-0.89721 0.3867,-0.38666 0.1849,0.462 0.1621,1.014 -0.051,1.22666 -0.2127,0.21267 -0.364,-0.16533 -0.3362,-0.84 z M 839.20001,771.39884 c 0.616,-0.16098 1.624,-0.16098 2.24,0 0.616,0.16098 0.112,0.29269 -1.12,0.29269 -1.232,0 -1.736,-0.13171 -1.12,-0.29269 z M 264.46567,756.96408 264.32,743.68816 l -47.84,-0.16821 -47.84,-0.16822 47.86009,-0.15586 c 38.37411,-0.12497 47.9223,0.006 48.174,0.66219 0.17266,0.44993 0.22917,6.56993 0.12559,13.6 l -0.18834,12.78195 z m 626.69408,5.11593 -1.87974,-2.08 2.08,1.87974 c 1.144,1.03385 2.08,1.96985 2.08,2.08 0,0.49443 -0.52808,0.0591 -2.28026,-1.87974 z m -590.35975,-18.4 -14.4,-0.35703 14.20223,-0.14149 c 8.9337,-0.089 14.34896,0.0959 14.59777,0.49852 0.21755,0.352 0.30655,0.57633 0.19777,0.49851 C 315.289,744.10071 308.72,743.87637 300.8,743.68001 Z m 108.32,-20.95758 c 3.784,-0.11315 9.976,-0.11315 13.76,0 3.784,0.11315 0.688,0.20573 -6.88,0.20573 -7.568,0 -10.664,-0.0926 -6.88,-0.20573 z M 278.06489,645.12001 c 0,-27.984 0.0787,-39.432 0.1749,-25.44 0.0962,13.992 0.0962,36.888 0,50.88 -0.0962,13.992 -0.1749,2.544 -0.1749,-25.44 z M 318.88,695.2002 c 14.696,-0.0958 38.744,-0.0958 53.44,0 14.696,0.0958 2.672,0.17424 -26.72,0.17424 -29.392,0 -41.416,-0.0784 -26.72,-0.17424 z m 101.76,0.009 c 1.672,-0.13184 4.408,-0.13184 6.08,0 1.672,0.13184 0.304,0.23971 -3.04,0.23971 -3.344,0 -4.712,-0.10787 -3.04,-0.23971 z M 311.56,655.56281 c 0.462,-0.18487 1.014,-0.16214 1.22667,0.0505 0.21267,0.21267 -0.16533,0.36393 -0.84,0.33614 -0.74556,-0.0307 -0.89722,-0.18236 -0.38667,-0.38667 z m -4.48,-0.64 c 0.462,-0.18487 1.014,-0.16214 1.22667,0.0505 0.21267,0.21267 -0.16533,0.36393 -0.84,0.33614 -0.74556,-0.0307 -0.89722,-0.18236 -0.38667,-0.38667 z m -7.4,-0.64397 c 0.616,-0.16098 1.624,-0.16098 2.24,0 0.616,0.16098 0.112,0.29268 -1.12,0.29268 -1.232,0 -1.736,-0.1317 -1.12,-0.29268 z m 8,-10.86269 c 0.44,-0.17755 1.16,-0.17755 1.6,0 0.44,0.17754 0.08,0.3228 -0.8,0.3228 -0.88,0 -1.24,-0.14526 -0.8,-0.3228 z m -6.06782,-0.65966 c 0.6227,-0.16227 1.4867,-0.15159 1.92,0.0237 0.4333,0.17531 -0.0762,0.30807 -1.13218,0.29503 -1.056,-0.013 -1.41052,-0.15648 -0.78782,-0.31875 z M 292.96,642.13615 c 0.44,-0.17755 1.16,-0.17755 1.6,0 0.44,0.17754 0.08,0.3228 -0.8,0.3228 -0.88,0 -1.24,-0.14526 -0.8,-0.3228 z m 30.12,-33.93334 c 0.462,-0.18487 1.014,-0.16214 1.22667,0.0505 0.21267,0.21267 -0.16533,0.36393 -0.84,0.33614 -0.74556,-0.0307 -0.89722,-0.18236 -0.38667,-0.38667 z m -4.48,-0.64 c 0.462,-0.18487 1.014,-0.16214 1.22667,0.0505 0.21267,0.21267 -0.16533,0.36393 -0.84,0.33614 -0.74556,-0.0307 -0.89722,-0.18236 -0.38667,-0.38667 z m -5.8,-0.62666 c 0.44,-0.17755 1.16,-0.17755 1.6,0 0.44,0.17754 0.08,0.3228 -0.8,0.3228 -0.88,0 -1.24,-0.14526 -0.8,-0.3228 z m -8.31254,-0.66879 c 0.79611,-0.15308 1.94811,-0.14727 2.56,0.0129 0.6119,0.16019 -0.0395,0.28544 -1.44746,0.27834 -1.408,-0.007 -1.90864,-0.13817 -1.11254,-0.29125 z M 319.88,596.04281 c 0.462,-0.18487 1.014,-0.16214 1.22667,0.0505 0.21267,0.21267 -0.16533,0.36393 -0.84,0.33614 -0.74556,-0.0307 -0.89722,-0.18236 -0.38667,-0.38667 z m -5.8,-0.62666 c 0.44,-0.17755 1.16,-0.17755 1.6,0 0.44,0.17754 0.08,0.3228 -0.8,0.3228 -0.88,0 -1.24,-0.14526 -0.8,-0.3228 z m -7.67254,-0.66879 c 0.79611,-0.15308 1.94811,-0.14727 2.56001,0.0129 0.61189,0.16019 -0.0395,0.28544 -1.44747,0.27834 -1.408,-0.007 -1.90864,-0.13817 -1.11254,-0.29125 z m -13.11528,-0.63087 c 0.6227,-0.16227 1.4867,-0.15159 1.92,0.0237 0.4333,0.17531 -0.0762,0.30807 -1.13218,0.29503 -1.056,-0.013 -1.41052,-0.15648 -0.78782,-0.31875 z M 257.16,559.56281 c 0.462,-0.18487 1.014,-0.16214 1.22667,0.0505 0.21267,0.21267 -0.16533,0.36393 -0.84,0.33614 -0.74556,-0.0307 -0.89722,-0.18236 -0.38667,-0.38667 z m 54.4,0 c 0.462,-0.18487 1.014,-0.16214 1.22667,0.0505 0.21267,0.21267 -0.16533,0.36393 -0.84,0.33614 -0.74556,-0.0307 -0.89722,-0.18236 -0.38667,-0.38667 z m -49.28,-0.64 c 0.462,-0.18487 1.014,-0.16214 1.22667,0.0505 0.21267,0.21267 -0.16533,0.36393 -0.84,0.33614 -0.74556,-0.0307 -0.89722,-0.18236 -0.38667,-0.38667 z m 44.12,0.0133 c 0.44,-0.17755 1.16,-0.17755 1.6,0 0.44,0.17754 0.08,0.3228 -0.8,0.3228 -0.88,0 -1.24,-0.14526 -0.8,-0.3228 z m -38.06782,-0.65966 c 0.6227,-0.16227 1.4867,-0.15159 1.92,0.0237 0.4333,0.17531 -0.0762,0.30807 -1.13218,0.29503 -1.056,-0.013 -1.41052,-0.15648 -0.78782,-0.31875 z m 32,0 c 0.6227,-0.16227 1.4867,-0.15159 1.92,0.0237 0.4333,0.17531 -0.0762,0.30807 -1.13218,0.29503 -1.056,-0.013 -1.41052,-0.15648 -0.78782,-0.31875 z m -19.88018,-0.6704 c 2.3606,-0.12279 6.3926,-0.1236 8.96,-0.002 2.5674,0.12179 0.636,0.22225 -4.292,0.22325 -4.928,10e-4 -7.0286,-0.0987 -4.668,-0.22144 z m 36.868,-8.28324 c 0.462,-0.18487 1.014,-0.16214 1.22667,0.0505 0.21267,0.21267 -0.16533,0.36393 -0.84,0.33614 -0.74556,-0.0307 -0.89722,-0.18236 -0.38667,-0.38667 z m -65.92,-0.64 c 0.462,-0.18487 1.014,-0.16214 1.22667,0.0505 0.21267,0.21267 -0.16533,0.36393 -0.84,0.33614 -0.74556,-0.0307 -0.89722,-0.18236 -0.38667,-0.38667 z m 62.08,0 c 0.462,-0.18487 1.014,-0.16214 1.22667,0.0505 0.21267,0.21267 -0.16533,0.36393 -0.84,0.33614 -0.74556,-0.0307 -0.89722,-0.18236 -0.38667,-0.38667 z m 19.87837,-0.6828 c -0.79608,-1.01508 -0.77344,-1.03772 0.24163,-0.24164 0.616,0.4831 1.12,0.9871 1.12,1.12 0,0.52674 -0.52556,0.18771 -1.36163,-0.87836 z m -23.71837,0.0428 c 0.462,-0.18487 1.014,-0.16214 1.22667,0.0505 0.21267,0.21267 -0.16533,0.36393 -0.84,0.33614 -0.74556,-0.0307 -0.89722,-0.18236 -0.38667,-0.38667 z m -49.28,-0.64 c 0.462,-0.18487 1.014,-0.16214 1.22667,0.0505 0.21267,0.21267 -0.16533,0.36393 -0.84,0.33614 -0.74556,-0.0307 -0.89722,-0.18236 -0.38667,-0.38667 z m 44.12,0.0133 c 0.44,-0.17755 1.16,-0.17755 1.6,0 0.44,0.17754 0.08,0.3228 -0.8,0.3228 -0.88,0 -1.24,-0.14526 -0.8,-0.3228 z m -38.06782,-0.65966 c 0.6227,-0.16227 1.4867,-0.15159 1.92,0.0237 0.4333,0.17531 -0.0762,0.30807 -1.13218,0.29503 -1.056,-0.013 -1.41052,-0.15648 -0.78782,-0.31875 z m 32,0 c 0.6227,-0.16227 1.4867,-0.15159 1.92,0.0237 0.4333,0.17531 -0.0762,0.30807 -1.13218,0.29503 -1.056,-0.013 -1.41052,-0.15648 -0.78782,-0.31875 z m -19.88018,-0.6704 c 2.3606,-0.12279 6.3926,-0.1236 8.96,-0.002 2.5674,0.12179 0.636,0.22225 -4.292,0.22325 -4.928,10e-4 -7.0286,-0.0987 -4.668,-0.22144 z m 47.78637,-4.48604 c -0.79608,-1.01508 -0.77344,-1.03772 0.24163,-0.24164 0.616,0.4831 1.12,0.9871 1.12,1.12 0,0.52674 -0.52556,0.18771 -1.36163,-0.87836 z m -7.04,-6.4 c -0.79608,-1.01508 -0.77344,-1.03772 0.24163,-0.24164 1.06608,0.83608 1.40511,1.36164 0.87837,1.36164 -0.1329,0 -0.6369,-0.504 -1.12,-1.12 z m -7.68,-7.04 c -0.79608,-1.01508 -0.77344,-1.03772 0.24163,-0.24164 0.616,0.4831 1.12,0.9871 1.12,1.12 0,0.52674 -0.52556,0.18771 -1.36163,-0.87836 z m 14.08,-2.56 c -0.79608,-1.01508 -0.77344,-1.03772 0.24163,-0.24164 0.616,0.4831 1.12,0.9871 1.12,1.12 0,0.52674 -0.52556,0.18771 -1.36163,-0.87836 z m -21.12,-3.84 c -0.79608,-1.01508 -0.77344,-1.03772 0.24163,-0.24164 0.616,0.4831 1.12,0.9871 1.12,1.12 0,0.52674 -0.52556,0.18771 -1.36163,-0.87836 z m 13.78083,-2.88 -1.2192,-1.44 1.44,1.21919 c 1.35325,1.14574 1.73136,1.66081 1.2192,1.66081 -0.12145,0 -0.76945,-0.648 -1.44,-1.44 z m 48,-1.92 -1.2192,-1.44 1.44,1.21919 c 0.792,0.67055 1.44,1.31855 1.44,1.44 0,0.51216 -0.51506,0.13405 -1.6608,-1.21919 z m -68.18083,-0.96 c -0.79608,-1.01508 -0.77344,-1.03772 0.24163,-0.24164 1.06608,0.83608 1.40511,1.36164 0.87837,1.36164 -0.1329,0 -0.6369,-0.504 -1.12,-1.12 z m 80.64,-3.2 c -0.79608,-1.01508 -0.77344,-1.03772 0.24163,-0.24164 0.616,0.4831 1.12,0.9871 1.12,1.12 0,0.52674 -0.52555,0.18771 -1.36163,-0.87836 z m -68.48,-1.28 c -0.79608,-1.01508 -0.77344,-1.03772 0.24163,-0.24164 0.616,0.4831 1.12,0.9871 1.12,1.12 0,0.52674 -0.52556,0.18771 -1.36163,-0.87836 z m -19.2,-1.92 c -0.79608,-1.01508 -0.77344,-1.03772 0.24163,-0.24164 1.06608,0.83608 1.40511,1.36164 0.87837,1.36164 -0.1329,0 -0.6369,-0.504 -1.12,-1.12 z M 150.4,508.54848 c 0,-0.13834 0.44696,-0.42304 0.99324,-0.63267 0.56955,-0.21856 0.82645,-0.11126 0.60223,0.25153 -0.37584,0.60813 -1.59547,0.89948 -1.59547,0.38114 z m 218.24,-5.18847 c -2.62238,-2.64 -4.62396,-4.8 -4.44796,-4.8 0.176,0 2.46558,2.16 5.08796,4.8 2.62238,2.64 4.62397,4.8 4.44797,4.8 -0.176,0 -2.46559,-2.16 -5.08797,-4.8 z m -83.92163,0.48 c -0.79608,-1.01508 -0.77344,-1.03772 0.24163,-0.24164 0.616,0.4831 1.12,0.9871 1.12,1.12 0,0.52674 -0.52556,0.18771 -1.36163,-0.87836 z m 17.28,0 c -0.79608,-1.01508 -0.77344,-1.03772 0.24163,-0.24164 0.616,0.4831 1.12,0.9871 1.12,1.12 0,0.52674 -0.52556,0.18771 -1.36163,-0.87836 z m 50.26083,-0.96 -1.2192,-1.44 1.44,1.21919 c 0.792,0.67055 1.44,1.31855 1.44,1.44 0,0.51216 -0.51506,0.13405 -1.6608,-1.21919 z m -73.30083,-4.16 c -0.79608,-1.01508 -0.77344,-1.03772 0.24163,-0.24164 1.06608,0.83608 1.40511,1.36164 0.87837,1.36164 -0.1329,0 -0.6369,-0.504 -1.12,-1.12 z m 15.36,-1.92 c -0.79608,-1.01508 -0.77344,-1.03772 0.24163,-0.24164 1.06608,0.83608 1.40511,1.36164 0.87837,1.36164 -0.1329,0 -0.6369,-0.504 -1.12,-1.12 z m 51.84,-0.64 c -0.79608,-1.01508 -0.77344,-1.03772 0.24163,-0.24164 0.616,0.4831 1.12,0.9871 1.12,1.12 0,0.52674 -0.52556,0.18771 -1.36163,-0.87836 z m -72.96,-2.56 c -0.79608,-1.01508 -0.77344,-1.03772 0.24163,-0.24164 0.616,0.4831 1.12,0.9871 1.12,1.12 0,0.52674 -0.52556,0.18771 -1.36163,-0.87836 z m 124.16,-8.96001 c -0.79608,-1.01507 -0.77344,-1.03771 0.24163,-0.24163 0.616,0.4831 1.12,0.9871 1.12,1.12 0,0.52674 -0.52555,0.18771 -1.36163,-0.87837 z m 12.16,-4.48 c -0.79608,-1.01507 -0.77344,-1.03771 0.24163,-0.24163 0.616,0.4831 1.12,0.9871 1.12,1.12 0,0.52674 -0.52555,0.18771 -1.36163,-0.87837 z m -4.48,-4.48 c -0.79608,-1.01507 -0.77344,-1.03771 0.24163,-0.24163 0.616,0.4831 1.12,0.9871 1.12,1.12 0,0.52674 -0.52555,0.18771 -1.36163,-0.87837 z m -102.05917,-36.16 -1.2192,-1.44 1.44,1.2192 c 1.35325,1.14574 1.73136,1.6608 1.2192,1.6608 -0.12145,0 -0.76945,-0.648 -1.44,-1.44 z M 182.28,437.96281 c 0.462,-0.18488 1.014,-0.16214 1.22667,0.0505 0.21267,0.21266 -0.16533,0.36393 -0.84,0.33614 -0.74556,-0.0307 -0.89722,-0.18236 -0.38667,-0.38667 z m -8.99254,-0.65545 c 0.79611,-0.15309 1.94811,-0.14727 2.56,0.0129 0.6119,0.16019 -0.0395,0.28544 -1.44746,0.27834 -1.408,-0.007 -1.90864,-0.13817 -1.11254,-0.29125 z m -22.06409,-0.66101 c 2.03685,-0.12739 5.20485,-0.12621 7.04,0.003 1.83515,0.12884 0.16863,0.23307 -3.70337,0.23162 -3.872,-10e-4 -5.37348,-0.10685 -3.33663,-0.23425 z m 141.73663,0.022 c 0.792,-0.15255 2.088,-0.15255 2.88,0 0.792,0.15254 0.144,0.27735 -1.44,0.27735 -1.584,0 -2.232,-0.12481 -1.44,-0.27735 z"
           id="path8" />
        <path
           style="fill:#c49c73"
           d="m 429.08507,675.20001 c 0,-11.088 0.0872,-15.624 0.19372,-10.08 0.10654,5.544 0.10654,14.616 0,20.16 -0.10655,5.544 -0.19372,1.008 -0.19372,-10.08 z M 305.16,654.92281 c 0.462,-0.18487 1.014,-0.16214 1.22667,0.0505 0.21267,0.21267 -0.16533,0.36393 -0.84,0.33614 -0.74556,-0.0307 -0.89722,-0.18236 -0.38667,-0.38667 z m -8.66782,-0.64632 c 0.6227,-0.16227 1.4867,-0.15159 1.92,0.0237 0.4333,0.17531 -0.0762,0.30807 -1.13218,0.29503 -1.056,-0.013 -1.41052,-0.15648 -0.78782,-0.31875 z M 304.52,642.76281 c 0.462,-0.18487 1.014,-0.16214 1.22667,0.0505 0.21267,0.21267 -0.16533,0.36393 -0.84,0.33614 -0.74556,-0.0307 -0.89722,-0.18236 -0.38667,-0.38667 z m 124.27943,-19.53147 c -0.17569,-11.15876 -0.0992,-20.06812 0.16999,-19.79858 0.26919,0.26955 0.41293,9.39945 0.31943,20.28867 l -0.17,19.79858 z m -132.94725,18.88515 c 0.6227,-0.16227 1.4867,-0.15159 1.92,0.0237 0.4333,0.17531 -0.0762,0.30807 -1.13218,0.29503 -1.056,-0.013 -1.41052,-0.15648 -0.78782,-0.31875 z M 310.92,606.92281 c 0.462,-0.18487 1.014,-0.16214 1.22667,0.0505 0.21267,0.21267 -0.16533,0.36393 -0.84,0.33614 -0.74556,-0.0307 -0.89722,-0.18236 -0.38667,-0.38667 z m -9.94782,-0.64632 c 0.6227,-0.16227 1.4867,-0.15159 1.92,0.0237 0.4333,0.17531 -0.0762,0.30807 -1.13218,0.29503 -1.056,-0.013 -1.41052,-0.15648 -0.78782,-0.31875 z M 316.68,595.40281 c 0.462,-0.18487 1.014,-0.16214 1.22667,0.0505 0.21267,0.21267 -0.16533,0.36393 -0.84,0.33614 -0.74556,-0.0307 -0.89722,-0.18236 -0.38667,-0.38667 z m -6.4,-0.64 c 0.462,-0.18487 1.014,-0.16214 1.22667,0.0505 0.21267,0.21267 -0.16533,0.36393 -0.84,0.33614 -0.74556,-0.0307 -0.89722,-0.18236 -0.38667,-0.38667 z m -13.1512,-0.66206 c 0.97284,-0.1471 2.41284,-0.14317 3.2,0.009 0.78716,0.15191 -0.009,0.27227 -1.7688,0.26747 -1.76,-0.005 -2.40404,-0.1291 -1.4312,-0.27621 z m 131.51454,-15.70008 c 0.30521,-24.21864 0.52448,-26.44893 0.66074,-6.72066 0.0748,10.824 -0.0801,19.68029 -0.34408,19.68066 -0.264,3.6e-4 -0.40649,-5.83164 -0.31666,-12.96 z m -286.42034,-9.92066 0.143,-10.72 0.19279,10.38593 0.19278,10.38594 11.98422,0.18907 11.98421,0.18906 -12.32,0.145 -12.32,0.145 z m 76.177,10.24022 c 13.64,-0.0964 35.96,-0.0964 49.6,0 13.64,0.0964 2.48,0.17525 -24.8,0.17525 -27.28,0 -38.44,-0.0789 -24.8,-0.17525 z m 45.8,-19.79742 c 0.462,-0.18487 1.014,-0.16214 1.22667,0.0505 0.21267,0.21267 -0.16533,0.36393 -0.84,0.33614 -0.74556,-0.0307 -0.89722,-0.18236 -0.38667,-0.38667 z m 7,-0.62666 c 0.44,-0.17755 1.16,-0.17755 1.6,0 0.44,0.17754 0.08,0.3228 -0.8,0.3228 -0.88,0 -1.24,-0.14526 -0.8,-0.3228 z m 26.24,0 c 0.44,-0.17755 1.16,-0.17755 1.6,0 0.44,0.17754 0.08,0.3228 -0.8,0.3228 -0.88,0 -1.24,-0.14526 -0.8,-0.3228 z m 38.1792,-8.05614 -1.2192,-1.44 1.44,1.21919 c 1.35325,1.14574 1.73136,1.66081 1.2192,1.66081 -0.12145,0 -0.76945,-0.648 -1.44,-1.44 z M 264.2,546.76281 c 0.462,-0.18487 1.014,-0.16214 1.22667,0.0505 0.21267,0.21267 -0.16533,0.36393 -0.84,0.33614 -0.74556,-0.0307 -0.89722,-0.18236 -0.38667,-0.38667 z m 37.12,0 c 0.462,-0.18487 1.014,-0.16214 1.22667,0.0505 0.21267,0.21267 -0.16533,0.36393 -0.84,0.33614 -0.74556,-0.0307 -0.89722,-0.18236 -0.38667,-0.38667 z m -29.14782,-0.64632 c 0.6227,-0.16227 1.4867,-0.15159 1.92,0.0237 0.4333,0.17531 -0.0762,0.30807 -1.13218,0.29503 -1.056,-0.013 -1.41052,-0.15648 -0.78782,-0.31875 z m 20.48,0 c 0.6227,-0.16227 1.4867,-0.15159 1.92,0.0237 0.4333,0.17531 -0.0762,0.30807 -1.13218,0.29503 -1.056,-0.013 -1.41052,-0.15648 -0.78782,-0.31875 z m 36.25938,-1.95648 -1.55156,-1.76 1.76,1.55156 c 0.968,0.85336 1.76,1.64536 1.76,1.76 0,0.50193 -0.51827,0.0934 -1.96844,-1.55156 z m -186.5659,-10.4 c 0,-6.512 0.095,-9.176 0.21118,-5.92 0.11616,3.256 0.11616,8.584 0,11.84 -0.11615,3.256 -0.21118,0.592 -0.21118,-5.92 z m 201.89271,7.84 c -0.79608,-1.01508 -0.77344,-1.03772 0.24163,-0.24164 0.616,0.4831 1.12,0.9871 1.12,1.12 0,0.52674 -0.52556,0.18771 -1.36163,-0.87836 z m 84.84357,-19.36 c 0,-10.032 0.0885,-14.136 0.1966,-9.12 0.10814,5.016 0.10814,13.224 0,18.24 -0.10813,5.016 -0.1966,0.912 -0.1966,-9.12 z m -107.21038,15.52 -1.55156,-1.76 1.76,1.55156 c 1.64499,1.45016 2.0535,1.96844 1.55156,1.96844 -0.11464,0 -0.90664,-0.792 -1.76,-1.76 z m 18.22764,0.32 -1.2192,-1.44 1.44,1.21919 c 1.35325,1.14574 1.73136,1.66081 1.2192,1.66081 -0.12145,0 -0.76945,-0.648 -1.44,-1.44 z m -5.12,-4.48 -1.2192,-1.44 1.44,1.21919 c 1.35325,1.14574 1.73136,1.66081 1.2192,1.66081 -0.12145,0 -0.76945,-0.648 -1.44,-1.44 z m -20.45946,-2.56 -1.87974,-2.08 2.08,1.87973 c 1.93885,1.75218 2.37418,2.28027 1.87974,2.28027 -0.11014,0 -1.04614,-0.936 -2.08,-2.08 z m 15.03182,-2.24 -1.55156,-1.76 1.76,1.55156 c 0.968,0.85335 1.76,1.64535 1.76,1.76 0,0.50193 -0.51827,0.0934 -1.96844,-1.55156 z m -22.4,-4.48 -1.55156,-1.76 1.76,1.55156 c 1.64499,1.45016 2.0535,1.96844 1.55156,1.96844 -0.11464,0 -0.90664,-0.792 -1.76,-1.76 z m 16,-1.28 -1.55156,-1.76 1.76,1.55156 c 1.64499,1.45016 2.0535,1.96844 1.55156,1.96844 -0.11464,0 -0.90664,-0.792 -1.76,-1.76 z m 50.52681,0.64 c -0.79608,-1.01508 -0.77344,-1.03772 0.24163,-0.24164 0.616,0.4831 1.12,0.9871 1.12,1.12 0,0.52674 -0.52555,0.18771 -1.36163,-0.87836 z m -4.77917,-4.16 -1.2192,-1.44 1.44,1.21919 c 1.35325,1.14574 1.73136,1.66081 1.2192,1.66081 -0.12145,0 -0.76945,-0.648 -1.44,-1.44 z m -68.48,-1.28 -1.2192,-1.44 1.44,1.21919 c 1.35325,1.14574 1.73136,1.66081 1.2192,1.66081 -0.12145,0 -0.76945,-0.648 -1.44,-1.44 z m 15.05236,-2.24 -1.55156,-1.76 1.76,1.55156 c 1.64499,1.45016 2.0535,1.96844 1.55156,1.96844 -0.11464,0 -0.90664,-0.792 -1.76,-1.76 z m 65.88681,-1.28 c -0.79608,-1.01508 -0.77344,-1.03772 0.24163,-0.24164 0.616,0.4831 1.12,0.9871 1.12,1.12 0,0.52674 -0.52555,0.18771 -1.36163,-0.87836 z m -87.64681,-2.56 -1.55156,-1.76 1.76,1.55156 c 1.64499,1.45016 2.0535,1.96844 1.55156,1.96844 -0.11464,0 -0.90664,-0.792 -1.76,-1.76 z m 65.28,-1.92 -1.55156,-1.76 1.76,1.55156 c 0.968,0.85335 1.76,1.64535 1.76,1.76 0,0.50193 -0.51827,0.0934 -1.96844,-1.55156 z m 17.58764,0.32 -1.2192,-1.44 1.44,1.21919 c 1.35325,1.14574 1.73136,1.66081 1.2192,1.66081 -0.12145,0 -0.76945,-0.648 -1.44,-1.44 z m -69.09946,-1.92 -1.87974,-2.08 2.08,1.87973 c 1.93885,1.75218 2.37418,2.28027 1.87974,2.28027 -0.11014,0 -1.04614,-0.936 -2.08,-2.08 z m -165.21669,-1.44 c 0.005,-1.76 0.1291,-2.40404 0.2762,-1.43121 0.14711,0.97284 0.14318,2.41284 -0.009,3.20001 -0.15191,0.78716 -0.27227,-0.009 -0.26747,-1.7688 z m 145.04851,-0.8 -1.55156,-1.76 1.76,1.55156 c 1.64499,1.45016 2.0535,1.96844 1.55156,1.96844 -0.11464,0 -0.90664,-0.792 -1.76,-1.76 z m -108.83319,-1.28 c -0.79608,-1.01508 -0.77344,-1.03772 0.24163,-0.24164 0.616,0.4831 1.12,0.9871 1.12,1.12 0,0.52674 -0.52556,0.18771 -1.36163,-0.87836 z m 120.68137,-4.16 -1.87974,-2.08 2.08,1.87973 c 1.93885,1.75218 2.37418,2.28027 1.87974,2.28027 -0.11014,0 -1.04614,-0.936 -2.08,-2.08 z m -17.94055,0 -1.21919,-1.44 1.44,1.21919 c 1.35325,1.14574 1.73136,1.66081 1.21919,1.66081 -0.12144,0 -0.76944,-0.648 -1.44,-1.44 z m 68.17237,-0.96 -1.55156,-1.76 1.76,1.55156 c 0.968,0.85335 1.76,1.64535 1.76,1.76 0,0.50193 -0.51827,0.0934 -1.96844,-1.55156 z m -74.27319,-4.48 c -0.79608,-1.01508 -0.77344,-1.03772 0.24163,-0.24164 0.616,0.4831 1.12,0.9871 1.12,1.12 0,0.52674 -0.52556,0.18771 -1.36163,-0.87836 z m 16.67319,-1.28 -1.55156,-1.76 1.76,1.55156 c 1.64499,1.45016 2.0535,1.96844 1.55156,1.96844 -0.11464,0 -0.90664,-0.792 -1.76,-1.76 z m 68.48,0 -1.55156,-1.76 1.76,1.55156 c 1.64499,1.45016 2.0535,1.96844 1.55156,1.96844 -0.11464,0 -0.90664,-0.792 -1.76,-1.76 z m -16.03319,0 c -0.79608,-1.01508 -0.77344,-1.03772 0.24163,-0.24164 0.616,0.4831 1.12,0.9871 1.12,1.12 0,0.52674 -0.52556,0.18771 -1.36163,-0.87836 z M 269.69919,490.72 268.48,489.28 l 1.44,1.2192 c 0.792,0.67055 1.44,1.31855 1.44,1.44 0,0.51216 -0.51507,0.13405 -1.66081,-1.2192 z m 159.39424,-26.4 c 1.5e-4,-15.136 0.0839,-21.23651 0.18603,-13.5567 0.10216,7.67981 0.10204,20.06381 -2.8e-4,27.52 -0.10231,7.45619 -0.1859,1.1727 -0.18575,-13.9633 z m -88.69506,25.44 c -0.79608,-1.01507 -0.77344,-1.03771 0.24163,-0.24163 0.616,0.4831 1.12,0.9871 1.12,1.12 0,0.52674 -0.52556,0.18771 -1.36163,-0.87837 z m -198.03632,-0.34811 c -0.17478,-0.45547 -0.23664,-5.13547 -0.13747,-10.4 l 0.18031,-9.57189 0.31756,10.40089 c 0.17465,5.72049 0.23651,10.40049 0.13747,10.4 -0.099,-4.9e-4 -0.32309,-0.37354 -0.49787,-0.829 z M 285.69919,488.8 284.48,487.36 l 1.44,1.2192 c 1.35325,1.14574 1.73136,1.6608 1.21919,1.6608 -0.12144,0 -0.76944,-0.648 -1.44,-1.44 z m 70.05918,0.32 c -0.79608,-1.01507 -0.77344,-1.03771 0.24163,-0.24163 0.616,0.4831 1.12,0.9871 1.12,1.12 0,0.52674 -0.52556,0.18771 -1.36163,-0.87837 z m -90.88,-2.56 c -0.79608,-1.01507 -0.77344,-1.03771 0.24163,-0.24163 0.616,0.4831 1.12,0.9871 1.12,1.12 0,0.52674 -0.52556,0.18771 -1.36163,-0.87837 z m 15.06082,-2.88 -1.21919,-1.44 1.44,1.2192 c 0.792,0.67055 1.44,1.31855 1.44,1.44 0,0.51216 -0.51507,0.13405 -1.66081,-1.2192 z m -4.82082,-4.16 c -0.79608,-1.01507 -0.77344,-1.03771 0.24163,-0.24163 1.06608,0.83608 1.40511,1.36163 0.87837,1.36163 -0.1329,0 -0.6369,-0.504 -1.12,-1.12 z m 132.18083,-1.6 -1.2192,-1.44 1.44,1.2192 c 1.35325,1.14574 1.73136,1.6608 1.2192,1.6608 -0.12145,0 -0.76945,-0.648 -1.44,-1.44 z M 142.36155,456.13057 c -0.17506,-0.45618 -0.23686,-4.99218 -0.13733,-10.08 l 0.18095,-9.25057 0.31741,10.08093 c 0.17458,5.5445 0.23638,10.0805 0.13734,10.08 -0.099,-5.1e-4 -0.32332,-0.37417 -0.49837,-0.83036 z M 179.68,437.97614 c 0.44,-0.17754 1.16,-0.17754 1.6,0 0.44,0.17755 0.08,0.32281 -0.8,0.32281 -0.88,0 -1.24,-0.14526 -0.8,-0.32281 z m -10.87254,-0.66878 c 0.79611,-0.15309 1.94811,-0.14727 2.56,0.0129 0.6119,0.16019 -0.0395,0.28544 -1.44746,0.27834 -1.408,-0.007 -1.90864,-0.13817 -1.11254,-0.29125 z m 199.07254,0.0154 c 0.462,-0.18488 1.014,-0.16214 1.22667,0.0505 0.21267,0.21266 -0.16533,0.36393 -0.84,0.33614 -0.74556,-0.0307 -0.89722,-0.18236 -0.38667,-0.38667 z m 19.84,0 c 0.462,-0.18488 1.014,-0.16214 1.22667,0.0505 0.21267,0.21266 -0.16533,0.36393 -0.84,0.33614 -0.74556,-0.0307 -0.89721,-0.18236 -0.38667,-0.38667 z"
           id="path7" />
        <path
           style="fill:#989899"
           d="m 806.66444,993.60001 c 6.7e-4,-6.336 0.0965,-8.84143 0.21284,-5.56763 0.11639,3.27381 0.11584,8.45781 -0.001,11.52 -0.11706,3.06222 -0.21229,0.38363 -0.21162,-5.95237 z m -639.79176,-5.26531 3.99269,-0.23284 0.17861,-25.41092 0.17862,-25.41093 -0.0113,25.6 -0.0113,25.6 -4.16,0.0438 -4.16,0.0438 z m 85.76732,0.002 c 1.144,-0.14197 3.016,-0.14197 4.16,0 1.144,0.14197 0.208,0.25812 -2.08,0.25812 -2.288,0 -3.224,-0.11615 -2.08,-0.25812 z m 47.17322,-0.33703 c -0.16864,-0.44 -0.22871,-14.48 -0.1335,-31.2 l 0.17312,-30.4 0.15358,30.84946 0.15358,30.84946 4,0.22723 4,0.22722 -4.02008,0.12332 c -2.72266,0.0835 -4.11904,-0.13488 -4.3267,-0.67669 z m 49.92,0 c -0.16864,-0.44 -0.22871,-14.48 -0.1335,-31.2 l 0.17312,-30.4 0.15358,30.84946 0.15358,30.84946 4,0.22723 4,0.22722 -4.02008,0.12332 c -2.72265,0.0835 -4.11904,-0.13488 -4.3267,-0.67669 z m 129.45251,0.33809 c 1.13615,-0.14138 3.15215,-0.14371 4.48,-0.005 1.32785,0.13854 0.39827,0.25422 -2.06573,0.25706 -2.464,0.003 -3.55042,-0.11051 -2.41427,-0.2519 z m 211.85428,-10e-4 c 1.144,-0.14197 3.016,-0.14197 4.16,0 1.144,0.14197 0.208,0.25812 -2.08,0.25812 -2.288,0 -3.224,-0.11615 -2.08,-0.25812 z m 47.17121,-0.34127 c -0.16974,-0.44233 -0.22874,-10.59433 -0.13111,-22.56 l 0.1775,-21.75576 0.1512,22.20946 0.1512,22.20946 4,0.22723 4,0.22722 -4.02009,0.12332 c -2.73331,0.0838 -4.11887,-0.13411 -4.3287,-0.68093 z m 145.45451,0.34233 c 1.13615,-0.14138 3.15215,-0.14371 4.48,-0.005 1.32786,0.13854 0.39828,0.25422 -2.06572,0.25706 -2.464,0.003 -3.55042,-0.11051 -2.41428,-0.2519 z m 49.92,0 c 1.13615,-0.14138 3.15215,-0.14371 4.48,-0.005 1.32786,0.13854 0.39828,0.25422 -2.06572,0.25706 -2.464,0.003 -3.55042,-0.11051 -2.41428,-0.2519 z m 33.92001,0 c 1.13614,-0.14138 3.15214,-0.14371 4.48,-0.005 1.32785,0.13854 0.39827,0.25422 -2.06573,0.25706 -2.464,0.003 -3.55042,-0.11051 -2.41427,-0.2519 z m 186.87996,0 c 1.1362,-0.14138 3.1522,-0.14371 4.48,-0.005 1.3279,0.13854 0.3983,0.25422 -2.0657,0.25706 -2.464,0.003 -3.5504,-0.11051 -2.4143,-0.2519 z m 58.7055,-0.34233 c -0.1697,-0.44233 -0.2287,-10.59433 -0.1311,-22.56 l 0.1775,-21.75576 0.1512,22.20946 0.1512,22.20946 4,0.22723 4,0.22722 -4.0201,0.12332 c -2.7333,0.0838 -4.1188,-0.13411 -4.3287,-0.68093 z M 1292,988.33704 c 1.144,-0.14197 3.016,-0.14197 4.16,0 1.144,0.14197 0.208,0.25812 -2.08,0.25812 -2.288,0 -3.224,-0.11615 -2.08,-0.25812 z m -604.63999,-3.61867 c 0,-0.13289 0.504,-0.63689 1.12,-1.12 1.01507,-0.79607 1.03771,-0.77344 0.24163,0.24164 -0.83607,1.06608 -1.36163,1.40511 -1.36163,0.87836 z m 150.4,-1.99836 c 0.82672,-0.88 1.64712,-1.6 1.82312,-1.6 0.176,0 -0.3564,0.72 -1.18312,1.6 -0.82672,0.88 -1.64712,1.6 -1.82312,1.6 -0.176,0 0.3564,-0.72 1.18312,-1.6 z m -401.85576,-0.13089 c 0.46602,-0.776 0.98506,-1.27314 1.15343,-1.10477 0.16837,0.16838 -0.21291,0.80328 -0.84729,1.4109 -1.10204,1.05554 -1.11568,1.0419 -0.30614,-0.30613 z m 232.17412,-2.58911 c -0.79608,-1.01508 -0.77344,-1.03771 0.24164,-0.24164 1.06608,0.83608 1.4051,1.36164 0.87836,1.36164 -0.1329,0 -0.6369,-0.504 -1.12,-1.12 z m 163.28164,-2.4 c 0.82672,-0.88 1.64712,-1.6 1.82312,-1.6 0.176,0 -0.3564,0.72 -1.18312,1.6 -0.82672,0.88 -1.64712,1.6 -1.82312,1.6 -0.176,0 0.3564,-0.72 1.18312,-1.6 z m 185.23189,-13.12 c 0,-7.568 0.092,-10.664 0.2057,-6.88 0.1131,3.784 0.1131,9.976 0,13.76 -0.1132,3.784 -0.2057,0.688 -0.2057,-6.88 z m -398.52256,11.44058 c 0.43413,-0.43738 0.95055,-0.63403 1.1476,-0.43698 0.19705,0.19705 -0.15815,0.55491 -0.78933,0.79525 -0.91213,0.34732 -0.98564,0.27381 -0.35827,-0.35827 z m -26.56085,-9.52058 c 0,-1.232 0.13171,-1.736 0.29268,-1.12 0.16098,0.616 0.16098,1.624 0,2.24 -0.16097,0.616 -0.29268,0.112 -0.29268,-1.12 z m 479.36001,0 c 0,-1.232 0.1317,-1.736 0.2927,-1.12 0.161,0.616 0.161,1.624 0,2.24 -0.161,0.616 -0.2927,0.112 -0.2927,-1.12 z m -487.72744,0 c 0,-0.88 0.14526,-1.24 0.32281,-0.8 0.17754,0.44 0.17754,1.16 0,1.6 -0.17755,0.44 -0.32281,0.08 -0.32281,-0.8 z m 252.8,0 c 0,-0.88 0.14526,-1.24 0.32281,-0.8 0.17754,0.44 0.17754,1.16 0,1.6 -0.17755,0.44 -0.32281,0.08 -0.32281,-0.8 z M 239.22508,962.7255 c 2.2138,-0.12533 5.6698,-0.12429 7.68,0.002 2.01021,0.12659 0.19892,0.22914 -4.02508,0.22787 -4.224,-10e-4 -5.86871,-0.10484 -3.65492,-0.23018 z m 438.40001,0 c 2.21379,-0.12533 5.66979,-0.12429 7.68,0.002 2.0102,0.12659 0.19892,0.22914 -4.02508,0.22787 -4.224,-10e-4 -5.86872,-0.10484 -3.65492,-0.23018 z m 601.25491,0.002 c 2.024,-0.12701 5.336,-0.12701 7.36,0 2.024,0.12701 0.368,0.23092 -3.68,0.23092 -4.048,0 -5.704,-0.10391 -3.68,-0.23092 z m -582.50947,-4.38038 c 0.0307,-0.74557 0.18237,-0.89722 0.38667,-0.38667 0.18488,0.462 0.16214,1.014 -0.0505,1.22667 -0.21266,0.21266 -0.36393,-0.16534 -0.33614,-0.84 z m 53.06948,-2.42831 c 0,-0.1329 0.504,-0.6369 1.12,-1.12 1.01507,-0.79607 1.03771,-0.77344 0.24163,0.24164 -0.83607,1.06608 -1.36163,1.40511 -1.36163,0.87836 z m 194.24,-1.03836 c 0.63711,-0.704 1.30238,-1.28 1.47838,-1.28 0.176,0 -0.20127,0.576 -0.83838,1.28 -0.63711,0.704 -1.30238,1.28 -1.47838,1.28 -0.176,0 0.20127,-0.576 0.83838,-1.28 z m 159.29919,-0.16 -1.2192,-1.44 1.44,1.21919 c 1.3533,1.14574 1.7314,1.66081 1.2192,1.66081 -0.1214,0 -0.7694,-0.648 -1.44,-1.44 z m -140.8,-0.64 -1.21919,-1.44 1.44,1.21919 c 0.792,0.67056 1.44,1.31856 1.44,1.44 0,0.51216 -0.51507,0.13405 -1.66081,-1.21919 z m 214.3457,-6.24 c 0,-2.288 0.1161,-3.224 0.2581,-2.08 0.142,1.144 0.142,3.016 0,4.16 -0.142,1.144 -0.2581,0.208 -0.2581,-2.08 z M 416.8,950.59884 c 0.616,-0.16098 1.624,-0.16098 2.24,0 0.616,0.16098 0.112,0.29269 -1.12,0.29269 -1.232,0 -1.736,-0.13171 -1.12,-0.29269 z m 675.2,0 c 0.616,-0.16098 1.624,-0.16098 2.24,0 0.616,0.16098 0.112,0.29269 -1.12,0.29269 -1.232,0 -1.736,-0.13171 -1.12,-0.29269 z m 68.5183,-3.07883 c 0,-2.112 0.1231,-2.89884 0.2655,-1.74854 0.1425,1.15031 0.1395,2.87831 -0.01,3.84 -0.146,0.9617 -0.2626,0.0205 -0.259,-2.09146 z m -220.80651,-0.32 c 0,-1.936 0.11998,-2.728 0.26662,-1.76 0.14664,0.968 0.14664,2.552 0,3.52 -0.14664,0.968 -0.26662,0.176 -0.26662,-1.76 z m 76.82761,-8 c 0,-2.816 0.1149,-3.88839 0.25,-2.38308 0.1352,1.5053 0.1333,3.8093 0,5.12 -0.1375,1.31069 -0.2481,0.0791 -0.2458,-2.73692 z m 196.1006,-1.42297 c 1.144,-0.14197 3.016,-0.14197 4.16,0 1.144,0.14197 0.208,0.25812 -2.08,0.25812 -2.288,0 -3.224,-0.11615 -2.08,-0.25812 z m 12.1769,-10.88647 c 1.5053,-0.1352 3.8093,-0.13329 5.12,0.004 1.3107,0.13752 0.079,0.24814 -2.7369,0.24581 -2.816,-0.002 -3.8884,-0.11484 -2.3831,-0.25004 z M 286.38904,814.72001 c 0,-39.248 0.0769,-55.304 0.17085,-35.68 0.094,19.624 0.094,51.736 0,71.36 -0.094,19.624 -0.17085,3.568 -0.17085,-35.68 z m 225.26734,19.52 c 1.2e-4,-17.248 0.0826,-24.21202 0.1832,-15.47559 0.10064,8.73643 0.10054,22.84843 -2.2e-4,31.36 -0.10076,8.51158 -0.1831,1.36359 -0.18298,-15.88441 z m 414.09092,-29.76 c 0,-33.616 0.0776,-47.368 0.17256,-30.56 0.0949,16.808 0.0949,44.312 0,61.12 -0.0949,16.808 -0.17256,3.056 -0.17256,-30.56 z m -379.34729,48.80614 c 2.2,-0.12497 5.8,-0.12497 8,0 2.2,0.12498 0.4,0.22723 -4,0.22723 -4.4,0 -6.2,-0.10225 -4,-0.22723 z m 343.2,-4.8464 c 0,-0.11015 0.936,-1.04615 2.08,-2.08 l 2.08,-1.87974 -1.87974,2.08 c -1.75218,1.93885 -2.28026,2.37418 -2.28026,1.87974 z m 86.28458,-9.87933 c 8.91251,-0.10042 23.31251,-0.10032 32.00001,2.1e-4 8.6875,0.10053 1.3954,0.18269 -16.20459,0.18258 -17.6,-1.2e-4 -24.70794,-0.0824 -15.79542,-0.18279 z M 216.5233,816.16056 c 7.67981,-0.10217 20.06381,-0.10204 27.52,2.7e-4 7.45619,0.10232 1.1727,0.18591 -13.9633,0.18575 -15.136,-1.5e-4 -21.23651,-0.0839 -13.5567,-0.18602 z m 477.07671,10e-4 c 4.312,-0.11073 11.368,-0.11073 15.68,0 4.312,0.11072 0.784,0.20131 -7.84,0.20131 -8.624,0 -12.152,-0.0906 -7.84,-0.20131 z m 320.30539,-12.15498 -0.1454,-12.95305 -27.03999,-0.17408 -27.04,-0.17408 27.06009,-0.15287 c 21.5014,-0.12146 27.1246,0.0154 27.3743,0.666 0.1728,0.45038 0.2292,6.42638 0.1253,13.28 l -0.189,12.46114 z m 197.6137,12.15306 c -5e-4,-0.264 4.5355,-0.40568 10.08,-0.31485 19.1191,0.31322 20.9141,0.53203 5.4409,0.66324 -8.536,0.0724 -15.5204,-0.0844 -15.5209,-0.34839 z m -303.81604,-11.36 c 0.005,-1.76 0.12909,-2.40404 0.2762,-1.4312 0.14711,0.97284 0.14318,2.41284 -0.009,3.2 -0.15192,0.78716 -0.27228,-0.009 -0.26747,-1.7688 z m -286.61078,-35.2 c -1.7e-4,-14.432 0.0839,-20.42729 0.18683,-13.32286 0.10292,7.10443 0.10305,18.91243 3e-4,26.24 -0.10276,7.32757 -0.18697,1.51486 -0.18713,-12.91714 z m 531.10602,19.2 c 0,-2.112 0.1231,-2.89884 0.2655,-1.74854 0.1425,1.1503 0.1395,2.8783 -0.01,3.84 -0.146,0.9617 -0.2626,0.0205 -0.259,-2.09146 z m -288.55855,-8.16 -1.87974,-2.08 2.08,1.87974 c 1.144,1.03385 2.08,1.96985 2.08,2.08 0,0.49443 -0.52808,0.0591 -2.28026,-1.87974 z m -20.87974,-9.2372 c 0.462,-0.18487 1.014,-0.16214 1.22667,0.0505 0.21266,0.21267 -0.16534,0.36393 -0.84,0.33614 -0.74557,-0.0307 -0.89722,-0.18236 -0.38667,-0.38667 z M 1082.08,770.72386 c 2.904,-0.11859 7.656,-0.11859 10.56,0 2.904,0.11858 0.528,0.21561 -5.28,0.21561 -5.808,0 -8.184,-0.097 -5.28,-0.21561 z M 847.88001,743.88281 c 0.462,-0.18487 1.014,-0.16214 1.22667,0.0505 0.21266,0.21267 -0.16534,0.36393 -0.84,0.33614 -0.74557,-0.0307 -0.89722,-0.18236 -0.38667,-0.38667 z m 257.91999,0 c 0.462,-0.18487 1.014,-0.16214 1.2267,0.0505 0.2126,0.21267 -0.1654,0.36393 -0.84,0.33614 -0.7456,-0.0307 -0.8972,-0.18236 -0.3867,-0.38667 z M 175.84,695.20013 c 18.744,-0.0942 49.416,-0.0942 68.16,0 18.744,0.0942 3.408,0.17133 -34.08,0.17133 -37.488,0 -52.824,-0.0771 -34.08,-0.17133 z"
           id="path6" />
        <path
           style="fill:#b98857"
           d="m 331.43837,546.72001 c -0.79608,-1.01508 -0.77344,-1.03772 0.24163,-0.24164 1.06608,0.83608 1.40511,1.36164 0.87837,1.36164 -0.1329,0 -0.6369,-0.504 -1.12,-1.12 z m -7.04,-6.4 c -0.79608,-1.01508 -0.77344,-1.03772 0.24163,-0.24164 0.616,0.4831 1.12,0.9871 1.12,1.12 0,0.52674 -0.52556,0.18771 -1.36163,-0.87836 z m -14.72,-13.44 c -0.79608,-1.01508 -0.77344,-1.03772 0.24163,-0.24164 0.616,0.4831 1.12,0.9871 1.12,1.12 0,0.52674 -0.52556,0.18771 -1.36163,-0.87836 z m -7.04,-6.4 c -0.79608,-1.01508 -0.77344,-1.03772 0.24163,-0.24164 1.06608,0.83608 1.40511,1.36164 0.87837,1.36164 -0.1329,0 -0.6369,-0.504 -1.12,-1.12 z m 17.92,0 c -0.79608,-1.01508 -0.77344,-1.03772 0.24163,-0.24164 0.616,0.4831 1.12,0.9871 1.12,1.12 0,0.52674 -0.52556,0.18771 -1.36163,-0.87836 z m -65.28,-4.48 c -0.79608,-1.01508 -0.77344,-1.03772 0.24163,-0.24164 0.616,0.4831 1.12,0.9871 1.12,1.12 0,0.52674 -0.52556,0.18771 -1.36163,-0.87836 z m 107.56718,-1.92 -2.20555,-2.4 2.4,2.20554 c 2.23387,2.05288 2.69427,2.59446 2.20555,2.59446 -0.10695,0 -1.18695,-1.08 -2.4,-2.4 z m -66.60718,0.64 c -0.79608,-1.01508 -0.77344,-1.03772 0.24163,-0.24164 0.616,0.4831 1.12,0.9871 1.12,1.12 0,0.52674 -0.52556,0.18771 -1.36163,-0.87836 z m 16.34083,-1.6 -1.2192,-1.44 1.44,1.21919 c 1.35325,1.14574 1.73136,1.66081 1.2192,1.66081 -0.12145,0 -0.76945,-0.648 -1.44,-1.44 z m 61.73917,-4.8 c -0.79608,-1.01508 -0.77344,-1.03772 0.24163,-0.24164 0.616,0.4831 1.12,0.9871 1.12,1.12 0,0.52674 -0.52555,0.18771 -1.36163,-0.87836 z m -19.15282,-1.92 -2.20555,-2.4 2.4,2.20554 c 2.23387,2.05288 2.69427,2.59446 2.20555,2.59446 -0.10695,0 -1.18695,-1.08 -2.4,-2.4 z m -50.90635,-0.96 -1.2192,-1.44 1.44,1.21919 c 1.35325,1.14574 1.73136,1.66081 1.2192,1.66081 -0.12145,0 -0.76945,-0.648 -1.44,-1.44 z m -8.02083,-7.36 c -0.79608,-1.01508 -0.77344,-1.03772 0.24163,-0.24164 0.616,0.4831 1.12,0.9871 1.12,1.12 0,0.52674 -0.52556,0.18771 -1.36163,-0.87836 z m -19.2,-0.64 c -0.79608,-1.01508 -0.77344,-1.03772 0.24163,-0.24164 1.06608,0.83608 1.40511,1.36164 0.87837,1.36164 -0.1329,0 -0.6369,-0.504 -1.12,-1.12 z m 85.76,-0.64 c -0.79608,-1.01508 -0.77344,-1.03772 0.24163,-0.24164 0.616,0.4831 1.12,0.9871 1.12,1.12 0,0.52674 -0.52556,0.18771 -1.36163,-0.87836 z m 37.49152,-8.64001 -2.52989,-2.72 2.72,2.52989 c 2.52958,2.35277 3.0141,2.91011 2.52989,2.91011 -0.10456,0 -1.32856,-1.224 -2.72,-2.72 z m -116.85152,-1.6 c -0.79608,-1.01507 -0.77344,-1.03771 0.24163,-0.24163 0.616,0.4831 1.12,0.9871 1.12,1.12 0,0.52674 -0.52556,0.18771 -1.36163,-0.87837 z"
           id="path5" />
        <path
           style="fill:#b17a43"
           d="m 292.48,674.58409 v -20.45592 l 4.32,0.32051 c 13.73751,1.01923 23.78495,2.7497 35.32334,6.08374 19.06585,5.5091 41.03033,16.61661 59.69426,30.18759 l 5.94122,4.32 H 345.11941 292.48 Z M 408.64,687.9026 C 396.37332,678.29543 379.63188,667.20866 369.27014,661.8305 348.04863,650.81567 323.88178,644.14941 298.08,642.19319 l -5.6,-0.42458 v -17.90744 -17.90743 l 7.52,0.42766 c 28.54358,1.62329 47.76479,6.47668 72.16,18.22053 4.224,2.03343 15.89879,8.27386 25.94396,13.86761 10.04518,5.59376 21.05765,11.61047 24.47216,13.37047 l 6.2082,3.2 0.008,20 0.008,20 -5.6,-0.06 -5.6,-0.06 z m 2.56,-55.40782 C 377.34482,613.10124 365.76309,607.4075 349.74721,602.28374 335.5148,597.73055 320.22883,595.18172 301.28,594.20218 l -8.8,-0.4549 v -7.59364 -7.59363 l -48.48,-0.0369 -48.48,-0.0369 3.52,-1.59869 c 5.08731,-2.31053 19.61976,-7.50773 28.16,-10.0708 34.66145,-10.40246 70.58535,-11.44656 103.24605,-3.00077 19.00368,4.9142 33.27573,10.93073 54.42888,22.94506 12.00944,6.82098 23.65,11.6255 35.21136,14.5331 l 8.39371,2.11096 0.17646,10.01738 c 0.0971,5.50956 0.0971,14.28192 0,19.49415 l -0.17646,9.47677 z m 9.81802,-43.38995 C 408.06715,585.54957 399.82237,581.59951 384.64,571.67618 363.10552,557.60104 344.30721,542.14077 308.12976,508.75194 268.19903,471.89915 252.17219,459.12497 225.92,443.22675 c -5.104,-3.09096 -9.40809,-5.73755 -9.56464,-5.88131 -0.15655,-0.14376 18.56345,-0.1813 41.6,-0.0834 38.88207,0.16522 42.00447,0.25938 43.55616,1.3136 0.91933,0.6246 4.63826,5.3766 8.2643,10.56 36.39293,52.02356 64.81243,80.59207 94.38418,94.87902 7.41509,3.58244 20.69224,8.30536 23.34817,8.30536 1.26707,0 1.29183,0.36804 1.29183,19.2 0,17.87691 -0.0772,19.19676 -1.12,19.1531 -0.616,-0.0258 -3.61389,-0.73152 -6.66198,-1.56828 z M 142.72,568.42846 v -10.13155 l 12.96,-3.95525 c 7.128,-2.17539 20.304,-6.27061 29.28,-9.10048 26.13007,-8.23806 34.69981,-10.57518 51.57532,-14.06549 16.34561,-3.38072 19.97265,-4.60244 21.75943,-7.32942 2.56859,-3.92016 -3.44092,-9.80157 -24.69475,-24.1684 -23.81594,-16.09873 -50.64592,-29.36242 -80,-39.54885 l -10.56,-3.66453 -0.17667,-9.67224 -0.17667,-9.67225 10.73667,0.0132 c 14.25113,0.0175 28.7948,1.00095 33.96043,2.29644 10.84557,2.71997 33.89757,14.48182 48.9704,24.98624 12.01574,8.37389 24.37415,18.43177 42.68584,34.73984 13.63963,12.1472 58.88,53.24756 58.88,53.4918 0,0.0901 -2.088,-0.24124 -4.64,-0.73629 -22.52648,-4.36973 -36.05365,-5.98684 -50.08,-5.98684 -33.35148,0 -67.40004,8.72337 -105.21741,26.95712 l -11.77742,5.67851 H 154.46259 142.72 Z m 0,-34.77555 c 0,-6.2771 0.23621,-11.4129 0.52492,-11.4129 1.89123,0 32.8279,-6.57816 34.47715,-7.33099 3.28619,-1.50003 4.10163,-6.54213 1.54767,-9.56972 -1.67196,-1.98203 -18.301,-9.70203 -27.60979,-12.8178 l -8.61995,-2.8852 -0.17706,-9.69181 -0.17707,-9.69181 1.77707,0.44043 c 0.97738,0.24224 5.95306,2.03974 11.05706,3.99445 23.34101,8.93905 44.05904,19.4625 64.32,32.67053 10.57041,6.89079 16.48467,11.09058 16.12482,11.45043 -0.15507,0.15507 -21.19859,6.12639 -46.76338,13.26962 L 142.72,545.06581 Z m 284.48,6.05466 c -8.18539,-1.94375 -21.785,-8.41699 -32,-15.23161 -9.91262,-6.61289 -16.67692,-12.20484 -25.93005,-21.43595 C 358.8398,492.63467 350.54713,482.63835 333.11381,459.45597 319.77737,441.72152 317.44,438.4397 317.44,437.44894 c 0,-0.21737 11.7492,-0.3083 26.10933,-0.20207 23.04712,0.17048 26.29951,0.31783 27.73081,1.25634 1.04579,0.68573 2.73618,3.52601 4.76118,8 12.76144,28.19485 19.62999,38.77509 30.47972,46.9506 5.1729,3.8979 14.57051,8.83798 19.55896,10.28164 l 2.72,0.78716 v 17.8187 c 0,9.80028 -0.072,17.78529 -0.16,17.74445 -0.088,-0.0408 -0.736,-0.21102 -1.44,-0.37819 z M 142.72,507.20033 v -2.76616 l 4.15934,1.65024 c 2.28764,0.90764 4.07388,1.73571 3.96943,1.84016 -0.10444,0.10444 -1.97615,0.60661 -4.15934,1.11591 l -3.96943,0.92601 z m 280.73326,-18.19348 c -13.12481,-6.59352 -22.67504,-17.01794 -30.18513,-32.94816 -3.67795,-7.80156 -7.08968,-17.48995 -6.40177,-18.17928 0.24118,-0.24167 9.77492,-0.52947 21.18608,-0.63954 L 428.8,437.03973 v 27.24014 c 0,14.98207 -0.0774,27.24013 -0.17208,27.24013 -0.0946,0 -2.42324,-1.13091 -5.17466,-2.51315 z"
           id="path4" />
        <path
           style="fill:#5c5c5c"
           d="m 800.48001,1004.337 c 1.144,-0.1419 3.016,-0.1419 4.16,0 1.144,0.142 0.208,0.2582 -2.08,0.2582 -2.288,0 -3.224,-0.1162 -2.08,-0.2582 z M 162.71226,963.05668 162.56,937.63335 l -9.76,-0.17667 -9.76,-0.17667 v -3.52 -3.52 h 24 24 v 3.52 3.52 l -10.08068,0.0252 -10.08069,0.0252 9.92069,-0.20144 9.92068,-0.20144 v -3.18375 -3.18375 h -23.68 -23.68 v 3.2 3.2 h 9.62009 c 7.11547,0 9.70016,0.20868 9.92766,0.80153 0.16917,0.44084 0.22865,12.03284 0.13218,25.76 l -0.1754,24.95847 z m 95.48217,10.70333 c 4.5e-4,-8.096 0.0922,-11.31975 0.20382,-7.16389 0.11165,4.15586 0.11128,10.77986 -8.2e-4,14.72 -0.1121,3.94014 -0.20345,0.53989 -0.203,-7.55611 z m 227.19235,2.56 c 6.1e-4,-6.688 0.0955,-9.33704 0.21075,-5.88676 0.11529,3.45029 0.11479,8.92229 -0.001,12.16 -0.11591,3.23772 -0.21025,0.41476 -0.20963,-6.27324 z m 211.20765,-2.56 c 4.5e-4,-8.096 0.0922,-11.31975 0.20382,-7.16389 0.11165,4.15586 0.11128,10.77986 -8.2e-4,14.72 -0.1121,3.94014 -0.20345,0.53989 -0.203,-7.55611 z m 185.63279,-7.51983 0.0128,-21.92017 3.84,-0.0457 3.84,-0.0457 -3.67163,0.23601 -3.67164,0.236 -0.18116,21.72985 -0.18115,21.72986 z m 49.92,0 0.0128,-21.92017 3.52,-0.0477 3.52,-0.0477 -3.35164,0.23943 -3.35163,0.23943 -0.18116,21.72848 -0.18115,21.72849 z m 33.88171,9.43983 c -5.7e-4,-7.04 0.0929,-10.00732 0.20779,-6.59404 0.11485,3.41327 0.11531,9.17327 10e-4,12.8 -0.11429,3.62672 -0.20825,0.83404 -0.20882,-6.20596 z m 7.68469,-1.6 c 0,-7.92 0.0919,-11.16 0.20415,-7.2 0.11229,3.96 0.11229,10.44 0,14.4 -0.11228,3.96 -0.20415,0.72 -0.20415,-7.2 z m 179.23358,-7.83983 0.013,-21.92017 3.52,-0.0477 3.52,-0.0477 -3.3516,0.23943 -3.3517,0.23943 -0.1811,21.72848 -0.1812,21.72849 z m 137.4004,19.74064 -0.1076,-2.49919 -1.44,1.19543 -1.44,1.19544 1.4222,-1.54069 c 1.7656,-1.91267 2.2556,-1.48468 1.9279,1.68399 l -0.2549,2.46421 z m -700.62786,-3.74081 -1.87973,-2.08 2.08,1.87974 c 1.93885,1.75218 2.37417,2.28026 1.87973,2.28026 -0.11014,0 -1.04614,-0.936 -2.08,-2.08 z m 217.57946,0.64 -1.21919,-1.44 1.44,1.21919 c 1.35324,1.14574 1.73135,1.66081 1.21919,1.66081 -0.12144,0 -0.76944,-0.648 -1.44,-1.44 z m 303.671,0.028 c 0.451,-0.60059 0.609,-1.46459 0.351,-1.92 -0.3777,-0.66682 -0.3003,-0.67139 0.3975,-0.0235 0.7238,0.67215 0.6661,0.98816 -0.3511,1.92 -1.0961,1.00427 -1.1358,1.0066 -0.3974,0.0235 z m -874.32274,-0.32069 c 0.79611,-0.15308 1.94811,-0.14727 2.56,0.0129 0.6119,0.16019 -0.0395,0.28544 -1.44746,0.27833 -1.408,-0.007 -1.90864,-0.13816 -1.11254,-0.29125 z m 438.40001,0 c 0.7961,-0.15308 1.9481,-0.14727 2.56,0.0129 0.61189,0.16019 -0.0395,0.28544 -1.44746,0.27833 -1.408,-0.007 -1.90865,-0.13816 -1.11254,-0.29125 z M 1276,982.58834 c 0.792,-0.15254 2.088,-0.15254 2.88,0 0.792,0.15255 0.144,0.27736 -1.44,0.27736 -1.584,0 -2.232,-0.12481 -1.44,-0.27736 z m -840.88163,-2.58833 c -0.79608,-1.01508 -0.77344,-1.03771 0.24163,-0.24164 1.06608,0.83608 1.40511,1.36164 0.87837,1.36164 -0.1329,0 -0.6369,-0.504 -1.12,-1.12 z m 833.92003,0 c -0.7961,-1.01508 -0.7735,-1.03771 0.2416,-0.24164 0.616,0.48311 1.12,0.98711 1.12,1.12 0,0.52675 -0.5255,0.18772 -1.3616,-0.87836 z m -861.7392,-2.88 -1.2192,-1.44 1.44,1.21919 c 1.35325,1.14574 1.73136,1.66081 1.2192,1.66081 -0.12145,0 -0.76945,-0.648 -1.44,-1.44 z m 699.91,-0.10514 c 0.4144,-0.41448 0.8472,-0.41448 1.2617,0 0.4144,0.41447 0.1981,0.63085 -0.6309,0.63085 -0.8289,0 -1.0453,-0.21638 -0.6308,-0.63085 z m 152.4593,-1.01486 c 0,-1.232 0.1317,-1.736 0.2927,-1.12 0.161,0.616 0.161,1.624 0,2.24 -0.161,0.616 -0.2927,0.112 -0.2927,-1.12 z M 239.52,968.48706 c 2.024,-0.12701 5.336,-0.12701 7.36,0 2.024,0.12701 0.368,0.23092 -3.68,0.23092 -4.048,0 -5.704,-0.10391 -3.68,-0.23092 z m 438.40001,0 c 2.024,-0.12701 5.336,-0.12701 7.36,0 2.024,0.12701 0.368,0.23092 -3.68,0.23092 -4.048,0 -5.704,-0.10391 -3.68,-0.23092 z m 601.59999,0 c 2.024,-0.12701 5.336,-0.12701 7.36,0 2.024,0.12701 0.368,0.23092 -3.68,0.23092 -4.048,0 -5.704,-0.10391 -3.68,-0.23092 z m -883.85151,-2.08705 c 0,-1.232 0.1317,-1.736 0.29268,-1.12 0.16098,0.616 0.16098,1.624 0,2.24 -0.16098,0.616 -0.29268,0.112 -0.29268,-1.12 z m 866.41151,1.67836 c 0,-0.1329 0.504,-0.6369 1.12,-1.12 1.0151,-0.79607 1.0377,-0.77344 0.2416,0.24164 -0.836,1.06608 -1.3616,1.40511 -1.3616,0.87836 z m -426.18947,-3.97169 c 0.0307,-0.74557 0.18237,-0.89722 0.38667,-0.38667 0.18488,0.462 0.16214,1.014 -0.0505,1.22667 -0.21267,0.21266 -0.36393,-0.16534 -0.33615,-0.84 z M 1082.88,954.56001 c 0.8267,-0.88 1.6471,-1.6 1.8231,-1.6 0.176,0 -0.3564,0.72 -1.1831,1.6 -0.8267,0.88 -1.6471,1.6 -1.8231,1.6 -0.176,0 0.3564,-0.72 1.1831,-1.6 z m 204.1116,-0.8 -1.5516,-1.76 1.76,1.55156 c 1.645,1.45017 2.0535,1.96844 1.5516,1.96844 -0.1147,0 -0.9067,-0.792 -1.76,-1.76 z m -885.0716,-3.68 c 0.82672,-0.88 1.64713,-1.6 1.82313,-1.6 0.176,0 -0.35641,0.72 -1.18313,1.6 -0.82671,0.88 -1.64712,1.6 -1.82312,1.6 -0.176,0 0.35641,-0.72 1.18312,-1.6 z m 359.88486,-2.24 c 0,-2.288 0.11615,-3.224 0.25812,-2.08 0.14197,1.144 0.14197,3.016 0,4.16 -0.14197,1.144 -0.25812,0.208 -0.25812,-2.08 z m 346.62674,2.08 -1.5516,-1.76 1.76,1.55156 c 0.968,0.85336 1.76,1.64536 1.76,1.76 0,0.50194 -0.5183,0.0934 -1.9684,-1.55156 z m -871.14414,0.66735 c 0.79611,-0.15308 1.94811,-0.14727 2.56,0.0129 0.6119,0.16019 -0.0395,0.28544 -1.44746,0.27833 -1.408,-0.007 -1.90864,-0.13816 -1.11254,-0.29125 z m 368.67255,0.0155 c 0.462,-0.18488 1.014,-0.16214 1.22666,0.0505 0.21267,0.21267 -0.16533,0.36393 -0.84,0.33614 -0.74556,-0.0307 -0.89721,-0.18236 -0.38666,-0.38666 z m 15.73919,-1.00281 -1.21919,-1.44 1.44,1.21919 c 1.35324,1.14574 1.73135,1.66081 1.21919,1.66081 -0.12145,0 -0.76945,-0.648 -1.44,-1.44 z m 53.98827,0.98735 c 0.7961,-0.15308 1.9481,-0.14727 2.56,0.0129 0.61189,0.16019 -0.0395,0.28544 -1.44746,0.27833 -1.408,-0.007 -1.90865,-0.13816 -1.11254,-0.29125 z m 69.91254,-2.71541 v -3.16806 l -3.52321,-0.24455 -3.5232,-0.24455 3.6832,0.0526 3.68321,0.0526 0.33776,3.36 c 0.18578,1.848 0.11378,3.36 -0.16,3.36 -0.27377,0 -0.49776,-1.42563 -0.49776,-3.16806 z m 75.4,2.73087 c 0.462,-0.18488 1.014,-0.16214 1.22667,0.0505 0.21266,0.21267 -0.16534,0.36393 -0.84,0.33614 -0.74557,-0.0307 -0.89722,-0.18236 -0.38667,-0.38666 z m 16.67836,-0.68281 c -0.79607,-1.01508 -0.77344,-1.03771 0.24164,-0.24164 1.06608,0.83608 1.40511,1.36164 0.87836,1.36164 -0.1329,0 -0.6369,-0.504 -1.12,-1.12 z m 173.36163,0.65703 c 1.144,-0.14197 3.016,-0.14197 4.16,0 1.144,0.14197 0.208,0.25812 -2.08,0.25812 -2.288,0 -3.224,-0.11615 -2.08,-0.25812 z m 16.64,-0.009 c 1.848,-0.12928 4.872,-0.12928 6.72,0 1.848,0.12929 0.336,0.23506 -3.36,0.23506 -3.696,0 -5.208,-0.10577 -3.36,-0.23506 z m 48.8,0.2302 c 0,-0.1329 0.504,-0.6369 1.12,-1.12 1.0151,-0.79607 1.0377,-0.77344 0.2416,0.24164 -0.836,1.06608 -1.3616,1.40511 -1.3616,0.87836 z m 200.8075,-0.21101 c 0.7961,-0.15308 1.9481,-0.14727 2.56,0.0129 0.6119,0.16019 -0.04,0.28544 -1.4475,0.27833 -1.408,-0.007 -1.9086,-0.13816 -1.1125,-0.29125 z m -336.16749,-1.46735 c 0.63711,-0.704 1.30238,-1.28 1.47838,-1.28 0.176,0 -0.20127,0.576 -0.83838,1.28 -0.63711,0.704 -1.30238,1.28 -1.47838,1.28 -0.176,0 0.20127,-0.576 0.83838,-1.28 z m -453.76001,-0.64 c 0.63712,-0.704 1.30239,-1.28 1.47839,-1.28 0.176,0 -0.20127,0.576 -0.83839,1.28 -0.63711,0.704 -1.30238,1.28 -1.47838,1.28 -0.176,0 0.20127,-0.576 0.83838,-1.28 z m -8.16,-4.30297 c 1.144,-0.14197 3.016,-0.14197 4.16,0 1.144,0.14197 0.208,0.25812 -2.08,0.25812 -2.288,0 -3.224,-0.11615 -2.08,-0.25812 z m 321.28001,0 c 1.144,-0.14197 3.016,-0.14197 4.16,0 1.144,0.14197 0.208,0.25812 -2.08,0.25812 -2.288,0 -3.224,-0.11615 -2.08,-0.25812 z m 210.55999,0 c 1.144,-0.14197 3.016,-0.14197 4.16,0 1.144,0.14197 0.208,0.25812 -2.08,0.25812 -2.288,0 -3.224,-0.11615 -2.08,-0.25812 z m 16.64,-0.009 c 1.848,-0.12928 4.872,-0.12928 6.72,0 1.848,0.12929 0.336,0.23506 -3.36,0.23506 -3.696,0 -5.208,-0.10577 -3.36,-0.23506 z m 187.52,0.009 c 1.144,-0.14197 3.016,-0.14197 4.16,0 1.144,0.14197 0.208,0.25812 -2.08,0.25812 -2.288,0 -3.224,-0.11615 -2.08,-0.25812 z m -196.48,-9.6 c 1.144,-0.14197 3.016,-0.14197 4.16,0 1.144,0.14197 0.208,0.25812 -2.08,0.25812 -2.288,0 -3.224,-0.11615 -2.08,-0.25812 z m 198.56,-3.05703 c 1.912,-1.936 3.6203,-3.52 3.7963,-3.52 0.176,0 -1.2443,1.584 -3.1563,3.52 -1.9119,1.936 -3.6203,3.52 -3.7963,3.52 -0.176,0 1.2444,-1.584 3.1563,-3.52 z m -335.99999,-3.76164 c 0,-0.1329 0.504,-0.6369 1.12,-1.12 1.01507,-0.79607 1.03771,-0.77344 0.24163,0.24164 -0.83607,1.06608 -1.36163,1.40511 -1.36163,0.87836 z M 142.39036,804.48001 c 0,-44.88 0.0763,-63.24 0.16956,-40.8 0.0932,22.44 0.0932,59.16 0,81.6 -0.0933,22.44 -0.16956,4.08 -0.16956,-40.8 z m 177.91191,38.72 c 7e-5,-23.584 0.0799,-33.13901 0.1775,-21.23335 0.0976,11.90565 0.0975,31.20165 -1.2e-4,42.88 -0.0976,11.67834 -0.17744,1.93735 -0.17738,-21.64665 z m 108.80809,-38.72 c 0,-44.88 0.0763,-63.24 0.16956,-40.8 0.0933,22.44 0.0933,59.16 0,81.6 -0.0933,22.44 -0.16956,4.08 -0.16956,-40.8 z M 217.76,865.44207 l 49.12,-0.17001 v -13.11005 -13.11005 l -31.84,-0.16598 -31.84,-0.16597 -0.0233,-11.04059 -0.0234,-11.04058 0.19844,10.87462 0.19845,10.87462 31.82491,0.16596 31.82491,0.16597 v 13.44 13.44 l -49.28,0.006 -49.28,0.006 z m 163.52,1.7e-4 c 3.96,-0.11228 10.44,-0.11228 14.4,0 3.96,0.11229 0.72,0.20416 -7.2,0.20416 -7.92,0 -11.16,-0.0919 -7.2,-0.20416 z m 208.41252,-8.80223 c 0.001,-4.928 0.10146,-6.8594 0.22326,-4.292 0.12179,2.5674 0.12097,6.5994 -0.002,8.96 -0.12279,2.3606 -0.22244,0.26 -0.22144,-4.668 z m 192.69478,-52.16 c 0,-33.616 0.0777,-47.368 0.17256,-30.56 0.0949,16.808 0.0949,44.312 0,61.12 -0.0949,16.808 -0.17256,3.056 -0.17256,-30.56 z m 64.81271,60.37614 c 0.44,-0.17754 1.16,-0.17754 1.6,0 0.44,0.17754 0.08,0.32281 -0.8,0.32281 -0.88,0 -1.24,-0.14527 -0.8,-0.32281 z m -475.44164,-1.97614 c -0.79608,-1.01508 -0.77344,-1.03771 0.24163,-0.24164 1.06608,0.83608 1.40511,1.36164 0.87837,1.36164 -0.1329,0 -0.6369,-0.504 -1.12,-1.12 z m -3.2,-3.84 c -0.79608,-1.01508 -0.77344,-1.03771 0.24163,-0.24164 1.06608,0.83608 1.40511,1.36164 0.87837,1.36164 -0.1329,0 -0.6369,-0.504 -1.12,-1.12 z m -3.2,-3.84 c -0.79608,-1.01508 -0.77344,-1.03771 0.24163,-0.24164 1.06608,0.83608 1.40511,1.36164 0.87837,1.36164 -0.1329,0 -0.6369,-0.504 -1.12,-1.12 z m 255.7356,-31.84 c 1.5e-4,-15.488 0.0836,-21.73243 0.18551,-13.8765 0.10189,7.85593 0.10177,20.52793 -2.6e-4,28.16 -0.10203,7.63207 -0.18539,1.2045 -0.18525,-14.2835 z m 265.30604,27.59836 c 0,-0.1329 0.504,-0.6369 1.12,-1.12 1.01507,-0.79607 1.03771,-0.77344 0.24163,0.24164 -0.83607,1.06608 -1.36163,1.40511 -1.36163,0.87836 z M 353.19837,840.48001 c -0.79608,-1.01508 -0.77344,-1.03771 0.24163,-0.24164 0.616,0.4831 1.12,0.9871 1.12,1.12 0,0.52675 -0.52556,0.18772 -1.36163,-0.87836 z m 468.68927,-2.55605 c 3.06219,-0.11706 8.24619,-0.11761 11.52,-10e-4 3.2738,0.11639 0.76837,0.21216 -5.56763,0.21283 -6.336,6.8e-4 -9.01457,-0.0946 -5.95237,-0.21161 z m -471.88927,-1.28395 c -0.79608,-1.01508 -0.77344,-1.03771 0.24163,-0.24164 1.06608,0.83608 1.40511,1.36164 0.87837,1.36164 -0.1329,0 -0.6369,-0.504 -1.12,-1.12 z m 731.79093,-3.83625 c 2.7441,-0.12025 7.0641,-0.11952 9.6,0.002 2.5359,0.12116 0.2907,0.21955 -4.9893,0.21866 -5.28,-9e-4 -7.3548,-0.10003 -4.6107,-0.22029 z m 55.4907,-11.28539 c 0,-0.1329 0.504,-0.6369 1.12,-1.12 1.0151,-0.79607 1.0377,-0.77344 0.2416,0.24164 -0.836,1.06608 -1.3616,1.4051 -1.3616,0.87836 z m -802.64163,-3.43836 c -0.79608,-1.01508 -0.77344,-1.03771 0.24163,-0.24164 0.616,0.4831 1.12,0.9871 1.12,1.12 0,0.52674 -0.52556,0.18772 -1.36163,-0.87836 z M 1141.76,817.03837 c 0,-0.1329 0.504,-0.6369 1.12,-1.12 1.0151,-0.79607 1.0377,-0.77344 0.2416,0.24164 -0.836,1.06608 -1.3616,1.4051 -1.3616,0.87836 z M 257.5509,803.52001 c 5.2e-4,-7.392 0.0937,-10.32835 0.20703,-6.52522 0.11335,3.80313 0.11292,9.85113 -9.5e-4,13.44 -0.11386,3.58887 -0.2066,0.47722 -0.20608,-6.91478 z m 73.88747,10.72 c -0.79608,-1.01508 -0.77344,-1.03771 0.24163,-0.24164 1.06608,0.83608 1.40511,1.36164 0.87837,1.36164 -0.1329,0 -0.6369,-0.504 -1.12,-1.12 z m 34.56,-8.96 c -0.79608,-1.01508 -0.77344,-1.03771 0.24163,-0.24164 1.06608,0.83608 1.40511,1.36164 0.87837,1.36164 -0.1329,0 -0.6369,-0.504 -1.12,-1.12 z m -3.2,-3.84 c -0.79608,-1.01508 -0.77344,-1.03771 0.24163,-0.24164 1.06608,0.83608 1.40511,1.36164 0.87837,1.36164 -0.1329,0 -0.6369,-0.504 -1.12,-1.12 z m 544.13217,-5.01334 c 0.0307,-0.74556 0.18236,-0.89721 0.38666,-0.38666 0.18488,0.462 0.16214,1.014 -0.0505,1.22666 -0.21267,0.21267 -0.36393,-0.16533 -0.33614,-0.84 z m -703.79,-16.26666 c 0,-5.808 0.097,-8.184 0.21561,-5.28 0.11859,2.904 0.11859,7.656 0,10.56 -0.11858,2.904 -0.21561,0.528 -0.21561,-5.28 z m 147.49783,6.56 c -0.79608,-1.01508 -0.77344,-1.03771 0.24163,-0.24164 0.616,0.4831 1.12,0.9871 1.12,1.12 0,0.52674 -0.52556,0.18772 -1.36163,-0.87836 z m -3.2,-3.84 c -0.79608,-1.01508 -0.77344,-1.03771 0.24163,-0.24164 0.616,0.4831 1.12,0.9871 1.12,1.12 0,0.52674 -0.52556,0.18772 -1.36163,-0.87836 z m -3.2,-3.84 c -0.79608,-1.01508 -0.77344,-1.03771 0.24163,-0.24164 1.06608,0.83608 1.40511,1.36164 0.87837,1.36164 -0.1329,0 -0.6369,-0.504 -1.12,-1.12 z m 768.34083,-2.88 -1.2192,-1.44 1.44,1.21919 c 1.3533,1.14574 1.7314,1.66081 1.2192,1.66081 -0.1214,0 -0.7694,-0.648 -1.44,-1.44 z m -14.4992,-5.38386 c 0.44,-0.17755 1.16,-0.17755 1.6,0 0.44,0.17754 0.08,0.32281 -0.8,0.32281 -0.88,0 -1.24,-0.14527 -0.8,-0.32281 z m -107.53296,-0.69303 30.22706,-0.17551 0.1934,-13.2738 0.1934,-13.2738 -0.02,13.44 -0.02,13.44 -30.39999,0.009 -30.4,0.009 z m -97.18867,-5.12311 c -0.79607,-1.01508 -0.77344,-1.03771 0.24164,-0.24164 0.616,0.4831 1.12,0.9871 1.12,1.12 0,0.52674 -0.52556,0.18772 -1.36164,-0.87836 z m -561.28,-0.64 c -0.79608,-1.01508 -0.77344,-1.03771 0.24163,-0.24164 1.06608,0.83608 1.40511,1.36164 0.87837,1.36164 -0.1329,0 -0.6369,-0.504 -1.12,-1.12 z m -3.2,-3.84 c -0.79608,-1.01508 -0.77344,-1.03771 0.24163,-0.24164 0.616,0.4831 1.12,0.9871 1.12,1.12 0,0.52674 -0.52556,0.18772 -1.36163,-0.87836 z m 559.36,-0.64 c -0.79607,-1.01508 -0.77344,-1.03771 0.24164,-0.24164 0.616,0.4831 1.12,0.9871 1.12,1.12 0,0.52674 -0.52556,0.18772 -1.36164,-0.87836 z m 251.88133,-1.6 -1.8797,-2.08 2.08,1.87974 c 1.144,1.03385 2.08,1.96985 2.08,2.08 0,0.49443 -0.5281,0.0591 -2.2803,-1.87974 z M 844.97219,743.87649 c 0.6227,-0.16226 1.4867,-0.15159 1.92,0.0237 0.4333,0.17531 -0.0762,0.30807 -1.13218,0.29503 -1.056,-0.013 -1.41052,-0.15648 -0.78782,-0.31875 z m 258.22781,0.0197 c 0.44,-0.17755 1.16,-0.17755 1.6,0 0.44,0.17754 0.08,0.3228 -0.8,0.3228 -0.88,0 -1.24,-0.14526 -0.8,-0.3228 z m -960.80585,-99.09614 0.006,-49.92 67.68002,-0.004 67.68002,-0.004 -67.51612,0.16732 -67.51612,0.16733 -0.16975,49.75708 -0.16975,49.75708 z"
           id="path3" />
        <path
           style="fill:#272728"
           d="m 798.72001,974.40001 v -29.76 h 3.84 3.84 v 3.24923 3.24923 l 2.07281,-2.07281 c 3.47638,-3.47638 7.02445,-4.70621 13.60719,-4.71651 4.96787,-0.008 6.28809,0.23625 9.6,1.77437 4.98558,2.31542 8.10629,5.418 10.33581,10.27578 1.56906,3.41873 1.80018,4.69914 1.80521,10.00071 0.005,5.20957 -0.23161,6.58811 -1.65234,9.6292 -2.36376,5.05967 -5.1758,7.9581 -10.04794,10.35665 -3.79282,1.8672 -4.83633,2.09206 -9.70525,2.09137 -6.21652,-8.8e-4 -10.32519,-1.46195 -13.93549,-4.95555 l -2.08,-2.01276 v 11.32554 11.32554 h -3.84 -3.84 z m 28.66055,6.36605 c 3.03981,-1.2698 5.6573,-3.76132 7.36027,-7.00605 1.8151,-3.4584 1.93136,-11.15837 0.21741,-14.4 -2.96609,-5.60983 -7.53473,-8.48113 -13.48955,-8.4779 -4.75459,0.003 -7.75499,1.20055 -10.76232,4.29709 -7.18818,7.40144 -5.12084,20.44712 4.01364,25.32746 2.82467,1.50916 9.34873,1.64283 12.66055,0.2594 z m -596.52136,7.37603 c -8.73468,-2.20358 -12.93872,-10.02889 -9.47972,-17.6454 2.45534,-5.40651 7.744,-7.29668 20.41593,-7.29668 h 8.6031 l -0.29232,-3.52492 c -0.30993,-3.73734 -1.79391,-6.01716 -4.98619,-7.66021 -4.31903,-2.22298 -11.48806,-1.65655 -17.50364,1.38299 -1.707,0.86251 -3.16696,1.47683 -3.24437,1.36517 -0.0774,-0.11167 -0.78543,-1.32773 -1.57339,-2.70237 -1.62812,-2.84035 -1.68406,-2.75695 3.50912,-5.23238 4.41867,-2.10624 9.87799,-3.03965 15.39937,-2.63291 5.39289,0.39728 9.34,1.99035 12.18411,4.91757 3.62135,3.72716 4.0288,6.10194 4.0288,23.48107 v 15.56599 h -3.52 -3.52 v -2.61689 -2.61689 l -1.99726,1.68058 c -1.09849,0.92432 -3.04249,2.12392 -4.32,2.66577 -2.85861,1.21248 -10.43778,1.69339 -13.70354,0.86951 z m 11.51348,-6.06574 c 2.25742,-0.67038 3.94836,-1.74221 5.55616,-3.52184 2.12511,-2.35225 2.31116,-2.87389 2.31116,-6.47983 v -3.92165 l -8.48,0.29099 c -5.12159,0.17575 -9.11366,0.61868 -10.08,1.1184 -4.17827,2.1607 -5.12853,6.89528 -2.07079,10.31748 2.70506,3.02749 7.3015,3.81848 12.76347,2.19645 z m 171.15164,6.03399 c -6.58277,-1.29368 -12.50213,-5.80959 -15.45455,-11.79033 -1.37469,-2.78472 -1.58035,-4.07209 -1.58473,-9.92 -0.005,-6.07029 0.16824,-7.07286 1.7872,-10.36967 3.53254,-7.19361 11.43181,-12.03033 19.64776,-12.03033 4.57672,0 10.83401,2.17002 13.95128,4.8383 4.65392,3.98358 7.77101,11.06679 7.79873,17.7217 l 0.01,2.4 h -18 -18 l 0.40583,2.08 c 0.66074,3.38659 3.62073,6.97977 7.35819,8.93225 6.02475,3.14736 15.06102,2.30452 19.35149,-1.80499 l 1.6755,-1.60483 2.07028,2.61394 c 2.40063,3.03104 2.20353,3.54435 -2.3959,6.23979 -5.07549,2.97444 -12.05592,3.98439 -18.62107,2.69417 z m 18.23437,-26.91692 c -0.87351,-4.36753 -4.72066,-8.53375 -9.29419,-10.06502 -6.66706,-2.23222 -14.61524,1.06623 -17.4131,7.22634 -2.31447,5.09582 -2.98405,4.84527 12.9486,4.84527 h 14.16 z m 169.42855,26.98121 c -6.51368,-1.38711 -13.06498,-6.6436 -15.69762,-12.59511 -2.95075,-6.67067 -2.07604,-15.89916 2.10533,-22.21188 7.15195,-10.79746 25.92008,-12.5054 34.5491,-3.14403 l 2.65341,2.87862 -2.94267,1.91418 -2.94266,1.91418 -2.07672,-2.07672 c -2.75267,-2.75266 -5.79711,-3.94774 -10.09854,-3.96412 -4.72912,-0.018 -8.47553,1.6243 -11.47268,5.02925 -5.09982,5.79369 -5.18495,14.93894 -0.19335,20.77049 3.02995,3.53982 6.44524,5.03877 11.52095,5.05646 4.48198,0.0156 6.98822,-0.96774 10.17746,-3.99333 l 2.04925,-1.94409 3.00333,1.95364 3.00333,1.95364 -3.15509,3.15509 c -2.031,2.031 -4.28717,3.54739 -6.33258,4.25616 -3.82925,1.32692 -10.5144,1.82183 -14.15025,1.04757 z m 68.07197,-0.0325 c -8.73469,-2.20358 -12.93872,-10.02889 -9.47973,-17.6454 2.45535,-5.40651 7.74401,-7.29668 20.41594,-7.29668 h 8.60309 l -0.29231,-3.52492 c -0.30993,-3.73734 -1.79391,-6.01716 -4.98619,-7.66021 -4.36801,-2.24819 -11.73071,-1.64326 -17.44321,1.43316 -1.67376,0.90139 -3.13373,1.52033 -3.24437,1.37543 -0.11064,-0.1449 -0.84586,-1.38816 -1.63382,-2.7628 -1.62813,-2.84035 -1.68406,-2.75695 3.50912,-5.23238 4.41867,-2.10624 9.87799,-3.03965 15.39936,-2.63291 5.3929,0.39728 9.34,1.99035 12.18412,4.91757 3.62134,3.72716 4.0288,6.10194 4.0288,23.48107 v 15.56599 h -3.52 -3.52 v -2.61689 -2.61689 l -1.99727,1.68058 c -1.09849,0.92432 -3.04249,2.12392 -4.32,2.66577 -2.8586,1.21248 -10.43778,1.69339 -13.70353,0.86951 z m 11.51347,-6.06574 c 2.25743,-0.67038 3.94837,-1.74221 5.55616,-3.52184 2.12511,-2.35225 2.31117,-2.87389 2.31117,-6.47983 v -3.92165 l -8.48,0.29099 c -5.1216,0.17575 -9.11366,0.61868 -10.08,1.1184 -5.82934,3.01451 -4.7228,10.9856 1.76424,12.70887 3.48358,0.92541 5.28852,0.886 8.92843,-0.19494 z m 344.34122,5.8089 c -2.6683,-0.95216 -4.1559,-1.97933 -5.5939,-3.8624 -2.1638,-2.83356 -2.4626,-5.13994 -2.5113,-19.38284 l -0.049,-14.24 h -3.84 -3.84 v -2.88 -2.88 h 3.84 3.84 v -4.8 -4.8 h 3.84 3.84 v 4.8 4.8 h 6.4 6.4 v 2.88 2.88 h -6.4 -6.4 v 13.7109 13.71089 l 1.6386,1.94734 c 2.472,2.93778 5.2915,3.21982 10.5974,1.06009 0.7832,-0.31878 1.2966,0.22954 2.1037,2.24667 1.01,2.52429 1.0059,2.71403 -0.076,3.51404 -2.874,2.12509 -9.6743,2.76386 -13.7898,1.29531 z m 63.2061,0.055 c -7.1619,-1.86862 -12.1087,-5.79764 -14.9633,-11.88487 -1.4404,-3.07139 -1.6767,-4.43236 -1.6767,-9.65535 0,-5.32492 0.225,-6.56691 1.8118,-10.00071 2.245,-4.85812 5.3634,-7.95774 10.3482,-10.28584 3.313,-1.54731 4.6305,-1.79345 9.6,-1.79345 5.0132,0 6.2332,0.23236 9.4097,1.79223 4.4573,2.18883 8.9709,7.03469 10.4055,11.17148 0.5791,1.66996 1.2234,4.98029 1.4317,7.35629 l 0.3788,4.32 h -18.0129 c -13.9911,0 -18.0097,0.17862 -17.9987,0.8 0.03,1.70555 2.4897,6.01496 4.5478,7.96756 3.0811,2.92331 6.2101,4.03244 11.3759,4.03244 4.9515,0 6.9198,-0.56552 10.4698,-3.00808 2.3673,-1.6288 2.4299,-1.63636 3.7393,-0.45139 2.4525,2.21947 2.7439,3.43001 1.217,5.0553 -3.8821,4.13229 -14.9837,6.43688 -22.0839,4.58439 z m 18.88,-26.052 c 0,-0.72148 -0.4642,-2.23348 -1.0316,-3.36 -5.6961,-11.30888 -22.4413,-10.41625 -26.4,1.40728 -0.4006,1.19653 -0.7284,2.42053 -0.7284,2.72 0,0.29948 6.336,0.5445 14.08,0.5445 13.7671,0 14.08,-0.0292 14.08,-1.31178 z m 162.7675,26.03208 c -4.1991,-1.37828 -6.8523,-3.31654 -8.463,-6.18239 -1.2372,-2.2013 -1.4429,-3.33344 -1.2257,-6.74473 0.2875,-4.51567 1.4619,-6.66845 4.9235,-9.02516 2.9958,-2.03965 7.4246,-2.76802 16.8306,-2.76802 h 8.37 l -0.3121,-3.24767 c -0.3551,-3.69526 -1.8746,-6.09212 -5.0377,-7.946 -4.1444,-2.4291 -14.204,-1.27613 -19.0649,2.18511 l -1.7672,1.25838 -1.4448,-2.97379 c -1.3931,-2.86749 -1.4028,-3.00578 -0.2705,-3.86847 2.0238,-1.54188 6.3901,-3.22123 10.2121,-3.92777 12.2997,-2.27372 21.671,1.66309 24.1767,10.15637 0.812,2.75238 1.0255,6.58351 1.0255,18.4 v 14.92384 h -3.52 -3.52 v -2.56 c 0,-2.89328 -0.5388,-3.17126 -2.3008,-1.18708 -3.0978,3.48836 -12.9902,5.35258 -18.6117,3.50738 z m 11.6325,-5.58672 c 3.1962,-0.87305 6.4254,-3.26736 7.6807,-5.69488 0.5276,-1.02033 0.9593,-3.30944 0.9593,-5.08692 v -3.23178 l -6.56,0.0279 c -3.608,0.0153 -7.8151,0.27036 -9.3492,0.56673 -5.2937,1.02269 -7.6514,4.18626 -6.4263,8.62305 0.7042,2.55046 1.6393,3.4278 4.8894,4.58759 2.9677,1.05898 5.4748,1.1183 8.8061,0.20834 z m -1118.55265,-19.61358 -0.16735,-25.44 -9.76,-0.17667 -9.76,-0.17667 v -3.18333 -3.18333 h 23.68 23.68 v 3.2 3.2 h -9.92 -9.92 v 25.6 25.6 h -3.83265 -3.83266 z m 137.11265,-5.28 v -30.72 h 3.84 3.84 v 30.72 30.72 H 304 300.16 Z m 49.92,0 v -30.72 h 3.84 3.84 v 30.72 30.72 h -3.84 -3.84 z m 127.36,8.96 v -21.76 h 3.84 3.84 v 3.32989 3.32988 l 2.4,-2.33863 c 2.82695,-2.75467 5.74648,-4.08424 10.29259,-4.6873 l 3.30742,-0.43874 v 3.92245 3.92245 h -2.99794 c -6.30529,0 -11.09493,4.1984 -12.35208,10.82734 -0.35749,1.88505 -0.64999,8.42806 -0.64999,14.54001 v 11.11265 h -3.84 -3.84 z m 261.12001,0 v -21.76 h 3.52 3.52 v 3.2 c 0,1.76 0.16259,3.2 0.36132,3.2 0.19872,0 1.05607,-0.82568 1.90523,-1.83483 1.81354,-2.15529 6.74026,-4.42063 10.83452,-4.98181 l 2.89893,-0.39734 v 3.92699 3.92699 h -2.9055 c -5.26689,0 -9.93292,3.53968 -11.72612,8.8955 -0.44699,1.33505 -0.72838,7.0836 -0.72838,14.88 v 12.7045 h -3.84 -3.84 z m 144,0 v -21.76 h 3.84 3.84 v 21.76 21.76 h -3.84 -3.84 z m 49.92,0 v -21.76 h 3.52 3.52 v 2.88 c 0,3.28654 0.45379,3.52196 2.52965,1.31231 2.99388,-3.18684 6.83557,-4.46125 13.47035,-4.46851 5.37181,-0.006 6.46675,0.1951 9.40031,1.72544 1.82618,0.95266 4.05253,2.69208 4.94745,3.86538 3.23494,4.24123 3.57224,6.40593 3.57224,22.92584 v 15.27954 h -3.52 -3.52 l -0.004,-11.68 c -0.005,-16.93465 -0.77594,-20.37589 -5.32273,-23.77056 -2.12258,-1.58474 -8.84905,-2.15963 -12.22651,-1.04497 -3.20926,1.05915 -6.09119,3.64265 -7.48407,6.70905 -1.02014,2.24584 -1.17672,4.37758 -1.18892,16.18648 l -0.0141,13.6 h -3.84 -3.84 z m 220.79999,0 v -21.76 h 3.52 3.52 v 3.27447 3.27447 l 2.6307,-2.37666 c 3.134,-2.83137 5.609,-3.94775 10.0619,-4.53844 l 3.3074,-0.43874 v 3.92245 3.92245 h -2.8383 c -5.2135,0 -9.0598,2.50334 -11.3083,7.36 -1.0317,2.22819 -1.1871,4.28124 -1.1993,15.84 l -0.014,13.28 h -3.84 -3.84 z m 60.16,0 v -21.76 h 3.84 3.84 v 21.76 21.76 h -3.84 -3.84 z m 3.2698,-33.89052 5.3702,-5.09052 4.768,-0.0295 c 2.6895,-0.0166 4.503,0.2094 4.16,0.51852 -0.3344,0.3014 -3.2439,2.6054 -6.4657,5.12 -5.7111,4.45763 -5.9495,4.572 -9.5302,4.572 h -3.6725 z m -333.30424,2.40973 c -3.17806,-1.53647 -3.23592,-6.26063 -0.10354,-8.45463 4.09094,-2.8654 9.50794,1.35611 7.61238,5.9324 -1.18744,2.86673 -4.4969,3.97838 -7.50884,2.52223 z M 142.72,804.48001 v -81.28 h 112.96 112.96 v 42.368 c 0,23.99573 -0.24093,42.10435 -0.55561,41.76 -0.30559,-0.3344 -12.41712,-14.936 -26.91451,-32.448 l -26.35889,-31.84 H 300.4455 286.08 v 71.36 71.36 H 214.4 142.72 Z m 124.48,47.68 v -13.44 l -31.84,-0.16598 -31.84,-0.16597 v -10.87403 -10.87402 h 27.2 27.2 v -13.12 -13.12 h -27.2 -27.2 v -10.24 -10.24 h 30.72 30.72 v -13.44 -13.44 h -48 -48 v 61.44397 61.44398 l 49.12,-0.16398 49.12,-0.16397 z m 53.4471,-8.8 0.007,-42.4 1.53743,1.92 c 0.84558,1.056 12.87645,15.6 26.73525,32.32 l 25.19782,30.4 14.21765,0.17224 14.21765,0.17225 v -71.37225 -71.37224 h 13.12 13.12 v 81.28 81.28 H 374.72 320.64 Z M 480,804.48001 v -60.8 h 13.99568 13.99568 l 21.36432,35.15235 c 18.20662,29.95675 21.48184,35.00042 22.15943,34.12437 0.43731,-0.56539 9.9118,-16.38395 21.05442,-35.15235 l 20.25931,-34.12437 h 13.98559 13.98558 v 50.13778 c 0,27.57578 0.18922,54.93578 0.4205,60.8 l 0.42051,10.66222 h -15.78051 -15.7805 l -0.0892,-5.6 c -0.0491,-3.08 -0.26509,-17.53977 -0.48,-32.13282 l -0.39076,-26.53283 -15.54332,26.07234 -15.54332,26.07233 -7.72837,-0.17951 -7.72837,-0.17951 -15.12831,-24.77478 c -8.32057,-13.62613 -15.34431,-24.78613 -15.60831,-24.8 -0.264,-0.0139 -0.48,13.94278 -0.48,31.01478 v 31.04 h -15.68 H 480 Z m 151.85949,59.68 c 0.18082,-0.616 12.05101,-27.616 26.3782,-60 14.32719,-32.384 26.19565,-59.24 26.37435,-59.68 0.2483,-0.61137 4.27736,-0.8 17.08739,-0.8 h 16.76247 l 26.92991,60.8 26.9299,60.8 h -17.7524 -17.7524 l -4.72845,-11.83028 -4.72845,-11.83028 -25.92,-0.003 -25.92,-0.003 -4.70069,11.83359 -4.70068,11.83359 h -17.29396 c -16.16902,0 -17.27258,-0.0729 -16.96519,-1.12 z m 84.96515,-48 c 0.0399,-0.7781 -15.03415,-38.54733 -15.38463,-38.54733 -0.35048,0 -15.42456,37.76923 -15.38464,38.54733 0.0136,0.264 6.93664,0.48 15.38464,0.48 8.448,0 15.37108,-0.216 15.38463,-0.48 z m 65.89537,-11.73707 v -60.85706 l 34.08,0.30072 c 27.58152,0.24337 35.06001,0.49402 39.21949,1.31448 21.8811,4.31607 37.38103,15.24751 45.51378,32.09893 3.84955,7.97644 5.34963,14.28759 5.78056,24.32 1.48571,34.58868 -20.51588,58.93121 -56.93437,62.99211 -3.5456,0.39536 -19.24363,0.68789 -36.91424,0.68789 h -30.74522 z m 65.28,32.68395 c 12.13756,-2.69614 21.23265,-11.45431 23.97454,-23.08645 0.5316,-2.25524 0.96654,-6.54843 0.96654,-9.54043 0,-13.69557 -5.76861,-23.96169 -16.51145,-29.38466 -6.54334,-3.30307 -10.35314,-3.87534 -25.86963,-3.88588 l -13.92,-0.009 v 33.68882 33.68881 l 13.92,-0.34442 c 7.656,-0.18944 15.504,-0.69628 17.44,-1.12633 z m 78.08,-32.62688 v -60.8 h 47.36 47.35999 v 13.12 13.12 h -30.39999 -30.4 v 10.56 10.56 h 26.88 26.87999 v 12.8 12.8 h -26.87999 -26.88 v 11.2 11.2 h 31.68 31.67999 v 13.12 13.12 h -48.63999 -48.64 z m 116.47999,0 v -60.8 h 28.7322 c 38.6651,0 45.4347,0.79796 57.6061,6.79031 4.7773,2.35203 7.0304,3.9699 10.9267,7.84633 8.1793,8.13757 11.5055,15.96512 12.0016,28.24336 0.7184,17.78022 -6.1359,30.53754 -21.097,39.26626 l -2.3905,1.39465 13.0677,19.02954 13.0677,19.02955 -18.3572,-0.0302 -18.3573,-0.0302 -10.9377,-16.12977 -10.9376,-16.12978 -9.3824,-0.17711 -9.3823,-0.17711 v 16.33711 16.33711 h -17.28 -17.28 z m 64.96,0.12841 c 7.3182,-3.36542 10.2936,-8.67552 9.7849,-17.46287 -0.3732,-6.44721 -2.4933,-10.19946 -7.4386,-13.16519 -4.4883,-2.69171 -9.1918,-3.42035 -22.0787,-3.42035 H 1077.12 v 17.96553 17.96553 l 13.6,-0.20553 c 12.5941,-0.19033 13.8367,-0.31437 16.8,-1.67712 z m 49.8888,59.55159 c 0.2342,-0.616 12.2754,-27.976 26.7583,-60.8 l 26.3325,-59.68 h 16.7275 16.7275 l 0.8074,1.76 c 0.4441,0.968 12.4736,28.112 26.7322,60.32 14.2586,32.208 26.0545,58.776 26.2131,59.04 0.1585,0.264 -7.743,0.48 -17.5589,0.48 h -17.8472 l -4.704,-11.84709 -4.704,-11.84708 -25.9242,0.16708 -25.9241,0.16709 -3.0759,7.68 c -1.6918,4.224 -3.8313,9.48 -4.7545,11.68 l -1.6785,4 h -17.2765 c -16.1893,0 -17.2496,-0.0705 -16.8507,-1.12 z m 84.6326,-49.6 c -0.4707,-1.144 -3.9859,-9.93029 -7.8115,-19.5251 -3.8256,-9.5948 -7.1655,-17.2268 -7.4218,-16.96 -0.4632,0.48208 -14.529,35.30401 -15.1254,37.4451 -0.291,1.04479 0.7465,1.12 15.4513,1.12 h 15.7632 z M 142.72,645.12001 v -49.92 h 67.52 67.52 v 49.92 49.92 h -67.52 -67.52 z"
           id="path2" />
      </g>
    </g>
  </g>
</svg>
