<?xml version="1.0" encoding="utf-8"?>
<!-- Generator: Adobe Illustrator 26.1.0, SVG Export Plug-In . SVG Version: 6.00 Build 0)  -->
<svg version="1.1" id="Capa_2" xmlns="http://www.w3.org/2000/svg" xmlns:xlink="http://www.w3.org/1999/xlink" x="0px" y="0px"
	 viewBox="0 0 195 504" style="enable-background:new 0 0 195 504;" xml:space="preserve">
<style type="text/css">
	.st0{fill:none;}
	.st1{fill:#AC8B66;}
</style>
<g>
	<path class="st0" d="M128.11,226.08c12.57-63.92,53.36-104.58,66.89-116.57v31.18c-6.7,6.13-35.81,35.06-44.4,82.25
		c-4.95,27.2,8.39,45.34,20.45,55.76c9.09,7.86,18.85,12.62,23.95,14.79v25.94c-8.85-3.3-21.07-8.72-32.68-16.77
		C133.56,282.7,122.05,256.94,128.11,226.08z"/>
	<path class="st0" d="M98.05,217.27c12.62-63.3,75.11-120.92,96.95-139.42v29c-12.18,10.53-55.74,52.16-68.85,118.84
		c-6.15,31.28,5.98,58.48,35.07,78.64c12.06,8.36,24.76,13.91,33.77,17.22v36.31c-9.26-4.47-32.08-16.43-53.31-35.08
		C116.58,300.73,88.63,264.52,98.05,217.27z"/>
	<path class="st0" d="M64.16,217.02c10.03-47.44,45.21-91.85,72.95-120.74c25.44-26.5,50.55-45.94,57.9-51.45v30.39
		c-8.38,7-24.02,20.78-40.41,38.88c-22.23,24.56-50.43,62.32-58.5,102.78c-4.25,21.29-1.48,42.17,8.22,62.06
		c7.74,15.87,19.89,31.13,36.1,45.37c22.08,19.39,45.85,31.6,54.59,35.76v42.3c-8.45-7.51-19.2-15.57-30.77-24.24
		C115.36,341.54,48.43,291.4,64.16,217.02z"/>
	<path class="st0" d="M135.69,94.87c-27.93,29.09-63.36,73.82-73.49,121.74c-15.99,75.63,51.53,126.21,100.83,163.14
		c12.17,9.11,23.42,17.55,31.97,25.32v92.46c-1.99-3.25-3.97-6.58-6-9.97c-12.78-21.43-27.27-45.71-54.77-68.96
		c-7.71-6.52-17.04-13.29-26.92-20.46c-52.13-37.82-123.52-89.6-95.22-201.59c17.42-68.97,68.94-117.49,109.1-146.05
		C151.65,28.82,180.36,15.05,195,8.68v33.65C189.66,46.29,162.86,66.57,135.69,94.87z"/>
	<path class="st0" d="M172.09,225.95c5.17-20.35,16.49-40.32,22.91-50.61v92.56C183.57,260.03,167.24,245.05,172.09,225.95z"/>
	<path class="st0" d="M152.57,223.3c7.99-43.97,33.99-71.82,42.43-79.87v28.19c-5.98,9.28-19.13,31.32-24.85,53.85
		c-5.3,20.88,13,36.91,24.85,44.84v21.01c-5.14-2.25-14.21-6.83-22.69-14.17C155.38,262.49,148.74,244.37,152.57,223.3z"/>
	<path class="st1" d="M170.15,225.46c5.72-22.53,18.87-44.57,24.85-53.85v3.73c-6.43,10.29-17.75,30.27-22.91,50.61
		c-4.85,19.1,11.49,34.08,22.91,41.95v2.4C183.15,262.37,164.85,246.34,170.15,225.46z"/>
	<path class="st1" d="M150.6,222.94c8.58-47.2,37.69-76.12,44.4-82.25v2.74c-8.43,8.05-34.43,35.91-42.43,79.87
		c-3.83,21.07,2.81,39.19,19.74,53.85c8.48,7.34,17.55,11.92,22.69,14.17v2.18c-5.1-2.17-14.85-6.93-23.95-14.79
		C158.99,268.28,145.66,250.14,150.6,222.94z"/>
	<path class="st1" d="M126.15,225.69c13.11-66.68,56.67-108.31,68.85-118.84v2.66c-13.52,11.99-54.32,52.65-66.89,116.57
		c-6.07,30.86,5.44,56.63,34.21,76.58c11.61,8.05,23.83,13.47,32.68,16.77v2.13c-9.02-3.32-21.72-8.87-33.77-17.22
		C132.13,284.17,120,256.97,126.15,225.69z"/>
	<path class="st1" d="M104.31,278.95c-9.7-19.89-12.46-40.77-8.22-62.06c8.07-40.46,36.26-78.22,58.5-102.78
		C170.98,96,186.62,82.22,195,75.22v2.63c-21.84,18.5-84.33,76.12-96.95,139.42c-9.42,47.24,18.53,83.45,43.64,105.51
		c21.23,18.65,44.05,30.61,53.31,35.08v2.22c-8.74-4.16-32.52-16.38-54.59-35.76C124.19,310.08,112.05,294.82,104.31,278.95z"/>
	<path class="st1" d="M62.2,216.61c10.13-47.92,45.56-92.65,73.49-121.74c27.18-28.3,53.97-48.58,59.31-52.54v2.49
		c-7.34,5.51-32.45,24.95-57.9,51.45c-27.74,28.9-62.92,73.3-72.95,120.74c-15.73,74.38,51.2,124.51,100.07,161.12
		c11.57,8.67,22.32,16.72,30.77,24.24v2.68c-8.55-7.77-19.8-16.2-31.97-25.32C113.73,342.82,46.21,292.24,62.2,216.61z"/>
	<path class="st1" d="M10.15,196.05c7.76-30.73,22.82-60.03,44.75-87.08c17.52-21.62,39.45-41.85,65.17-60.14
		C151.21,26.69,180.53,12.75,195,6.5v2.18c-14.64,6.37-43.35,20.14-73.82,41.81c-40.15,28.56-91.67,77.08-109.1,146.05
		c-28.29,111.99,43.1,163.78,95.22,201.59c9.88,7.17,19.21,13.93,26.92,20.46c27.5,23.25,41.98,47.54,54.77,68.96
		c2.03,3.4,4.01,6.72,6,9.97v3.8c-2.57-4.13-5.11-8.38-7.72-12.75c-12.7-21.29-27.1-45.43-54.34-68.46
		c-7.66-6.47-16.96-13.22-26.81-20.37C53.55,361.6-18.48,309.35,10.15,196.05z"/>
</g>
</svg>
