<?xml version="1.0" encoding="utf-8"?>
<!-- Generator: Adobe Illustrator 26.1.0, SVG Export Plug-In . SVG Version: 6.00 Build 0)  -->
<svg version="1.1" id="Capa_2" xmlns="http://www.w3.org/2000/svg" xmlns:xlink="http://www.w3.org/1999/xlink" x="0px" y="0px"
	 viewBox="0 0 124 330" style="enable-background:new 0 0 124 330;" xml:space="preserve">
<style type="text/css">
	.st0{fill:none;}
	.st1{fill:#AC8B66;}
</style>
<g>
	<path class="st0" d="M11.09,126.21C7.66,138.95,2.63,145.91,0,148.88l0-47.91C4.18,103.56,14.97,111.83,11.09,126.21z"/>
	<path class="st0" d="M63.93,85.61c16.65,25.12,22.89,45.44,17.57,57.23c-2.73,6.04-8.4,9.7-16.88,10.88
		C42.14,156.84,7.57,170.19,0,173.18l0-13.78c5.27-0.47,28.16-4.21,42.52-34.15c6.81-14.19,1.44-30.18-15.53-46.25
		C15.84,68.44,2.99,61.02,0,59.35l0-21.01C6.94,40.09,40.38,50.08,63.93,85.61z"/>
	<path class="st0" d="M55.81,31.17c26.27,26.98,53.13,58.95,53.13,91.54c0,31.47-14.67,37.75-38.6,45.4
		c-9.01,2.88-16.18,5.04-21.94,6.77c-16.03,4.83-22.03,6.63-29.44,12.45c-9.84,7.73-15.8,16.21-9.31,61.87
		c1.37,9.65,2.55,17.13,3.49,23.13c3.4,21.65,3.61,22.95-1.52,33.46C7.82,313.63,3.57,317.25,0,318.86l0-143.53
		c5.6-2.23,41.78-16.43,64.9-19.64c9.2-1.28,15.4-5.33,18.43-12.04c5.69-12.61-0.44-33.07-17.73-59.15
		C41.14,47.6,6.11,37.76,0,36.29l0-21.3C5.52,13.67,33.64,8.41,55.81,31.17z"/>
	<path class="st0" d="M40.72,124.39C26.91,153.17,5.13,156.91,0,157.4l0-5.64c1.89-1.75,8.69-8.92,13.02-25.03
		C17.56,109.87,3.3,100.55,0,98.65l0-36.99C9.21,66.95,54.79,95.07,40.72,124.39z"/>
	<path class="st1" d="M11.63,305.8c5.12-10.51,4.92-11.81,1.52-33.46c-0.94-6.01-2.12-13.48-3.49-23.13
		c-6.49-45.65-0.53-54.14,9.31-61.87c7.41-5.82,13.4-7.62,29.44-12.45c5.76-1.73,12.92-3.89,21.94-6.77
		c23.93-7.65,38.6-13.93,38.6-45.4c0-32.59-26.86-64.56-53.13-91.54C33.64,8.41,5.52,13.67,0,14.99l0-2.02
		c3.16-0.85,33.05-8.03,57.25,16.81c26.55,27.26,53.7,59.62,53.7,92.93c0,34.53-18.53,40.45-39.99,47.3
		c-9.03,2.89-16.2,5.05-21.97,6.78c-15.77,4.75-21.67,6.53-28.78,12.11c-9.29,7.3-14.91,15.42-8.57,60.01
		c1.37,9.63,2.54,17.1,3.49,23.1c3.42,21.79,3.7,23.57-1.69,34.65C9.14,315.48,4.16,319.34,0,320.94l0-2.08
		C3.57,317.25,7.82,313.63,11.63,305.8z"/>
	<path class="st1" d="M65.6,84.51c17.29,26.08,23.42,46.54,17.73,59.15c-3.03,6.71-9.23,10.76-18.43,12.04
		C41.78,158.91,5.6,173.1,0,175.33l0-2.15c7.57-3,42.14-16.34,64.63-19.47c8.47-1.18,14.15-4.84,16.88-10.88
		c5.31-11.78-0.93-32.11-17.57-57.23C40.38,50.08,6.94,40.09,0,38.35l0-2.06C6.11,37.76,41.14,47.6,65.6,84.51z"/>
	<path class="st1" d="M42.52,125.26C28.16,155.19,5.27,158.94,0,159.4l0-2c5.13-0.48,26.91-4.23,40.72-33.01
		C54.79,95.07,9.21,66.95,0,61.66l0-2.3c2.99,1.66,15.84,9.09,26.99,19.65C43.96,95.08,49.33,111.07,42.52,125.26z"/>
	<path class="st1" d="M13.02,126.73C8.69,142.84,1.89,150.01,0,151.76l0-2.88c2.63-2.97,7.66-9.93,11.09-22.67
		c3.87-14.39-6.91-22.65-11.09-25.25l0-2.31C3.3,100.55,17.56,109.87,13.02,126.73z"/>
</g>
</svg>
