<?xml version="1.0" encoding="utf-8"?>
<!-- Generator: Adobe Illustrator 26.1.0, SVG Export Plug-In . SVG Version: 6.00 Build 0)  -->
<svg version="1.1" id="Capa_2" xmlns="http://www.w3.org/2000/svg" xmlns:xlink="http://www.w3.org/1999/xlink" x="0px" y="0px"
	 viewBox="0 0 168 165" style="enable-background:new 0 0 168 165;" xml:space="preserve">
<style type="text/css">
	.st0{fill:#AC8B66;}
</style>
<g>
	<path class="st0" d="M164.38,10.77c-6.91,0-18.89-1.59-30.27-10.77l3.3,0C150.2,9.25,163.26,9.06,168,8.61v2
		C167.05,10.7,165.83,10.77,164.38,10.77z"/>
	<path class="st0" d="M162.17,38.86c-4.02,0-8.98-0.49-14.41-2.1C136.31,33.37,120.74,24.18,108.99,0l2.23,0
		c9.12,18.31,21.8,30.28,37.01,34.81c8.3,2.48,15.55,2.2,19.78,1.66v2.04C166.41,38.7,164.44,38.86,162.17,38.86z"/>
	<path class="st0" d="M164.11,72.05c-15.98-2.57-35.88-5.76-54.17-32.85C98.19,21.82,91.51,9.16,87.82,0l2.13,0
		c3.66,8.85,10.21,21.15,21.64,38.09c17.81,26.37,36.41,29.35,52.83,31.99c1.21,0.19,2.4,0.39,3.58,0.59v2.03
		C166.72,72.48,165.43,72.27,164.11,72.05z"/>
	<path class="st0" d="M132.04,98.62C112.5,83.71,88.43,39.29,76.87,17.95c-2.14-3.95-3.83-7.08-5.09-9.27
		c-1.59-2.79-3.9-5.74-6.57-8.67l2.69,0c2.24,2.59,4.19,5.18,5.62,7.68c1.27,2.22,2.96,5.35,5.11,9.31
		c11.5,21.22,35.43,65.39,54.63,80.03c14.61,11.15,27.54,14.77,34.75,15.94v2.07C160.63,113.92,147.32,110.28,132.04,98.62z"/>
	<path class="st0" d="M17.84,0c20.23,17.93,26.53,29.49,35.51,46.01C60.08,58.39,68.46,73.8,85.36,97
		c34.28,47.06,67.62,61.16,82.64,65.31v2.13c-4.96-1.31-11.97-3.71-20.45-8.08c-15.65-8.07-39.43-24.72-63.8-58.18
		C66.77,74.87,58.35,59.4,51.59,46.96C42.18,29.65,36.05,18.37,14.86,0L17.84,0z"/>
</g>
</svg>
