<?xml version="1.0" encoding="utf-8"?>
<!-- Generator: Adobe Illustrator 26.1.0, SVG Export Plug-In . SVG Version: 6.00 Build 0)  -->
<svg version="1.1" id="Capa_2" xmlns="http://www.w3.org/2000/svg" xmlns:xlink="http://www.w3.org/1999/xlink" x="0px" y="0px"
	 viewBox="0 0 195 504" style="enable-background:new 0 0 195 504;" xml:space="preserve">
<style type="text/css">
	.st0{fill:none;}
	.st1{fill:#AC8B66;}
</style>
<g>
	<path class="st0" d="M66.89,226.08C54.32,162.16,13.52,121.5,0,109.51v31.18c6.7,6.13,35.81,35.06,44.4,82.25
		c4.95,27.2-8.39,45.34-20.45,55.76C14.85,286.56,5.1,291.32,0,293.49v25.94c8.85-3.3,21.07-8.72,32.68-16.77
		C61.44,282.7,72.95,256.94,66.89,226.08z"/>
	<path class="st0" d="M96.95,217.27C84.33,153.97,21.84,96.35,0,77.85v29c12.18,10.53,55.74,52.16,68.85,118.84
		c6.15,31.28-5.98,58.48-35.07,78.64C21.72,312.69,9.02,318.24,0,321.56v36.31c9.26-4.47,32.08-16.43,53.31-35.08
		C78.42,300.73,106.37,264.52,96.95,217.27z"/>
	<path class="st0" d="M130.84,217.02c-10.03-47.44-45.21-91.85-72.95-120.74C32.45,69.78,7.34,50.34,0,44.83v30.39
		c8.38,7,24.02,20.78,40.41,38.88c22.23,24.56,50.43,62.32,58.5,102.78c4.25,21.29,1.48,42.17-8.22,62.06
		c-7.74,15.87-19.89,31.13-36.1,45.37C32.52,343.71,8.74,355.92,0,360.08v42.3c8.45-7.51,19.2-15.57,30.77-24.24
		C79.64,341.54,146.57,291.4,130.84,217.02z"/>
	<path class="st0" d="M59.31,94.87c27.93,29.09,63.36,73.82,73.49,121.74c15.99,75.63-51.53,126.21-100.83,163.14
		C19.8,388.86,8.55,397.29,0,405.06v92.46c1.99-3.25,3.97-6.58,6-9.97c12.78-21.43,27.27-45.71,54.77-68.96
		c7.71-6.52,17.04-13.29,26.92-20.46c52.13-37.82,123.52-89.6,95.22-201.59c-17.42-68.97-68.94-117.49-109.1-146.05
		C43.35,28.82,14.64,15.05,0,8.68v33.65C5.34,46.29,32.14,66.57,59.31,94.87z"/>
	<path class="st0" d="M22.91,225.95C17.75,205.61,6.43,185.63,0,175.34v92.56C11.43,260.03,27.76,245.05,22.91,225.95z"/>
	<path class="st0" d="M42.43,223.3C34.43,179.33,8.43,151.47,0,143.42v28.19c5.98,9.28,19.13,31.32,24.85,53.85
		c5.3,20.88-13,36.91-24.85,44.84v21.01c5.14-2.25,14.21-6.83,22.69-14.17C39.62,262.49,46.26,244.37,42.43,223.3z"/>
	<path class="st1" d="M24.85,225.46C19.13,202.93,5.98,180.89,0,171.61v3.73c6.43,10.29,17.75,30.27,22.91,50.61
		c4.85,19.1-11.49,34.08-22.91,41.95v2.4C11.85,262.37,30.15,246.34,24.85,225.46z"/>
	<path class="st1" d="M44.4,222.94C35.81,175.74,6.7,146.82,0,140.69v2.74c8.43,8.05,34.43,35.91,42.43,79.87
		c3.83,21.07-2.81,39.19-19.74,53.85C14.21,284.48,5.14,289.06,0,291.31v2.18c5.1-2.17,14.85-6.93,23.95-14.79
		C36.01,268.28,49.34,250.14,44.4,222.94z"/>
	<path class="st1" d="M68.85,225.69C55.74,159.01,12.18,117.38,0,106.85v2.66c13.52,11.99,54.32,52.65,66.89,116.57
		c6.07,30.86-5.44,56.63-34.21,76.58C21.07,310.71,8.85,316.13,0,319.43v2.13c9.02-3.32,21.72-8.87,33.77-17.22
		C62.87,284.17,75,256.97,68.85,225.69z"/>
	<path class="st1" d="M90.69,278.95c9.7-19.89,12.46-40.77,8.22-62.06c-8.07-40.46-36.26-78.22-58.5-102.78
		C24.02,96,8.38,82.22,0,75.22v2.63c21.84,18.5,84.33,76.12,96.95,139.42c9.42,47.24-18.53,83.45-43.64,105.51
		C32.08,341.43,9.26,353.4,0,357.86v2.22c8.74-4.16,32.52-16.38,54.59-35.76C70.81,310.08,82.95,294.82,90.69,278.95z"/>
	<path class="st1" d="M132.8,216.61c-10.13-47.92-45.56-92.65-73.49-121.74C32.14,66.57,5.34,46.29,0,42.33v2.49
		c7.34,5.51,32.45,24.95,57.9,51.45c27.74,28.9,62.92,73.3,72.95,120.74c15.73,74.38-51.2,124.51-100.07,161.12
		C19.2,386.81,8.45,394.87,0,402.38v2.68c8.55-7.77,19.8-16.2,31.97-25.32C81.27,342.82,148.79,292.24,132.8,216.61z"/>
	<path class="st1" d="M184.85,196.05c-7.76-30.73-22.82-60.03-44.75-87.08c-17.52-21.62-39.45-41.85-65.17-60.14
		C43.79,26.69,14.47,12.75,0,6.5v2.18c14.64,6.37,43.35,20.14,73.82,41.81c40.15,28.56,91.67,77.08,109.1,146.05
		c28.29,111.99-43.1,163.78-95.22,201.59c-9.88,7.17-19.21,13.93-26.92,20.46C33.27,441.84,18.78,466.13,6,487.55
		c-2.03,3.4-4.01,6.72-6,9.97v3.8c2.57-4.13,5.11-8.38,7.72-12.75c12.7-21.29,27.1-45.43,54.34-68.46
		c7.66-6.47,16.96-13.22,26.81-20.37C141.45,361.6,213.48,309.35,184.85,196.05z"/>
</g>
</svg>
