<?xml version="1.0" encoding="utf-8"?>
<!-- Generator: Adobe Illustrator 26.1.0, SVG Export Plug-In . SVG Version: 6.00 Build 0)  -->
<svg version="1.1" id="Capa_1" xmlns="http://www.w3.org/2000/svg" xmlns:xlink="http://www.w3.org/1999/xlink" x="0px" y="0px"
	 viewBox="0 0 1920 1920" style="enable-background:new 0 0 1920 1920;" xml:space="preserve">
<style type="text/css">
	.st0{fill:#20100E;}
	.st1{fill:#D1CDCD;}
	.st2{fill:#FEFEFE;}
	.st3{fill:#FDFDFD;}
	.st4{fill:#FBFAFA;}
</style>
<g>
	<path class="st0" d="M865.98,633.79c10.39-24.9,21.32-48.73,33.86-71.81c4.95-9.11,11.38-17.22,17.98-25.16
		c1.92-2.31,3.59-4.76,5.23-7.28c5.26-8.11,12.27-13.5,22.43-13.67c13.33-0.22,26.56,9.82,30.58,22.69
		c5.31,17.02,6.14,34.64,7.59,52.2c2.24,27.04,5,54.05,6.59,81.13c1.19,20.28,1.73,40.62,4.01,60.79c2.23,19.82,1.5,39.56,0.8,59.37
		c-0.54,15.24-5.13,28.97-13.52,41.69c-4.78,7.25-11.9,10.37-19.52,9.68c-7.68-0.7-11.46-7.64-13.13-14.76
		c-3.87-16.52-7.19-33.14-9.94-49.92c-5.74-35.04-8.51-70.4-12.55-105.62c-2.45-21.34-3.54-42.83-5.24-64.25
		c-0.05-0.66-0.17-1.31-0.41-3.09c-4.25,8.7-8.11,16.51-11.9,24.36c-6.93,14.39-13.2,29.11-21.92,42.59
		c-3.63,5.61-7.33,11.15-12.26,15.71c-7.62,7.05-16.51,6.38-22.96-1.77c-4.66-5.88-8.75-12.16-12.19-18.84
		c-10.18-19.82-23.73-37.32-37.45-54.71c-0.77-0.98-1.38-2.36-3.55-2.13c0.13,2.53,0.31,5.08,0.4,7.64
		c1.86,53.93,4.15,107.85,5.29,161.81c0.48,22.97,2.07,45.91,0.84,68.9c-0.44,8.24-3.01,10.5-11.09,10.05
		c-12.77-0.72-20.49-7.86-25.06-19.01c-6.77-16.54-8.39-34.21-10.57-51.7c-3.18-25.59-6.45-51.19-8.67-76.88
		c-2.96-34.21-9.07-67.97-13.16-102.02c-1.77-14.71-3.5-29.42-5.14-44.13c-0.84-7.54-0.19-14.96,2.51-22.13
		c2.27-6.03,6.3-9.16,13.03-9.75c16.39-1.43,29.33,6.8,41.89,15.06c25.48,16.76,46.77,37.84,62.59,64.22
		C855.62,620.14,860.89,626.62,865.98,633.79z"/>
	<path class="st0" d="M500.78,981.98c-20.72-39.72-37.72-80.72-55.94-121.15c-1.08-2.4-2.78-4.53-4.09-6.84
		c-6.04-10.61-0.98-20.51,11.09-22.37c8.5-1.31,15.32,0.62,20.78,7.62c5.8,7.44,13.77,13.01,19.17,21.27
		c0-4.71,0.16-9.43-0.03-14.13c-0.57-14.25,1.81-27.95,8.35-40.64c7.53-14.6,20.3-18.22,34.7-10.25
		c9.85,5.45,18.48,12.28,25.44,21.33c17.57,22.85,35,45.78,51.48,69.43c5.2,7.47,8.42,15.82,9.7,24.89
		c0.76,5.39-0.31,10.15-3.62,14.57c-5.14,6.86-9.67,8.35-17.7,5.44c-7.44-2.7-13.35-7.4-18-13.73
		c-12.14-16.51-23.24-33.67-33.48-51.44c-8.13-14.11-20.24-25.09-31.14-36.99c-2.7-2.95-3.49,0.26-3.91,1.77
		c-1,3.56-0.6,7.29-0.27,10.93c3.22,35.1,9.33,69.52,23.23,102.23c4.03,9.48,6.39,19.53,7.53,29.91
		c2.02,18.43-16.84,27.26-31.2,20.96c-0.45-0.2-0.93-0.33-1.76-0.61c4.56,21.71-4.65,39.06-16.66,55.68
		c-11.31,15.65-24.86,28.87-42.17,37.48c-21.21,10.55-43.38,13.38-66.25,5.22c-7.51-2.68-15.07-5.22-22.59-7.85
		c-2.2-0.77-4.49-1.39-6.53-2.46c-17.86-9.35-35.5-19.24-51.04-32.08c-10.79-8.91-22.85-16.24-32.81-26.12
		c-15.69-15.56-32.61-30.19-41.77-51.08c-2.13-4.86-3.75-9.95-5.6-14.94c-2.11-5.68-3.26-11.56-7.34-16.64
		c-4.14-5.17-3-12.55,1.57-17.47c20.18-21.74,40.46-43.38,59.32-66.3c2.73-3.31,6.16-6.08,9.47-8.87
		c5.09-4.28,10.87-4.95,16.82-2.11c5.95,2.85,9.12,7.74,8.78,14.43c-0.44,8.78-3.03,17.06-7.15,24.72
		c-7.74,14.4-17.05,27.83-27.03,40.76c-1.91,2.48-2.01,4.02-0.04,6.33c14.92,17.54,30.55,34.32,49.93,47.16
		c2.51,1.67,3.9,1.82,5.81-0.98c8.93-13.07,18.91-25.35,29.03-37.53c3.35-4.03,7.44-6.62,12.4-7.89c5.69-1.47,9.87,1.08,11.36,6.73
		c1.38,5.25,0.25,10.2-1.65,15.11c-5.71,14.7-13.59,28.18-23.31,40.54c-2.81,3.57-3.21,5.23,0.98,8.22
		c22.64,16.17,47.5,27.38,74.34,34.35c6.87,1.78,13.98,1.43,20.87,0.69c7.82-0.84,12.62-6.96,15.87-13.31
		c4.62-9.03,7.56-18.72,6.44-29.26c-0.81-7.66,5.17-14.09,13.14-14.71C496.92,981.87,498.59,981.98,500.78,981.98z"/>
	<path class="st0" d="M1287.75,833.85c-9.62,7.69-20.07,13.88-32.47,15.47c-21.27,2.73-35.75-3.75-46.6-22.31
		c-4.54-7.77-3.23-16.5-2.26-24.93c0.46-3.96,1.72-7.84,2.61-11.74c-1.93-0.74-2.41,0.73-3.27,1.65
		c-11.54,12.49-23.67,24.36-37.02,34.91c-10.21,8.08-21.8,10.22-34.34,6.64c-5.33-1.53-9.23-5.09-12.56-9.42
		c-11.41-14.81-14.59-31.78-13.29-49.94c0.72-10.05,2.14-20.01,3.53-30.29c-6.74,9.6-13.46,19.22-20.23,28.8
		c-6.75,9.57-13.75,18.83-24.83,23.99c-4.57,2.13-9.21,2.85-14.08,2.03c-11.82-1.99-17.57-8.43-18.99-20.4
		c-3.19-26.96,3.04-52.48,17.84-74.21c15.91-23.37,37.66-41,67.92-43.56c11.56-0.98,22.09,2.05,31.39,9.04
		c7.41,5.57,9.33,14.05,10.87,22.35c2.2,11.87,1.51,23.77-0.28,35.76c-1.86,12.48-2.48,25.16-3.61,37.75
		c-0.71,7.95-1.37,15.91-2.04,23.86c-0.2,2.44,0.19,5,2.32,6.22c2.09,1.2,4.56,0.56,6.51-1.07c17.53-14.65,34.53-29.81,48.44-48.13
		c6.96-9.18,14.92-17.46,24.07-24.56c3.06-2.37,5.99-3.94,9.2-0.6c1.34,1.4,2.34,0.66,3.49,0.03c18.42-9.94,37.38-6.94,56.35-2.24
		c6.5,1.61,12.19,5.19,18.25,8.79c4.42-13.95,9.42-27.37,15.63-40.21c9.13-18.87,15.51-38.94,25.51-57.39
		c2.45-4.52,5.33-8.81,8.07-13.18c1.38-2.2,3.45-3.62,5.85-4.47c9.64-3.43,23.25,3.89,26.5,13.61c3.94,11.8,0.49,23.03-1.62,34.43
		c-6.95,37.54-21.88,72.58-34.39,108.33c-14.56,41.6-31.86,82.21-45.47,124.19c-3.39,10.45-7.75,20.86-14.22,30.11
		c-2.9,4.15-6.15,7.78-10.14,10.9c-5.99,4.69-12.14,5.67-19.05,2.12c-6.93-3.56-10.46-9.27-10.5-16.84
		c-0.05-11.41,2.83-22.41,5.6-33.38c4.2-16.61,8.42-33.21,12.63-49.82C1289.5,834.88,1290.04,833.56,1287.75,833.85z"/>
	<path class="st0" d="M1543.15,904.63c-15.74,9.08-31.14,17.08-47.09,23.64c-21.04,8.66-42.51,16.75-65.28,19.38
		c-16.64,1.92-32.44-3.34-45.58-13.01c-10.84-7.97-14.88-20.75-15.26-34.41c-0.61-22.02,7.58-41.17,18.47-59.63
		c13.01-22.07,29.87-40.56,51.61-54.05c10.74-6.66,22.03-13.07,35.79-11.6c12.5,1.33,22.73,6.54,29.79,16.87
		c6.47,9.46,5.55,21.23-1.72,30.8c-14.81,19.5-33.59,24.58-57.05,20.26c-2.2-0.41-3.43-0.43-5.06,1.4
		c-12.54,14.08-22.29,29.83-29.36,47.3c-4.48,11.07-0.62,17.94,10.88,21.38c18.24,5.45,35.62,1.3,52.97-3.57
		c23.13-6.49,44.96-16.51,67.27-25.24c1.74-0.68,2.84-1.47,3.19-3.34c1.4-7.35,3.65-14.48,4.7-21.94
		c2.36-16.78,10.45-30.3,24.5-40.08c13.43-9.34,31.19-7.34,42.09,4.85c3.21,3.59,6.62,7.05,8.98,11.33
		c5.93,10.77,4.05,22.06-5.03,30.92c-13.66,13.32-28.39,25.19-45.33,34.14c-1.76,0.93-3.17,1.86-3.65,4.27
		c-8.58,42.78-30.71,75.96-69.1,97.77c-11.6,6.59-23.85,11.81-35.68,17.88c-8.96,4.59-16.15,10.02-17.77,21.06
		c-1.06,7.25-8.17,12.61-14.76,12.85c-6.17,0.23-13.05-5.08-15.76-11.98c-3.97-10.09-3.36-19.9,1.8-29.35
		c3.9-7.15,8.07-14.17,12.2-21.2c6.94-11.79,18.59-17.42,30.44-22.35c18.12-7.53,36.39-14.71,54.28-22.79
		c5.88-2.65,10.38-6.5,13.5-12.06c4.73-8.42,9.81-16.69,11.02-26.57C1543.22,906.93,1543.15,906.28,1543.15,904.63z"/>
	<path class="st0" d="M1631.31,1031.58c-10.87,1.69-21.85,1.1-32.75,2.1c-10.27,0.95-20.23-0.04-30.06-3.21
		c-6.89-2.22-11.74-6.89-15.79-12.46c-3.77-5.19-2.12-14.71,2.97-21.44c13.58-17.94,32.71-26.88,53.64-32.38
		c12.82-3.37,25.8-6.63,39.37-5.43c25.53,2.26,47.96,10.49,63.98,31.88c6.81,9.09,6.86,26.7-0.9,37.75
		c-12.04,17.13-27.84,30.4-45.2,41.76c-6.51,4.26-13.78,7.38-20.83,10.76c-7.46,3.58-13.85,8.61-19.88,14.12
		c-4.48,4.1-3.85,6.89,2,8.08c25.15,5.11,50.34,9.9,76.24,8.15c8.47-0.57,16.97-0.89,25.44-1.43c3.32-0.21,6.58-0.28,8.07,3.34
		c1.61,3.91,0.08,7.28-2.93,9.81c-3.37,2.83-7.49,4.23-11.8,5.08c-12.01,2.35-24.23,1.87-36.36,2.6
		c-21.43,1.29-42.91,2.72-64.31-0.7c-11.64-1.86-22.79-4.81-31.67-13.28c-9.06-8.64-11.65-20.92-6.79-32.54
		c2.33-5.58,5.35-10.76,9.38-15.25c10.57-11.79,21.38-23.35,34.28-32.71c1.45-1.05,2.81-2.25,4.21-3.38
		C1631.53,1032.39,1631.42,1031.99,1631.31,1031.58z"/>
	<path class="st1" d="M1287.75,833.85c0.38-0.97,1.6-2.17,1.97-1.7c0.97,1.25,0.31,2.77-0.66,4
		C1288.76,835.31,1288.75,834.29,1287.75,833.85z"/>
	<path class="st2" d="M1306.15,751.73c-1.65,16.56-8.61,30.57-18.71,43.07c-4.7,5.81-9.89,11.28-15.32,16.42
		c-6.33,5.99-13.81,9.08-22.83,6.93c-4.28-1.02-6.78-2.99-6.46-7.82c0.21-3.05,0.77-5.92,2.04-8.67
		c7.71-16.83,16.25-33.16,28.11-47.53c3.94-4.77,8.21-9.19,13.35-12.68c4.48-3.04,9.37-6.37,14.7-3.31
		C1306.06,741.01,1305.6,746.89,1306.15,751.73z"/>
	<path class="st2" d="M1121.2,683.98c-1.14,8.41-5.26,14.49-8.85,20.79c-9.4,16.49-19.89,32.25-31.53,47.25
		c-3.19,4.12-6.9,7.65-11.15,10.62c-3.47,2.42-5.42,1.73-6.5-2.31c-0.84-3.12-0.53-6.34,0.04-9.42c1.65-8.89,4.7-17.19,9.95-24.74
		c11.49-16.53,25.79-29.89,43.37-39.74C1117.82,685.71,1119.15,685.06,1121.2,683.98z"/>
	<path class="st3" d="M1458.99,827.37c-2.72-0.25-6.24,0.71-7.49-1.75c-0.96-1.88,2.01-3.87,3.45-5.62
		c5.29-6.43,10.67-12.79,16.09-19.11c4.55-5.32,10.1-5.97,16.04-2.15c2.8,1.8,3.21,4.1,1.76,6.85
		C1482.44,817.75,1473.25,826.07,1458.99,827.37z"/>
	<path class="st4" d="M1583.12,869.93c-1.93-0.13-2.8-1.34-1.82-2.96c5.17-8.48,10.28-17.02,18.27-23.3
		c0.99-0.78,1.83-0.83,2.45,0.25c1.11,1.95,3.51,4.15,1.87,6.22c-5.75,7.27-12.11,14.03-19.78,19.38
		C1583.85,869.71,1583.5,869.78,1583.12,869.93z"/>
	<path class="st2" d="M1687.87,998.03c-17.68,5.99-35.25,10.2-53.39,11.83c-12.11,1.09-24.22,2.25-36.4,2.09
		c-1.48-0.02-3.06-0.05-4.41-0.55c-4.97-1.84-5.68-5.45-1.2-8.25c20.44-12.75,41.54-22.81,66.75-15.39
		c7.48,2.2,15.22,3.53,22.63,6.1C1684.08,994.65,1686.24,995.46,1687.87,998.03z"/>
</g>
</svg>
