<?xml version="1.0" encoding="utf-8"?>
<!-- Generator: Adobe Illustrator 26.1.0, SVG Export Plug-In . SVG Version: 6.00 Build 0)  -->
<svg version="1.1" id="Capa_1" xmlns="http://www.w3.org/2000/svg" xmlns:xlink="http://www.w3.org/1999/xlink" x="0px" y="0px"
	 viewBox="0 0 374 173" style="enable-background:new 0 0 374 173;" xml:space="preserve">
<style type="text/css">
	.st0{fill:#919191;}
</style>
<g>
	<path class="st0" d="M202.19,167.41c-45.13,2.21-79.23-9.56-106.63-19.01c-18.36-6.33-34.21-11.79-47.96-10.88
		c-20.65,1.37-36.56,9.3-47.6,17.25v2.47c10.82-8.05,26.78-16.33,47.73-17.72c13.35-0.88,29.02,4.52,47.17,10.78
		c27.57,9.5,61.89,21.34,107.38,19.12c66.82-3.26,125.96-39.87,171.72-106.07V59.8C328.38,126.99,269.16,164.15,202.19,167.41z"/>
	<path class="st0" d="M84.97,118.69c28.09,8.77,63.04,19.69,108.85,17.46C266.87,132.59,320.64,66.38,363.67,0h-2.39
		c-42.64,65.59-95.8,130.66-167.57,134.16c-45.45,2.22-80.22-8.65-108.15-17.37c-18.83-5.88-33.71-10.54-46.47-9.56
		c-15.78,1.2-28.85,7.68-39.1,15.46v2.5c10.16-7.98,23.28-14.75,39.25-15.96C51.62,108.27,66.34,112.87,84.97,118.69z"/>
	<path class="st0" d="M63.51,90.05c27.21,5.38,68.34,13.5,117.95,11.09c33.43-1.63,59.81-17.15,80.65-47.44
		c10.88-15.81,19.45-34.33,27.02-53.7h-2.15c-7.46,18.99-15.89,37.11-26.52,52.56c-20.46,29.75-46.34,44.98-79.1,46.58
		C132,101.55,92.64,93.77,63.9,88.09c-14.9-2.94-26.66-5.27-34.31-4.86C19.14,83.79,9.15,86.8,0,91.06v2.19
		c9.17-4.36,19.2-7.47,29.7-8.03C37.1,84.84,48.75,87.14,63.51,90.05z"/>
	<path class="st0" d="M21.1,53.27c12.18,0.94,22.04,3.74,32.47,6.7c20.29,5.77,43.29,12.3,92.95,9.89
		C194.64,67.52,210.94,38.17,222.1,0h-2.09c-10.97,37.14-27.05,65.59-73.59,67.86c-49.33,2.41-72.16-4.09-92.3-9.81
		c-10.53-2.99-20.48-5.82-32.86-6.77C14.31,50.74,7.18,51.88,0,54.62v2.12C6.68,54.08,13.76,52.7,21.1,53.27z"/>
	<path class="st0" d="M19.68,28.11c18.53,1.63,27.44,3.48,36.06,5.28c11.44,2.38,22.25,4.63,53.62,6.2c2,0.1,3.94,0.15,5.85,0.15
		c33.97,0,52.67-15.72,63.79-39.74h-2.18c-0.18,0.38-0.35,0.78-0.53,1.15c-12.99,26.49-34.23,38.06-66.83,36.44
		c-31.22-1.56-41.95-3.79-53.32-6.16c-8.68-1.81-17.65-3.67-36.29-5.31C13.48,25.56,6.83,26.57,0,29.1v2.12
		C6.4,28.75,13,27.53,19.68,28.11z"/>
	<path class="st0" d="M6.65,5.44c18.53,1.63,27.44,3.48,36.06,5.28c11.44,2.38,22.25,4.63,53.62,6.2c2,0.1,3.94,0.15,5.85,0.15
		c21.53,0,36.93-6.32,48.14-17.06h-2.87C134.9,11.19,118.2,16,96.44,14.92c-31.22-1.56-41.95-3.79-53.32-6.16
		C34.45,6.96,25.48,5.09,6.83,3.45C4.59,3.25,2.31,3.25,0,3.44v2.01C2.21,5.26,4.43,5.25,6.65,5.44z"/>
</g>
</svg>
